<?xml version="1.0" encoding="UTF-8"?>
<svg id="Layer_1" xmlns="http://www.w3.org/2000/svg" version="1.1" viewBox="0 0 352.4 204.8">
  <!-- Generator: Adobe Illustrator 29.5.0, SVG Export Plug-In . SVG Version: 2.1.0 Build 137)  -->
  <defs>
    <style>
      .st0 {
        fill: #fedb00;
      }

      .st1 {
        fill: #bfbfbf;
      }

      .st2 {
        fill: #ec1c24;
      }
    </style>
  </defs>
  <path class="st1" d="M294.6,111.2h-12.1c-1,0-1.1-.6-1.4-1.4-1.1-3.4-2.3-6.9-3.3-10.5-.2-1-.7-1.4-1.7-1.4h-18c-1.1,0-1.6.4-1.8,1.5-1.1,3.4-2.3,6.9-3.4,10.5-.2.7-.5,1.2-1.5,1.2h-12.1c2.2-6.5,4.4-12.9,6.6-19.3,4.2-12.2,8.5-24.2,12.5-36.4.5-1.4,1-1.7,2.3-1.6,4.2.1,8.2.1,12.4,0,1.1,0,1.6.4,2,1.4,6.3,18.5,12.7,36.9,18.9,55.4.2.1.2.2.4.6M267.4,67h-.4c-2.3,7.1-4.7,14.3-7,21.5h13.4c1.1,0,1-.5.7-1.2-.7-2.2-1.4-4.4-2.1-6.6-1.7-4.6-3.2-9.1-4.7-13.7"/>
  <path class="st1" d="M173.3,93h1c2.7-.1,5.4-.6,5.8,3.4.1,1.5,1.6,2.7,3.1,3.4,4.7,2.2,9.5,2.6,14.1.1,2.1-1.1,3.2-3,3.2-5.3s-1.4-3.9-3.4-5c-3.6-1.8-7.6-2.3-11.4-3.4-3-.7-5.8-1.7-8.5-3-10.8-5.3-9.8-18.3-3.6-24.2,5-4.8,11.2-6.3,18-6.2,6,.1,11.7,1.6,16.1,6.2,2.6,2.7,4.1,6,4.4,9.8.1,1.1-.1,1.5-1.4,1.5-3.1-.1-6,0-9.1,0s-1.2.1-1.4-.7c-.5-5-5.9-6.6-10-6.5-1.8.1-3.8.4-5.5,1.2-4.3,2.3-4.4,7.4-.4,10,2.7,1.6,5.8,2.1,8.7,2.8,3.9,1,8,2,11.6,4.1,5.5,3.2,8.2,7.9,8,14.3-.2,6.2-3.3,10.6-8.6,13.4-5.7,3.1-11.9,3.3-18.2,2.7-4.8-.5-9.3-2-13-5.3-3.6-3.2-5.2-7.3-5.5-12.1-.1-1.1.2-1.5,1.4-1.4,1.7.2,3.2.1,4.7.1"/>
  <path class="st1" d="M304.2,93.1h.7c2.7-.1,5.5-.6,5.9,3.6.1,1.4,1.5,2.3,2.7,3.2,3.9,2.6,11.1,2.6,14.9,0,3.8-2.6,3.6-7.6-.5-9.8-3.7-2-7.8-2.6-11.8-3.6-2.8-.7-5.5-1.6-8.1-2.8-11.2-5.3-10.3-18.3-3.7-24.5,5-4.7,11.3-6.2,18-5.9,5.9.1,11.4,1.6,15.7,6,2.7,2.8,4.3,6.3,4.6,10.2,0,1-.1,1.2-1.1,1.2h-9.2c-.6,0-1.1-.1-1.4-.9-1.7-4.8-4.7-6.8-9.8-6.4-2,.1-3.9.4-5.7,1.4-4.2,2.3-4.4,7.3-.4,9.8,3.2,2,6.9,2.3,10.5,3.3,3.4.9,6.8,1.8,9.8,3.6,5.4,3.1,8.2,7.5,8.1,13.8-.1,6.3-3.1,10.8-8.5,13.9-5.8,3.2-12.1,3.4-18.3,2.7-4.9-.5-9.6-2-13.3-5.5-3.4-3.3-4.8-7.4-5.2-11.9-.1-.9.2-1.2,1.1-1.1,1.7-.1,3.3-.2,4.9-.2"/>
  <path class="st1" d="M232.8,82.6v26.7c0,1.5-.4,1.8-1.8,1.8-3-.1-5.9-.1-8.9,0-1.1,0-1.6-.2-1.6-1.5.1-18.1.1-36.2.1-54.3s.4-1.7,1.6-1.7c3,.1,5.9.1,8.9,0,1.4,0,1.7.4,1.7,1.7v27.2"/>
  <g>
    <path d="M114.2,33.7c-9.3-2.2-24.5-3.8-36.6-3.4v-3.6s27.7-3.1,46.7,10.1c-.1-.1-7-2.4-10.1-3.1"/>
    <path class="st0" d="M32.6,42.6c1.3-1.6,5.5-5.6,5.5-5.6,1.2-.4,16.2-3.9,35.4-4.8,17.3-.8,38,.6,55,7.7,3.6,1.2,8.7,6.3,9.3,7.5.3.6-6.6-2.7-16.1-5.2-9.9-2.6-21.3-4.3-31.3-4.3-26.9-.7-52.8,3.9-54.8,4.3-.7.1-3,.4-3,.4"/>
    <path class="st2" d="M146.7,59c-6.5-4.6-21.7-9.9-46.6-12.1-12.7-1.1-27.7-1.3-43.4,0,0,0-.2-5.8,1.8-6.8,1.5-.7,35.1-2.8,60.3,2.8,9.4,2.1,17.7,5,22.7,9.8,3.3,3.5,5.2,6.2,5.2,6.2"/>
    <path d="M18.7,57.8c3.6-2.1,23.7-9.9,61.5-9,23.1,0,46.8.4,68.2,13.8,3.4,1.8,5.9,11.8,5.9,11.8,0,0-17.8-15.4-51.6-17.4-28.8-1.7-65.2,1.8-74.2,4.8-13.8,4.6-13.7,4.9-13.7,4.9,0,0,2.2-8.3,3.9-8.9"/>
    <path class="st0" d="M157.2,87c-6.9-8.7-30.1-16.7-57.3-17.6-35.5-1.1-54.6,1.5-62.6,3l.7-8.7s28.2-5.7,61.7-2.9c15.6,1.1,32.5,4.5,43.4,8.4,3.7,1.3,7.1,3.4,9.9,6.3,2.4,2.5,3.6,4.7,4.3,7.5,1.2,5.3,2.3,7-.1,4"/>
    <path class="st2" d="M158.9,104c-.1-3.2.5-12.3-3.7-15.5s-16.9-9.7-30-11.7c-13.1-2-38.8-3.2-44.9-3.3-6,0-12.5-.2-13.5,0s-.5,9.8-.5,9.8c0,0,52.6.4,67.2,5.3,4.2,1.4,19.5,5.7,22.5,10.6l2.9,4.8Z"/>
    <path d="M41.1,91c.4-.9,30.3-3.1,42.6-3.1,13.1,0,35.7,1.1,49.1,5.3,13.4,4.2,24.1,7.5,25.4,13.7,1.3,6.2-.4,9.8-1.1,11.5,0,0-1.5-3.5-5.4-6.9-2.4-2.1-5.2-3.5-8.2-4.4-18.2-5.5-42.6-10.7-82.4-8l-19,2.3c0-.2-1.8-4.6-1-10.4"/>
    <path class="st0" d="M8.9,118.1c5.1-5.7,21.6-12.1,31.7-13.1,10.1-.9,39.8-4.4,60.5-2,21,2.4,36.1,5,47.3,11.1,10.3,5.6,5.9,13.7,2.9,18.8-2.7-8-9.1-11.2-12.7-12.8-7.7-3-24.2-5.2-32-6.6-8.6-1.5-49.9-1.9-65.2,1.1-10.3,2.5-21,5.4-24.3,8.6s-3.9,3.8-3.9,3.8l-4.3-8.9Z"/>
    <path class="st2" d="M48,127.3c-.7-1.3-3.2-8.1-3.3-8.6s5.1-1.1,6.3-1c1.1,0,34-2.6,50.4-1,16.8,1.6,29.8,4.8,37.4,8.1,7.5,3.2,14.1,9,9.8,14.6-4.3,5.6-4.4,5.7-4.4,5.7,0,0-3.7-8.2-5-9.4-2.5-2.2-11.4-5-21.9-7.1-12.1-2.4-25.6-4.1-55.3-2.5-11.3,1-14,1.2-14,1.2"/>
    <path d="M133.7,155.2c6.3-1.5,8-5.4,8.5-8.1.5-2.9.2-6.4-6.2-9.2-6.4-2.8-23-8-37.3-8.4-14.3-.5-27.9-2-41.3.5s-22,3.8-23.7,6.1l5.5,8.2s15.5-5.6,26.2-6.3c10.7-.6,35.5,1,45.1,2.7,9.6,1.8,20.3,4.1,22.3,8.6,2,5,.9,5.9.9,5.9"/>
    <path class="st0" d="M65.4,149.4c-2.1-5.7-2.7-7.5-2.7-7.5,0,0,19.8-1.1,23.6-1,4.2,0,36.8,3.1,41.3,10.3,5.6,8.8-6.1,12.8-6.1,12.8,0,0,3.2-6-4-8.7-7.3-2.8-18.5-4.9-25.4-5.8-6.8-1-26.7-.1-26.7-.1"/>
    <path class="st2" d="M58.1,161.9c-3.4-2.6-7.2-5.2-7.2-5.2,0,0,7.5-2.6,19-4.1,12.1-1.5,29.9-.5,40.1,3.2,7,2.5,9.6,5.4,8.8,8.3-.8,3-6,5.5-10.6,6.8s.2-2.3.2-2.3c0,0,5.7-2.6-1.4-5.6-5.9-2.4-20-3.7-26.6-3.7s-16.5,1.2-18.7,1.6c-2.5.5-3.6,1-3.6,1"/>
  </g>
  <g>
    <path class="st1" d="M201.6,142.9c0,5-1.2,9-3.8,11.6-2.6,2.7-6.3,3.9-11.3,3.9s-9-1.4-11.7-3.9c-2.6-2.7-3.9-6.5-3.9-11.7v-24.5h3.8v23.5c0,4.6.9,7.9,2.6,10.1,1.7,2.2,4.8,3.3,9.2,3.3s4.2-.4,5.7-1,2.7-1.6,3.4-2.8c.9-1.2,1.4-2.7,1.7-4.2.4-1.6.5-3.4.5-5.5v-23.5h3.8v24.7Z"/>
    <path class="st1" d="M230.4,156.2c0,8.5-4.3,12.7-12.7,12.7s-6.2-.7-8.2-2.2c-2-1.5-3.1-3.6-3.3-6.3h3.4c.5,3.9,3.3,5.9,8.2,5.9s5.8-.9,7.1-2.6c1.5-1.7,2.1-4.3,2.1-7.6v-4.8c-2,4.2-5.2,6.3-9.8,6.3s-6.8-1.2-9-3.8-3.3-6-3.3-10.2,1.1-8,3.4-10.7c2.3-2.7,5.4-4.1,9.1-4.1s7.8,2.1,9.7,6.2v-5.4h3.2v26.7ZM210.9,134.5c-1.7,2.1-2.5,4.9-2.6,8.4,0,3.4.9,6.3,2.5,8.2,1.6,2.1,3.9,3.1,6.6,3.1s5.2-1.1,6.9-3.2c1.7-2.1,2.6-4.9,2.6-8.6s-.9-6.2-2.6-8.1c-1.7-2-3.9-3.1-6.8-3.1-2.7.2-5,1.4-6.6,3.3Z"/>
    <path class="st1" d="M259.7,157.6c-.9.2-1.7.5-2.7.5-1.5,0-2.5-.5-3-1.4s-.7-2.2-.7-3.8c-2.5,3.8-6,5.7-10.7,5.7s-5.2-.7-6.8-2.1-2.5-3.3-2.5-5.9c0-5.2,3.6-8,10.6-8.7.4,0,.9-.1,1.6-.1s1.1-.1,1.5-.1.7-.1,1.2-.1.9-.1,1.1-.1.5-.1.9-.1c.4-.1.6-.1.9-.2s.4-.1.6-.2.4-.2.6-.2c.6-.5,1-1.4,1-2.7,0-2.2-.6-3.8-1.8-4.8s-3.1-1.4-5.5-1.4-4.2.5-5.5,1.6-2,2.8-2.2,5h-3.3c.1-3.1,1.2-5.4,3.2-7s4.8-2.5,8.2-2.5,5.8.7,7.6,2.1,2.8,3.4,2.8,6v17.1c0,.4.2.6.5.9.2.2.7.4,1.4.4s1,0,1.4-.1l-.2,2.5ZM251.4,143.2c-.7.2-1.5.4-2.1.5s-1.7.2-3.2.5c-.4,0-.6.1-.9.1-1.2.1-2.1.4-3,.5-.7.1-1.6.5-2.6.9s-1.7,1-2.2,1.7c-.5.7-.7,1.7-.7,2.8,0,1.6.6,3,1.7,3.9,1.2,1,2.7,1.5,4.8,1.5s4.9-.7,6.9-2.3c1.8-1.6,2.8-3.7,2.8-6.3v-4.7c-.4.4-.9.6-1.6.9Z"/>
  </g>
  <g>
    <path class="st1" d="M264.3,134.7c1.2-2.1,2.6-3.7,4.2-4.7s3.6-1.5,5.9-1.5,5.3.9,7.1,2.5,2.7,4.1,2.7,7.4v19.3h-3.4v-18.2c0-5.3-2.5-7.9-7.3-7.9s-4.9.9-6.5,2.7-2.5,4.6-2.5,8v15.4h-3.4v-28.4h3.3v5.4Z"/>
    <path class="st1" d="M313.7,157.8h-3.2v-5.5c-.9,2.1-2.2,3.7-3.9,4.8-1.8,1.1-3.9,1.6-6.3,1.6-3.9,0-7-1.4-9.3-4.1-2.3-2.7-3.4-6.4-3.4-10.9s1.1-8.2,3.4-10.9,5.4-4.1,9.2-4.1,8.4,2.1,10.1,6.2v-16.2h3.3v39.2ZM293.5,134.7c-1.7,2.2-2.6,5.2-2.6,8.9s.9,6.8,2.6,9,4.1,3.3,7,3.3,5.4-1.1,7.1-3.2,2.6-5.2,2.6-9-.9-6.3-2.5-8.6-4.1-3.6-7.4-3.6-5,1-6.9,3.2Z"/>
  </g>
  <path class="st1" d="M343.1,157.7c-.9.2-1.7.5-2.7.5-1.5,0-2.5-.5-3-1.4s-.7-2.2-.7-3.8c-2.5,3.8-6,5.7-10.7,5.7s-5.2-.7-6.8-2.1-2.5-3.3-2.5-5.9c0-5.2,3.6-8,10.6-8.7.4,0,.9-.1,1.6-.1s1.1-.1,1.5-.1.7-.1,1.2-.1.9-.1,1.1-.1.5-.1.9-.1c.4-.1.6-.1.9-.2s.4-.1.6-.2.4-.2.6-.2c.6-.5,1-1.4,1-2.7,0-2.2-.6-3.8-1.8-4.8s-3.1-1.4-5.5-1.4-4.2.5-5.5,1.6c-1.2,1.1-2,2.8-2.2,5h-3.3c.1-3.1,1.2-5.4,3.2-7,2-1.6,4.8-2.5,8.2-2.5s5.8.7,7.6,2.1,2.8,3.4,2.8,6v17.1c0,.4.2.6.5.9s.7.4,1.4.4.9,0,1.4-.1l-.2,2.5ZM334.8,143.3c-.7.2-1.5.4-2.1.5s-1.7.2-3.2.5c-.4,0-.6.1-.9.1-1.2.1-2.1.4-3,.5-.7.1-1.6.5-2.6.9-1,.4-1.7,1-2.2,1.7s-.7,1.7-.7,2.8c0,1.6.6,3,1.7,3.9s2.7,1.5,4.8,1.5,4.9-.7,6.9-2.3c1.8-1.6,2.8-3.7,2.8-6.3v-4.7c-.4.2-.9.6-1.6.9Z"/>
</svg>