<?xml version="1.0" encoding="UTF-8"?>
<svg id="Layer_2" xmlns="http://www.w3.org/2000/svg" version="1.1" viewBox="0 0 576.4 62.2">
  <!-- Generator: Adobe Illustrator 29.5.0, SVG Export Plug-In . SVG Version: 2.1.0 Build 137)  -->
  <defs>
    <style>
      .st0 {
        fill: #fff;
      }
    </style>
  </defs>
  <g id="Layer_1-2">
    <g>
      <path class="st0" d="M26.1,40.9v-22.6c2.6,1.3,4.7,3.5,5.7,6.3h11.1c-.7-4.3-3.1-8.1-7-11.4-2.8-2.4-6.1-4.1-9.8-4.7V0h-8.6v8.4C7.5,10.3,0,19.2,0,29s1.9,11.6,6.4,15.9c3,3,6.9,5,11.1,5.8v11.5l4.3-5,4.3,5v-11.5c4-.8,7.8-2.7,10.7-5.5,3-2.8,5.1-6.5,6.1-10.4h-11.1c-1.1,2.6-3.1,4.8-5.7,6.1h0ZM10.6,29.5c0-5,2.7-9.5,6.9-11.3v22.8c-4.2-1.8-6.9-6.3-6.9-11.5Z"/>
      <g>
        <path class="st0" d="M47.5,32c0-12.6,9.1-22,21.5-22s21.5,9.2,21.5,20.8-9.3,21.4-21,21.4-21.9-8.1-21.9-20.2ZM80.1,31.1c0-6.4-4.6-12-11.1-12s-11,5.4-11,11.9,4.6,12.1,11.2,12.1,10.9-5.4,10.9-11.9h0Z"/>
        <path class="st0" d="M96.1,51.4V10.7h10.4v40.7h-10.4Z"/>
        <path class="st0" d="M139.2,51.4l-15.6-24.9.3,24.9h-9.9V10.7h9l15.8,25.7-.4-25.7h9.9v40.7h-9,0Z"/>
        <path class="st0" d="M171.6,22.6c-.4-2.9-1.6-4-3.7-4s-3.6,1.4-3.6,3.2,2.2,3.5,6.6,5.4c9,3.9,11.2,7.1,11.2,12.4,0,7.9-5.4,12.5-14.2,12.5s-14.7-4.6-14.7-13.4v-.9h10.3c0,3.3,1.7,5.5,4.3,5.5s3.9-1.7,3.9-3.9c0-3.2-4.5-4.7-8.2-6.2-6.6-2.7-9.7-6.2-9.7-11.5s6.7-12,14.2-12,5.1.6,7.2,1.7c4.3,2.2,6.4,5.5,6.5,10.9h-10.3Z"/>
        <path class="st0" d="M204.1,51.4V10.7h22.2v9.1h-12.3v6.9h11.8v9.1h-11.8v15.5h-10Z"/>
        <path class="st0" d="M230.2,32c0-12.6,9.1-22,21.4-22s21.5,9.2,21.5,20.8-9.4,21.4-21,21.4-21.9-8.1-21.9-20.2ZM262.8,31.1c0-6.4-4.6-12-11.1-12s-11.1,5.4-11.1,11.9,4.6,12.1,11.2,12.1,10.9-5.4,10.9-11.9h0Z"/>
        <path class="st0" d="M298.2,51.4l-9.4-13.1h-.1v13.1h-10V10.7h13.3c4.2,0,7.5.6,9.6,1.5,4.4,2,7.5,6.8,7.5,12.5s-3.9,11.7-10.1,12.8l11,13.9h-11.9ZM292.6,31.2c4.1,0,6.6-1.9,6.6-5.8s-2.6-5.5-6.5-5.5h-4v11.3h3.9Z"/>
        <path class="st0" d="M361.2,26.2c-1.8-4.4-5.6-7.1-9.8-7.1-6.5,0-10.9,5.6-10.9,11.9s4.5,12.1,10.9,12.1,7.6-2.3,9.8-6.9h10.9c-2.5,9.8-10.9,16-20.6,16s-11-2-15.2-6.1c-4.4-4.3-6.3-9.5-6.3-15.6,0-10.8,9.3-20.5,21-20.5s10.1,1.5,14.2,5c3.9,3.3,6.2,7,6.9,11.2h-10.9,0Z"/>
        <path class="st0" d="M375.7,32c0-12.6,9.1-22,21.5-22s21.5,9.2,21.5,20.8-9.4,21.4-21,21.4-21.9-8.1-21.9-20.2ZM408.2,31.1c0-6.4-4.6-12-11.1-12s-11,5.4-11,11.9,4.6,12.1,11.2,12.1,10.9-5.4,10.9-11.9h0Z"/>
        <path class="st0" d="M424.5,51.4V10.7h10.4v31.6h12v9.1h-22.4,0Z"/>
        <path class="st0" d="M451.3,51.4V10.7h10.4v31.6h12v9.1h-22.4,0Z"/>
        <path class="st0" d="M477.8,51.4V10.7h22.6v9.1h-12.6v6.3h12.3v9.1h-12.3v7h12.6v9.1h-22.6Z"/>
        <path class="st0" d="M548.4,30.6c0,10.9-8,21.7-21.7,21.7s-21.6-9.4-21.6-21.3,10-21,21.8-21,18,6.2,20.3,14.4h-11.7c-1.9-3.4-5.1-5.3-9-5.3-6.5,0-11.1,5.3-11.1,11.8s4.3,12.2,11.2,12.2,8.5-2.4,9.7-6.5h-12.2v-8.3h24.2v2.3h0Z"/>
        <path class="st0" d="M553.8,51.4V10.7h22.6v9.1h-12.7v6.3h12.3v9.1h-12.3v7h12.7v9.1h-22.6Z"/>
      </g>
    </g>
  </g>
</svg>