<?xml version="1.0" encoding="UTF-8"?>
<svg id="Layer_1" xmlns="http://www.w3.org/2000/svg" version="1.1" viewBox="0 0 179.8 102.5">
  <!-- Generator: Adobe Illustrator 29.5.1, SVG Export Plug-In . SVG Version: 2.1.0 Build 141)  -->
  <defs>
    <style>
      .st0 {
        fill: #fff;
      }
    </style>
  </defs>
  <g>
    <path class="st0" d="M117.7,25.1h7.2s.4,3.6.4,3.6c8.4-10.4,22.3-1.9,22.4,9.9,4.4-21.4,33.9-19.3,31.9,5-1.6,18.6-29.7,17.7-31.4-.5l-3,8.2c-4.5,7-13.6,8.1-19,1.7-2.7-.2-.4,1-.4,1.3v13h-8.1V25.1ZM169.5,32.5c-.8-.7-4.2-1.8-5.4-1.7-10.9.1-11.1,22.1,2.5,19.4,6.3-1.2,6.3-14.6,2.9-17.7ZM127.9,49c1.6,1.3,5.3,1.6,7.2,1,6.1-1.9,7.2-22.5-5.9-18.5-5,1.5-5.3,14.2-1.3,17.5Z"/>
    <rect class="st0" x="107" y="25.1" width="8.1" height="31.4"/>
    <path class="st0" d="M115.1,13.4l-.4,7.2c-1.1,1.6-5.7.6-7.7.8v-8.1s8.1,0,8.1,0Z"/>
    <g>
      <path class="st0" d="M71.5,35.8c0,19.8-16,35.8-35.8,35.8S0,55.5,0,35.8,16,0,35.8,0s35.8,16,35.8,35.8ZM21.8,29.5v-13.9c0-.2,1.1-.7.5-1.4-1-1.5-8.2-1.6-9.5.5v41.7h8.4c0-.1,1.2-1.3,1.2-1.3,0-.4-.7-.7-.7-.9v-16.6h17v18.8h9V14.7c-2.1-2.5-6-1-9-1.3v16.1h-17ZM58.6,13.4h-9v8.1h9v-8.1ZM58.5,25.1h-9v31.4h9v-31.4Z"/>
      <path class="st0" d="M97.6,14.3c8.3,1.8,10.3,17.4,4.6,23-4.9,4.8-14,3.9-20.3,3.9v15.2h-8.1V14.3c6.8,1,17.5-1.4,23.8,0ZM81.9,34c6.5.3,18,1.2,16.1-8.5-.2-1.2-2.5-4.1-3.1-4.1h-13v12.6Z"/>
    </g>
  </g>
  <g>
    <path class="st0" d="M4.6,74.2h15.9v4.2h-11.4v9.1h8.4v4.1h-8.4v10.6h-4.6v-28.1Z"/>
    <path class="st0" d="M21.6,97.8v-11.8c0-3,1.7-4.2,4.3-4.2h7.5c3.1,0,4.3,1.7,4.3,4.8v11.1c0,2.8-1.3,4.6-4.5,4.6h-7.2c-2.4,0-4.4-1.3-4.4-4.5ZM33.4,98.3v-12.4h-7.4v12.4h7.4Z"/>
    <path class="st0" d="M57.4,102.3h-4.2l-.2-1.6c-1.5.7-4.2,1.7-7,1.7s-4.3-1.4-4.3-4.2v-16.5h4.4v16.4h6.9v-16.4h4.5v20.5Z"/>
    <path class="st0" d="M61.6,81.8h4.2l.2,1.6c1.5-.7,4.2-1.8,7-1.8s4.3,1.4,4.3,4.4v16.3h-4.5v-16.4h-6.9v16.4h-4.4v-20.5Z"/>
    <path class="st0" d="M81.3,98.1v-12.1c0-2.7,1.4-4.4,4.8-4.4s6,1,7,1.7v-10h4.4v29h-4.2l-.2-1.5c-.3.3-3.5,1.7-7,1.7s-4.8-1.7-4.8-4.3ZM93.2,98.3v-12.4h-7.4v12.4h7.4Z"/>
    <path class="st0" d="M101.7,98.1v-12.1c0-2.7,1.4-4.4,4.8-4.4s6,1,7,1.7l.2-1.5h4.2v20.5h-4.2l-.2-1.5c-.3.3-3.5,1.7-7,1.7s-4.8-1.7-4.8-4.3ZM113.5,98.3v-12.4h-7.4v12.4h7.4Z"/>
    <path class="st0" d="M122.2,97.8v-20.7h4.4v4.7h5.3l-.4,4.1h-4.9v12.4h5.1v4h-5.2c-3.2,0-4.2-1.6-4.2-4.5Z"/>
    <path class="st0" d="M135.3,75.1h4.5v4.1h-4.5v-4.1ZM135.3,81.8h4.5v20.5h-4.5v-20.5Z"/>
    <path class="st0" d="M143.8,97.8v-11.8c0-3,1.7-4.2,4.3-4.2h7.5c3.1,0,4.3,1.7,4.3,4.8v11.1c0,2.8-1.3,4.6-4.5,4.6h-7.2c-2.4,0-4.4-1.3-4.4-4.5ZM155.6,98.3v-12.4h-7.4v12.4h7.4Z"/>
    <path class="st0" d="M164,81.8h4.2l.2,1.6c1.5-.7,4.2-1.8,7-1.8s4.3,1.4,4.3,4.4v16.3h-4.5v-16.4h-6.9v16.4h-4.4v-20.5Z"/>
  </g>
</svg>