<?xml version="1.0" encoding="UTF-8"?>
<svg id="Layer_1" data-name="Layer 1" xmlns="http://www.w3.org/2000/svg" xmlns:xlink="http://www.w3.org/1999/xlink" viewBox="0 0 1120 400">
  <defs>
    <style>
      .cls-1 {
        fill: #227665;
      }

      .cls-2 {
        fill: #2a7fa7;
      }

      .cls-3 {
        fill: #cbdce9;
      }

      .cls-4 {
        fill: #12476a;
      }

      .cls-5 {
        fill: #c33052;
      }

      .cls-6 {
        fill: url(#linear-gradient-5);
      }

      .cls-7 {
        fill: url(#linear-gradient-6);
      }

      .cls-8 {
        fill: url(#linear-gradient-4);
      }

      .cls-9 {
        fill: url(#linear-gradient-3);
      }

      .cls-10 {
        fill: url(#linear-gradient-2);
      }

      .cls-11 {
        fill: #f4a7bc;
      }

      .cls-12 {
        fill: #e97f98;
      }

      .cls-13 {
        fill: #c2cc3b;
      }

      .cls-14 {
        fill: url(#linear-gradient);
      }

      .cls-15 {
        fill: #9bc972;
      }

      .cls-16 {
        fill: #cfdd8e;
      }

      .cls-17 {
        fill: #d9cc81;
      }

      .cls-18 {
        fill: #fefffe;
      }

      .cls-19 {
        fill: #32869f;
      }

      .cls-20 {
        fill: #4c9563;
      }

      .cls-21 {
        fill: #36898c;
      }

      .cls-22 {
        fill: #33825b;
      }

      .cls-23 {
        fill: #f1b75e;
      }

      .cls-24 {
        fill: #5da46f;
      }

      .cls-25 {
        fill: #8bb232;
      }

      .cls-26 {
        fill: #195c8a;
      }

      .cls-27 {
        fill: #66aec8;
      }

      .cls-28 {
        fill: #f56e13;
      }

      .cls-29 {
        fill: #e15875;
      }

      .cls-30 {
        fill: #18634f;
      }

      .cls-31 {
        fill: #4c9aad;
      }

      .cls-32 {
        fill: #d2d6e2;
      }

      .cls-33 {
        fill: #d54262;
      }

      .cls-34 {
        fill: #a0b7d0;
      }

      .cls-35 {
        fill: #f8a756;
      }

      .cls-36 {
        fill: #286f9c;
      }

      .cls-37 {
        fill: #186a62;
      }

      .cls-38 {
        fill: #7fbe94;
      }

      .cls-39 {
        fill: #f9b733;
      }

      .cls-40 {
        fill: #f1c95f;
      }

      .cls-41 {
        fill: #a5d2bb;
      }

      .cls-42 {
        fill: #899fc1;
      }

      .cls-43 {
        fill: #5ca150;
      }

      .cls-44 {
        fill: #74b673;
      }

      .cls-45 {
        fill: #a1cfe0;
      }

      .cls-46 {
        fill: #f9942f;
      }

      .cls-47 {
        fill: #302719;
      }

      .cls-48 {
        fill: #768eb9;
      }

      .cls-49 {
        fill: #4997b9;
      }
    </style>
    <linearGradient id="linear-gradient" x1="152.82" y1="305.34" x2="156.63" y2="322.87" gradientUnits="userSpaceOnUse">
      <stop offset="0" stop-color="#63acab"/>
      <stop offset="1" stop-color="#72b6c8"/>
    </linearGradient>
    <linearGradient id="linear-gradient-2" x1="266.02" y1="97.19" x2="265.46" y2="157.92" gradientUnits="userSpaceOnUse">
      <stop offset="0" stop-color="#eaadbb"/>
      <stop offset="1" stop-color="#f18da1"/>
    </linearGradient>
    <linearGradient id="linear-gradient-3" x1="107.7" y1="82.22" x2="205.56" y2="184.73" gradientUnits="userSpaceOnUse">
      <stop offset="0" stop-color="#f46411"/>
      <stop offset=".72" stop-color="#f8991b"/>
      <stop offset="1" stop-color="#f4cc49"/>
    </linearGradient>
    <linearGradient id="linear-gradient-4" x1="240.89" y1="173.74" x2="240.18" y2="269.44" gradientUnits="userSpaceOnUse">
      <stop offset="0" stop-color="#e3e08a"/>
      <stop offset="1" stop-color="#6aad6f"/>
    </linearGradient>
    <linearGradient id="linear-gradient-5" x1="83.66" y1="186.55" x2="105.55" y2="264.52" gradientUnits="userSpaceOnUse">
      <stop offset="0" stop-color="#458f42"/>
      <stop offset="1" stop-color="#287d57"/>
    </linearGradient>
    <linearGradient id="linear-gradient-6" x1="125.4" y1="189.51" x2="149.95" y2="221.71" gradientUnits="userSpaceOnUse">
      <stop offset="0" stop-color="#dedb6c"/>
      <stop offset="1" stop-color="#c0d77f"/>
    </linearGradient>
  </defs>
  <g>
    <g id="Generative_Object" data-name="Generative Object">
      <path class="cls-14" d="M172.31,297.18c-.05,4.22.73,21.39-.46,23.93-.58-.81-5.94-1.55-6.21-1.38-.47.3.11,1.94-.92,2.3-.37.13-1.42-.86-2.3-.46-2.2,1.01-2.2,4.43-7.13,5.06-.36.05-2.55-.78-3.91-.46-2.4.56-2.7,4.97-3.45,5.75-.22.23-4.85,2.12-5.52,2.99-2.66-8.88-11.67-18.98-8.74-28.07l.69,3.22c2.91-1.24,7.34-2.18,10.12-4.14.57-.4-.11-1.89.46-2.3.18-.13,3.53-.15,4.37-.92.4,2.42,1.67,4.19,4.37,3.68,2.99-.57,2.38-4.43,2.53-6.44,6.31.97,9.85-4.14,16.1-2.76Z"/>
      <path class="cls-11" d="M288.03,314.67c3.61-.84,5.54,1.96,5.75,5.29.37,5.87-15.43,35.83-19.79,40.49-4.98,5.32-12.93,6.07-13.8-2.3-.31-2.96,2.85-18.67,4.14-21.63,3.16-7.26,9.69-8.92,14.95-13.11,2.09-1.67,6.69-8.26,8.74-8.74Z"/>
      <path class="cls-38" d="M149.3,258.99c.31,12.35-1.84,32.61,0,43.71-.84.77-4.19.79-4.37.92-.57.41.11,1.9-.46,2.3-2.79,1.96-7.21,2.9-10.12,4.14l-.69-3.22c1.2-3.73,4.62-6.63,5.52-10.35,4.63-19.08-15.78-28.87-14.26-42.56l4.37,5.06h20.02Z"/>
      <path class="cls-39" d="M77.75,54.23c.78-.27,15.77-.24,16.56,0,3.12.96,2.9,18.09.46,19.33-2.02,1.02-16.99,1.07-18.18-1.15-1.03-1.93-1.08-17.42,1.15-18.18Z"/>
      <path class="cls-39" d="M32.66,67.57c.75-.22,14.89-.22,15.64,0,3.77,1.12,3.49,18.84.46,19.79-1.83.57-16.85.22-17.72-1.15-1.13-1.8-1.24-17.79,1.61-18.64Z"/>
      <path class="cls-39" d="M19.31,109.45c.92-.25,14.75.17,15.64.46,2.48.81,2.2,17.77.46,18.87s-17.75,1.22-18.64-1.61c-.23-.75-.23-14.9,0-15.64.12-.38,2.1-1.95,2.53-2.07Z"/>
      <path class="cls-40" d="M54.74,96.56c1.73-.57,13.82-.39,14.49,1.61.25.74.24,14.9,0,15.64-.83,2.55-15.45,2.15-16.1.46s-.4-17.06,1.61-17.72Z"/>
      <path class="cls-2" d="M167.7,327.55c-.18,1.83.3,4.93,1.38,6.44-3.28-.94-4.29,2.38-6.21,3.68-.31.21-2.89.09-3.22.46-1,1.11.27,4.84-.92,5.52-2.28,1.31-7.14-3.83-9.43,4.14-2.39.86-.28-2.83-4.6,0-.69-2.69-.68-5.59-1.38-8.28,6.69-.08,3.5-4.87,3.68-5.29.15-.35,5.27-4.22,5.98-4.83,2.49,2.13,2.67-.36,3.45-.46,2.55-.33,5.33.27,8.28-.46.18-.05,1.93-2.55,2.99-.92Z"/>
      <path class="cls-40" d="M55.66,27.54c1.76-.47,13.06.3,13.57,1.61-.54,2.99,1.37,13.98-1.61,14.95-.59.19-11.83.19-12.42,0-2.24-.73-2.93-15.66.46-16.56Z"/>
      <path class="cls-36" d="M149.3,347.8c-.06.21-.55,4.17-.46,4.37.38.83,2.16.58,2.76,1.84.69,1.45-2.75,3.17,2.76,5.06l1.38,6.9c.65,1.54,5.81,1.13.92,4.6l5.52,3.22c-3.12,4.41-4.4-.58-7.82,1.15-3.13-9.1-7.29-17.91-9.66-27.15,4.33-2.83,2.21.86,4.6,0Z"/>
      <path class="cls-27" d="M155.28,326.63c-.96.66-1.52,2.09-2.3,2.76-.71.61-5.83,4.48-5.98,4.83-.18.42,3.01,5.21-3.68,5.29-.39-1.5-.51-3.22-.92-4.6.67-.87,5.31-2.76,5.52-2.99.75-.78,1.05-5.19,3.45-5.75,1.36-.32,3.55.51,3.91.46Z"/>
      <path class="cls-3" d="M188.41,59.75c1.42,5.33-2.31,4.55-2.76,5.29-1.17,1.91.42,6.36-5.52,6.21-.92-6.78,2.84-9.06,8.28-11.5Z"/>
      <path class="cls-24" d="M147.92,234.14c-1.09.94-2.83-1.35-2.99-1.38-1.65-.28-3.78.6-4.6.46-.53-.09-.73-1.36-.92-1.38-.95-.12-2.26,1.54-4.37-.46-1.2-2.45-.31-3.41-2.3-4.14,1.58-1.84-.04-2.71,0-3.45s1.39-2.17,1.38-2.3c-.04-.49-5.97-5.9-6.9-6.9-.81-.88-3.69-3.58-3.22-4.83,3.86,3.47,22.52,21.11,23.93,24.39Z"/>
      <path class="cls-20" d="M147.92,234.14c.91,2.12.74,3.38.92,5.52-.62-2.88-1.89-1.31-3.91-2.3-.69-.34-.75-1.61-1.38-1.84-.56-.2-5.18.3-6.44-.46-.5-.3-1.75-3.02-2.07-3.68,2.11,2,3.43.34,4.37.46.19.02.39,1.29.92,1.38.82.14,2.95-.74,4.6-.46.16.03,1.9,2.32,2.99,1.38Z"/>
      <path class="cls-31" d="M171.85,321.11c-.9,1.92-3.73,2.25-4.14,6.44-1.06-1.63-2.81.87-2.99.92-2.96.73-5.73.13-8.28.46-.78.1-.96,2.59-3.45.46.78-.67,1.34-2.1,2.3-2.76,4.93-.63,4.93-4.05,7.13-5.06.88-.4,1.93.59,2.3.46,1.03-.36.45-2,.92-2.3.27-.17,5.63.57,6.21,1.38Z"/>
      <g>
        <g>
          <path class="cls-34" d="M356.82,151.78c-3.85-.82-6.15,6.85-9.43,7.82-3.97,1.17-4.01-1.63-4.6-1.84-1.13-.4-3.83.54-4.14.46-1.1-.26-4.14-4.71-4.83,0-2.21-1.71-3.56-4.47-5.98-5.98,3.61-1.14-2.32-6.99-3.45-7.36s-5.77,1.64-9.2,0c-.51-.24-1.46-2.71-3.22-3.22-.08-.02-1.2.89-1.38.92-.29.05-.18-1.02-.46-.92-.66.23-.7,1.56-1.38,1.84-2.33.95-2.87-1.56-4.37,1.38-4.35-4.4-11.04-17.03-17.49-17.49.78-4.66-5-3.93-8.28-4.14.93-2.18-2.65-3.68-2.76-3.91-.61-1.29.08-4.5-1.38-6.21.2-.05,3.59-1.43,3.68-1.61.74-1.38-.24-9.03-.92-10.58-.33-.76-1.13.45-1.38,0-.75-1.34-.23-2.77-1.61-4.37-1.72-2.01-5.77-.79-6.21-3.68,4.58-3.67,2.41.64,4.83.46.25-.02,3.72-2.66,3.45-3.68,4.95,4.59,12.79,8.31,19.56,5.52,2.29-.94,4.49-4.91,6.9-5.98,7.43-3.3,23.26,5.72,27.84,11.73,6.36,8.37,4.12,22.62,9.66,31.75,4.52,7.45,17.74,8.08,16.56,19.1Z"/>
          <path class="cls-29" d="M298.38,156.38c6.91,9.67,15.78,12.07,24.16,2.3,3.19,3.06,5.19,7.17,8.51,10.12-.1,1.49-2.4,6.98-2.3,7.59.16.99,2.7,2.16,3.68,3.91-1.94,1.3-4.73,5.96-5.75,6.9-.5.46-1.33-.51-1.38-.46-1.26,1.14-2.46,3.99-2.76,4.14-.45.23-1.03-.97-2.07-.23-.46.33.25,6.42-2.3,7.59-2.3,1.39-4.47,2.96-6.9,4.14-1.65.8-3.64,1.41-5.29,2.3-.37-.14.62-2.1-.69-3.22,1.19-2.17.65-3.83-.23-5.98l-3.91,2.53c-.39,1.84,1.46,1.39,1.84,1.84.03.03-.66.51-.46.69-1.23,5.5-2.22,8.2-8.51,8.74-.35.03-1.73-1.39-1.84-1.38-2.01.14-4.22.95-6.67.92,2.18-8.66-.65-4.16-1.84-5.75-.41-.55.93-3.76.46-5.06-.19-.52-1.79-.95-2.3-1.84-.23-.41.23-2.23,0-2.76-.48-1.11-2.77-.44-3.45-1.15-.15-.15-1.31-3.6-1.61-3.91-1-1.04-1.97-.59-2.07-.69-.44-.44-1.42-3.13-2.3-3.22s-1.51,1.34-1.84,1.38c-.36.04-1.15-2.2-2.07-.69l.92,5.29c-2.66-8.22-7.39-10.98-10.58-17.72-5.33-11.25-8.3-19.94-15.64-30.6l2.53-2.3c-1.52,4.58,3.87,2.51,4.6,2.76.51.18,1.85,2.18,2.3,2.3,2.23.6,1.61-1.31,5.06.92.04.03.56-.79.92-.46,2.02,1.83.69,9.63,1.15,10.81s5.23,1.75,6.21,2.53c.41.32.57,2.61.92,2.76.15.06,2.46-.94,3.22-.46.56.35-.09,1.45.46,1.84.34.24,3.33-.59,4.14-.46.22.04.71.89.92.92.76.1,6.14.56,6.44.46.84-.28,1.61-2.57,3.22-2.3.2.03,2.09,2.25,3.68,1.84.99-.25,1.43-2.7,2.3-3.22.45-.27,1.34.66,2.3,0,1.43-.99,2.84-3.29,4.83-3.68Z"/>
          <path class="cls-10" d="M240.41,89.2c.07.02,1.32.42,1.38.46,1.19.93,1.2,5.23,3.91,5.98,4.92,1.37,12.93-5.75,19.33-.46,1.37,1.13,3.65,9.04,4.83,11.5-4.16,1.39.7,5.87,1.38,7.13.07.12-.31,2.41,0,2.76.51.57,1.9-.11,2.3.46.19.26-.12,5.92.46,6.44,1.02.92,3.68-.29,4.6-.23,3.29.21,9.06-.52,8.28,4.14-1.34-.09-3.49.22-4.14,1.61-3.5,7.46,8.43,15.6,12.42,20.71,1.18,1.51,1.8,4.68,3.22,6.67-1.99.39-3.4,2.7-4.83,3.68-.96.66-1.85-.27-2.3,0-.87.52-1.31,2.97-2.3,3.22-1.59.41-3.48-1.81-3.68-1.84-1.61-.27-2.38,2.03-3.22,2.3-.31.1-5.68-.36-6.44-.46-.21-.03-.7-.88-.92-.92-.81-.13-3.8.7-4.14.46-.55-.39.1-1.49-.46-1.84-.76-.48-3.07.52-3.22.46-.35-.15-.51-2.44-.92-2.76-.98-.78-5.74-1.31-6.21-2.53s.87-8.99-1.15-10.81c-.36-.33-.88.49-.92.46-3.45-2.23-2.83-.32-5.06-.92-.45-.12-1.79-2.12-2.3-2.3-.73-.25-6.12,1.82-4.6-2.76l-2.53,2.3c-1.63-2.37-6.18-7.31-8.74-8.28.71-1.25.82-5.46.92-5.75.05-.14,2.14-1.14,2.3-1.84.12-.52-.8-4.75-.46-6.44.36-1.78,2.69-5.52,2.76-7.82.12-3.75-2.41-4.53-2.76-5.75-.5-1.75-.5-6.87-.92-8.05-.25-.72-2.1-1.56-2.3-2.07-.86-2.15-1.51-5.16.69-6.44,2.05.7,3.94-.85,5.75-.46Z"/>
          <path class="cls-34" d="M227.06,69.88c-.53,1.14,1,5.03.92,5.29-.2.67-2.15.98-2.76,1.84-.73,1.03-1.5,3.79-2.53,4.37-2.07,1.17-.72-2.05-2.76-1.84-3.98,4.18-5.01,4-.69,8.74-1.24.5-1.83-.31-2.53,0-.42.19-2.71,6.25-4.14-.92-5.51,4.62-4.54-.57-6.44-.46-.07,3.58-2.19,4.41-3.45,7.36-2.04-.63-3.27-1.51-5.06-2.3-.11-.05-.21-.23-.92-.46-1.62-1.84-2.16-.44-2.3-.46-.32-.06-.53.55-2.07,0-3-1.07-11.76-16.58-12.19-19.79,5.95.14,4.35-4.3,5.52-6.21.45-.74,4.18.04,2.76-5.29,5.36-2.41,13.85-2.5,20.02-.46,7.15,2.37,8.96,10.82,18.64,10.58Z"/>
          <path class="cls-48" d="M276.3,89.66c.27,1.02-3.2,3.66-3.45,3.68-2.42.18-.25-4.13-4.83-.46-1.19.95-1.45,2.3-1.61,2.3-.4.01-6.03-4.51-6.44-4.6-1.03-.22-7.13,3.13-7.59-1.15-.04-.4,1.36-.78,1.38-.92.17-1.42-4.98-.53-5.75-.23s.28,1.13.23,1.15c-2.53,1.17-3.17-2.13-6.44.23-.06-.04-1.31-.44-1.38-.46l-1.38-1.38.92-.23c-2.28-.54-.74-1.94-.92-2.3-.38-.76-2.63-2.46-2.76-2.76-.72-1.71,2.19-6.11-2.3-6.21.4-2.16-.07-5.51,0-7.82,3.76-1.52,8.33-6.71,13.11-7.82,21.34-4.98,18.2,18.77,29.22,28.99Z"/>
          <path class="cls-3" d="M229.36,86.9c.11,0,.81,1.21,1.61,1.38.07.01.39-.67,1.38-.46.45.1,0,1.28.46,1.38.14.03,2.09-1.81,2.3-1.84.66-.09,2.77,1.38,3.91.46l1.38,1.38c-1.81-.39-3.7,1.16-5.75.46-2.2,1.28-1.55,4.3-.69,6.44-7.96-1.25-18.97,1.04-26.46,0-.98-.14-3.52-1.44-4.83-1.84,1.26-2.95,3.38-3.78,3.45-7.36,1.91-.11.93,5.08,6.44.46,1.44,7.17,3.72,1.11,4.14.92.7-.31,1.29.5,2.53,0,.81-.33,3.2-2.15,3.91-1.84.48.21,1.02,3.43,2.3,3.22.7-.11.81-2.97,3.91-2.76Z"/>
          <path class="cls-33" d="M285.5,208.84c-10.51-.12-4.42-1.6-8.51-8.74-.44.57-2.86,3.14-2.99,3.45-.39.9,1.02,2.67-.46,2.53-2.62-4.69-2.4-10.26-4.14-15.64l-.92-5.29c.92-1.51,1.71.74,2.07.69.33-.04.96-1.47,1.84-1.38s1.86,2.79,2.3,3.22c.11.1,1.07-.35,2.07.69.3.31,1.46,3.76,1.61,3.91.68.71,2.97.04,3.45,1.15.23.53-.23,2.35,0,2.76.51.89,2.11,1.32,2.3,1.84.47,1.3-.87,4.51-.46,5.06,1.19,1.59,4.02-2.91,1.84,5.75Z"/>
          <path class="cls-34" d="M233.96,68.49c-.07,2.32.4,5.66,0,7.82-1.14,6.2-5.83,4.87-4.6,10.58-3.1-.21-3.21,2.65-3.91,2.76-1.28.21-1.82-3.02-2.3-3.22-.71-.31-3.1,1.51-3.91,1.84-4.32-4.74-3.29-4.57.69-8.74,2.04-.21.69,3.01,2.76,1.84,1.03-.58,1.8-3.34,2.53-4.37.61-.86,2.56-1.17,2.76-1.84.08-.26-1.45-4.15-.92-5.29,1.41-.03,5.6-.85,6.9-1.38Z"/>
          <path class="cls-42" d="M327.83,152.24c-8.86-5.53-14.38,1.82-23.47-7.36,1.5-2.94,2.04-.43,4.37-1.38.68-.28.72-1.61,1.38-1.84.28-.1.17.97.46.92.18-.03,1.3-.94,1.38-.92,1.76.51,2.71,2.98,3.22,3.22,3.43,1.64,8.03-.39,9.2,0s7.06,6.23,3.45,7.36Z"/>
          <path class="cls-5" d="M285.5,208.84c2.45.03,4.66-.79,6.67-.92.11,0,1.49,1.41,1.84,1.38,6.29-.55,7.28-3.25,8.51-8.74.83.74,2.65.83,2.76.92,1.31,1.12.32,3.08.69,3.22,1.65-.89,3.64-1.5,5.29-2.3-7.02,5.09-24.18,11.78-32.44,8.74-2.29-.84-4.12-2.96-5.29-5.06,1.48.14.07-1.63.46-2.53.13-.31,2.55-2.88,2.99-3.45,4.09,7.14-2,8.62,8.51,8.74Z"/>
          <path class="cls-12" d="M333.81,186.29l-1.38.23c.26-3.08,1.71-3.18,0-6.21-.98-1.75-3.52-2.92-3.68-3.91-.1-.62,2.2-6.1,2.3-7.59,8.42,7.47,14.73,4.84,2.76,17.49Z"/>
          <path class="cls-33" d="M333.81,186.29c-4.79,5.06-9.74,8.4-15.64,11.96,2.55-1.17,1.84-7.26,2.3-7.59,1.05-.74,1.62.46,2.07.23.31-.16,1.5-3,2.76-4.14.05-.05.88.92,1.38.46,1.03-.95,3.81-5.6,5.75-6.9,1.71,3.04.26,3.14,0,6.21l1.38-.23Z"/>
          <path class="cls-42" d="M356.82,151.78c-.95,8.83-13.18,10.14-20.02,8.74-1.25-.25-2.21-1.69-2.99-2.3.69-4.71,3.73-.26,4.83,0,.32.08,3.01-.86,4.14-.46.6.21.64,3.01,4.6,1.84,3.28-.97,5.59-8.64,9.43-7.82Z"/>
          <path class="cls-35" d="M222.46,115.89c1.55-2.15,4.19-.06,6.44,0,4.56.12,3.64-2.66,4.37-2.76,1.53,0,1.37,5.77,1.15,6.21-.41.83-1.41-.91-2.53-.69-.62.12-1.62,1.45-2.3,1.38-.76-.08-4.32-4.01-4.6-4.14-.46-.21-1.86.16-2.53,0Z"/>
          <path class="cls-35" d="M234.42,109.91c.09-.07.2-.57.92-.92,2.19-1.06,3.73-1.08,3.68,2.07,0,.21-1.35,1.13-1.38,1.38-.38,2.69.24,5.14-2.53,7.13-.64-1.82.08-3.94-.23-5.75-.35-2.07-2.64.42-.46-3.91Z"/>
          <path class="cls-18" d="M196.69,91.5c-.52-.17-1.63-.18-2.3-.46.14.02.68-1.38,2.3.46Z"/>
          <path class="cls-18" d="M197.61,91.96c-.85.23-.67-.18-.92-.46.71.23.81.41.92.46Z"/>
          <path class="cls-32" d="M268.01,92.88c.44,2.89,4.49,1.67,6.21,3.68,1.38,1.6.87,3.04,1.61,4.37.25.45,1.05-.76,1.38,0,.68,1.55,1.66,9.21.92,10.58-.09.18-3.49,1.56-3.68,1.61-.76.18-.94,1.02-1.84-.23.71-3-2.12-4.89-2.76-6.21-1.18-2.47-3.47-10.37-4.83-11.5-6.4-5.29-14.4,1.83-19.33.46-2.71-.76-2.72-5.05-3.91-5.98,3.27-2.36,3.91.94,6.44-.23.05-.02-1.02-.84-.23-1.15s5.92-1.19,5.75.23c-.02.14-1.42.52-1.38.92.46,4.28,6.56.93,7.59,1.15.41.09,6.05,4.61,6.44,4.6.16,0,.42-1.35,1.61-2.3Z"/>
          <path class="cls-11" d="M269.85,106.69c.64,1.33,3.47,3.21,2.76,6.21.9,1.25,1.08.41,1.84.23,1.46,1.71.77,4.92,1.38,6.21.11.23,3.7,1.73,2.76,3.91-.92-.06-3.58,1.15-4.6.23-.58-.52-.27-6.18-.46-6.44-.4-.57-1.79.11-2.3-.46-.31-.35.07-2.64,0-2.76-.68-1.26-5.54-5.74-1.38-7.13Z"/>
          <path class="cls-29" d="M305.29,201.47c-.11-.09-1.93-.18-2.76-.92-.2-.18.49-.66.46-.69-.38-.45-2.23,0-1.84-1.84l3.91-2.53c.88,2.16,1.42,3.82.23,5.98Z"/>
          <path class="cls-48" d="M239.03,87.82c-1.14.92-3.25-.56-3.91-.46-.21.03-2.16,1.87-2.3,1.84-.45-.11,0-1.28-.46-1.38-.99-.21-1.31.48-1.38.46-.8-.17-1.5-1.37-1.61-1.38-1.23-5.72,3.46-4.38,4.6-10.58,4.49.1,1.58,4.5,2.3,6.21.13.3,2.38,2,2.76,2.76.18.36-1.36,1.76.92,2.3l-.92.23Z"/>
        </g>
        <g>
          <path class="cls-9" d="M164.94,108.99c1.79-.2,7.64.75,9.43.46,3.38-.56,6.73-3.47,10.81-4.14-.52,3.1-5.66,6.03-5.06,8.97.26,1.29,2.87,2.59,3.68,3.68.3.4-.49.88-.46.92,1.07,1.31,7.21,6.42,8.51,6.67,2.24.44,5.05-1.06,5.98-.92s3.3,1.5,4.6,1.84c2.88.76,3.84-1.38,6.21,2.53.23.39-.98,1.73,2.53,3.91,3.15,1.95,10.31,1.73,12.42,4.14,2.51,2.86,7.75,19.29,10.81,24.39l-.46.92c-.22-.21-1.58-1.36-1.84-.69,2.53,4.38-.02,3.15-.23,3.45-1.41,2.05-4.59,7.25-6.9,8.28-3.15,1.41-5.12-1.44-8.97,2.53-.27.28.9,1.88-2.07,2.99-5.25,1.96-11.75-1.53-16.1.92-.99.56-3.05,3.62-4.14,3.68-1.31.08-1.59-1.34-2.3-1.38-.3-.02-.63.9-.69.92-2.75.78-3.48,1.06-4.14,4.14-.9-.24-3.73-.84-3.91-.92-2.29-1.02-1.15-3.86-6.67.46-8.78-9.05-43.41-46.31-51.31-50.61-10.36-5.65-24.2.18-32.21-4.6-7.5-4.48-15.03-15.6-15.87-24.39,2.97.07,1.44-6.76,4.37-7.36,2.1-.43,10.34,4.6,12.42,5.06.86.19,7.39-.26,7.82,0,.3.18,2.67,5.9,2.99,6.21,2,1.94,14.37.36,16.79,2.07.82.58,2.05,5.3,2.3,5.52.92.81,5.42.62,6.44.92.41.12,2.07,1.61,3.22,1.84,5.35,1.05,3.66-4.73,4.14-5.06s4.62.36,5.52,0c1.19-.47,1.04-2.88,1.15-2.99,5.54-5.46,9.81-.86,15.41-2.07.92-.2,2.3-1.92,5.75-2.3Z"/>
          <path class="cls-8" d="M233.96,162.36c2.45,2.28,4.3,8.63,6.44,10.81,1.12,1.14,2.1-.81,2.76,1.61-.8.11-.89-.36-2.76,0-.4.08-.62-.69-1.15-.46-.79.74-.45,6.74-.23,8.05.08.48,1.27,4.8,1.38,5.06.15.37,3.63,5.55,3.91,5.75,1.17.85,1.86-.05,2.07,0,2.15.52,3.05,1.21,5.06,0,1.12,1.29,1.73,2.12,3.22,1.38,1.28,1.71,4.43,3.81,5.98,5.75,11.7,14.65,14.25,26.46,35.66,23.24,1.34-.2,5.92-2.37,6.9-2.3,5.29.35-.84,14.85-2.53,17.72-3.24,5.48-8.32,9.34-12.88,13.57-5.53-1.03-2.74-4.04-.46-7.13-1.97.53-1.93-1.17-2.99-1.15-1.91.04-4.94,2.81-6.44,3.22-2.7.74-5.31-.58-6.44-.46-1.22.13-1.84,2.22-2.76,2.76-.45.26-2.53.33-2.76.46-1.37.82-1.85,2.86-3.22,3.68-.12.07-1.35-1.13-2.76,0-.55.44.76,1.05-.92,2.3-.21.15-3.08-.17-3.45,1.84-2.31.84-2.37,2.01-5.52,2.76-6.84,1.62-2.18-1.17-6.9-4.14,15.46-18.63-20.7-26.71-17.02-5.75.71,4.05,6.26,6.9,6.44,7.36.41,1.03-.05,9.24,0,11.27-4.06-1.16-7.34,3.27-11.04,4.14.57-.38,2.34-1.64,1.84-2.53-2.55,1.01-2.66-1.52-3.45-1.61-1.67-.2-1.9,3.84-2.76,4.14-.38.13-2.6-1.56-4.14-.92-2.31.95-1.94,2.65-2.07,2.76-2.54-.79-4.73-1.68-7.36-.92-.35-15.43.85-31.65,0-46.93,3.98.82,3.85-9.38,5.29-10.12,1.54-.79,3.5.52,3.68.46,1.7-.55,4.42-3.13,7.13-2.99-1.57-2.92-3.57-.63-3.91-.69-.26-.04-1.17-1.38-1.38-1.38-8.5-.09-4.65,5.62-11.27,6.9-1.5-9.21-19.85-25.61-27.15-33.13,5.52-4.32,4.38-1.48,6.67-.46.18.08,3.01.68,3.91.92,2.78.74,3.97,2.02,5.06-2.07.28-1.05,1.06-2.42-.92-2.07.06-.02.39-.94.69-.92.71.04.99,1.46,2.3,1.38,1.09-.06,3.15-3.12,4.14-3.68,4.35-2.45,10.86,1.04,16.1-.92,2.97-1.11,1.8-2.71,2.07-2.99,3.85-3.97,5.82-1.12,8.97-2.53,2.31-1.04,5.5-6.23,6.9-8.28.21-.3,2.76.92.23-3.45.26-.67,1.62.48,1.84.69Z"/>
          <path class="cls-26" d="M207.74,316.05c.06,4.39-2.57,22.07,2.53,23.01,3.47.63,4.46-2.29,4.83-5.06,3.24.91,5.3-4.63,7.59-4.14,1.58.34-.62,1.78,4.37,2.3.06,0,.41.97.69.92,1.68-.29,2.16-1.79,2.3-1.84,5.81-1.99,11.14-4.46,16.1-8.28l2.07,1.84c-.4.52-1.72,2.19-1.84,2.3-3.06,2.94-7.9,3.81-11.27,6.44-11.1,8.65-1.35,12.11-6.21,19.56-3.08,4.71-10.2,6.07-13.34,10.12-1.6,2.06-3.04,6.59-5.06,9.2-9.41,12.13-30.11,17.57-44.86,15.87-8.59-.99-8.88-6.37-11.27-13.34,3.42-1.73,4.71,3.26,7.82-1.15l-5.52-3.22c4.89-3.47-.27-3.06-.92-4.6l-1.38-6.9c-5.51-1.89-2.07-3.61-2.76-5.06-.6-1.26-2.38-1.01-2.76-1.84-.09-.2.4-4.16.46-4.37,2.29-7.97,7.15-2.83,9.43-4.14,1.19-.68-.08-4.41.92-5.52.33-.37,2.91-.25,3.22-.46,1.93-1.3,2.93-4.62,6.21-3.68,5.11,7.17,20.1,1.18,13.34-11.04-.13-2.74,5.61-3.58,7.36-3.68,2.95-.17,8.04.83,12.19.46.35-.03-.1.99.92.92.21-.01,3.55-1.68,3.68-1.84.69-.83-.57-2.89,1.15-2.76Z"/>
          <path class="cls-13" d="M81.2,130.61c-1.62-.06-.45.69,0,1.15,1.31,1.35,2.97,2.73,4.14,4.14.05.06-.51,1.33-.46,1.38.22.24,4.55,4.2,4.83,4.37.06.04.67-.86,1.38-.46,8.87,4.98,19.33,7.1,26.46,15.41.67.79-.27,1.94,0,2.3,1,1.33,7.1,4.75,2.76,5.75-1.42-.96-5.96-2.98-7.59-3.22-9.66-1.42-35.89,1.66-42.33-.46-.47-.16-2.56-3.49-4.6-4.14-15.34-4.89-16.82,18.08-2.99,17.02l-.46,8.28c-5.04,1.15-3.75-.28-5.29-.46-.28-.03-5.29.63-5.52.46-.18-.13-.23-2.03-1.84-3.22-.66-.49-6.52-3.11-6.9-3.22-2.42-.71-6.04.87-8.74-1.84-3.51.85-10.77,6.22-13.8,6.44-2.26.17-4.73-2.4-6.67,0-.11-2.76-.31-21.35.46-22.32l17.26-1.15c1.95-1.43-.51-14.96,1.15-17.72,1.76-2.92,16.43.34,19.56-1.61s-1.23-13.61,1.84-16.56c.95-.36,17.64.45,18.87.92s6.91,7.33,8.51,8.74Z"/>
          <path class="cls-46" d="M164.94,108.99c-3.45.38-4.83,2.1-5.75,2.3-5.6,1.21-9.88-3.39-15.41,2.07-.11.11.04,2.52-1.15,2.99-.9.36-5.04-.34-5.52,0s1.21,6.12-4.14,5.06c-1.15-.23-2.81-1.72-3.22-1.84-1.02-.3-5.52-.11-6.44-.92-.25-.22-1.48-4.94-2.3-5.52-2.43-1.71-14.8-.13-16.79-2.07-.33-.32-2.7-6.03-2.99-6.21-.43-.26-6.96.19-7.82,0-2.09-.46-10.32-5.49-12.42-5.06-2.93.6-1.4,7.43-4.37,7.36-2.91-30.16,14.69-31.79,39.8-31.29,4,.08,24.32,1.07,26.69,2.3,5.65,2.94-.35,12.03,2.53,17.72,3.57,7.05,15.03,6.98,19.33,13.11Z"/>
          <path class="cls-28" d="M222.46,115.89c.68.16,2.07-.21,2.53,0,.28.13,3.84,4.06,4.6,4.14.69.07,1.68-1.26,2.3-1.38,1.12-.22,2.12,1.52,2.53.69.22-.44.38-6.22-1.15-6.21-.73.1.19,2.88-4.37,2.76,1.86-1.99,3.3-4.33,5.52-5.98-2.18,4.33.11,1.84.46,3.91.31,1.81-.41,3.94.23,5.75,2.77-2,2.16-4.44,2.53-7.13.03-.25,1.38-1.17,1.38-1.38.04-3.15-1.49-3.13-3.68-2.07l1.84-2.76c.35,1.22,2.88,2,2.76,5.75-.07,2.3-2.4,6.05-2.76,7.82-.34,1.69.58,5.92.46,6.44-.16.7-2.25,1.7-2.3,1.84-.1.29-.21,4.5-.92,5.75-2.94-1.12-3.93,2.12-3.68,4.37.31,2.76,11.33,19.5,13.34,24.62-2.22,2.53,3.57,8.37-2.99,6.9-1.15-.26-5.87-6.95-6.67-8.28-3.07-5.1-8.3-21.52-10.81-24.39-2.12-2.41-9.27-2.19-12.42-4.14-3.51-2.18-2.3-3.52-2.53-3.91-2.37-3.91-3.34-1.77-6.21-2.53-1.3-.34-3.69-1.71-4.6-1.84s-3.75,1.36-5.98.92c-1.3-.25-7.44-5.36-8.51-6.67-.03-.04.76-.52.46-.92-.81-1.09-3.42-2.39-3.68-3.68-.6-2.94,4.54-5.87,5.06-8.97,10.86-1.77,13.96,6.48,22.78,9.2,4.7,1.45,10.67.48,14.49,1.38Z"/>
          <path class="cls-39" d="M81.2,130.61c3.2,2.81,8.12,8.21,12.19,9.2,8.23,2.01,19.99-1.7,27.61,2.3,5.35,2.82,23.39,23.67,29.22,29.45-2.39,4.1-5.74,1.26-8.51,1.84-2.18.46-6.77,2.76-8.51,4.14-3.33-3.22-9.73-10.75-12.88-12.88,4.34-1-1.76-4.42-2.76-5.75-.27-.36.67-1.51,0-2.3-7.13-8.32-17.59-10.43-26.46-15.41-.71-.4-1.32.5-1.38.46-.28-.17-4.61-4.13-4.83-4.37-.05-.05.51-1.32.46-1.38-1.17-1.41-2.83-2.79-4.14-4.14-.45-.46-1.62-1.21,0-1.15Z"/>
          <path class="cls-15" d="M194.85,216.66c4.01,6.45,2.18,31.89,2.3,40.95-1.79-.23-.51,2.82-.92,3.91-.04.11-.81.25-1.84,1.61-1.95-.27-.66-3.34-3.45-4.14-.47-.14-2.86.59-3.68.46-.58-.09-.4-1.24-1.38-1.38-.17-.02-2.36,1.02-3.22.92-.19-.02-1.37-1.94-2.99-1.38-.18-14.34,3.18-28.23-6.44-39.57l21.63-1.38Z"/>
          <path class="cls-43" d="M72,182.15c-.12.89-1.78,5.85-2.07,5.98-.33.15-6.36.13-7.13.69-.51.37.45,10.47-1.38,12.42-1.11,1.18-2.46.39-3.45,1.15-.89.69-1.3,2.89-2.3,3.22-1.23.41-3.63-.8-4.14-.46-.15.1-.77,1.97-1.84,3.22-.1.12-1.47-.38-2.07.69-.21.37.27,2.28-.46,3.22-1.48,1.92-3.84,3.12-5.06,5.29-8.06-6.3-14.11-14.89-20.71-22.55,3.18-4.56,5.23-1.03,7.13-.92.9.05,4.79-1.82,5.06-1.84,2.2-.15,4.15,1.65,6.9.46,3.42-1.48,1.53-4.14,3.22-5.52,1.06-.87,9.18-2.89,10.58-2.76.16.02.45,1.36.92,1.38,2.94.16,3.53.11,6.44-.92-.56,1.3-1.08,1.78.92,1.84,2.61-.15,2.19-2.44,3.68-3.22,1.37-.72,4.78-.99,5.75-1.38Z"/>
          <path class="cls-25" d="M62.33,182.15c.28-.07.83.79,1.61.46,3.33-1.4,3.96-8.58,10.81-2.53.14.86-1.23,1.32-1.84,1.61-.24.11-.39.25-.92.46-.97.39-4.38.66-5.75,1.38-1.49.78-1.07,3.07-3.68,3.22-2-.06-1.48-.54-.92-1.84-2.91,1.03-3.51,1.08-6.44.92-.47-.03-.76-1.36-.92-1.38-1.4-.13-9.53,1.9-10.58,2.76-1.69,1.38.2,4.04-3.22,5.52-2.75,1.19-4.7-.61-6.9-.46-.27.02-4.16,1.89-5.06,1.84-1.9-.11-3.95-3.64-7.13.92-1.3-1.51-7.66-6.63-7.82-7.13-.38-1.21.07-5.82,0-7.59,1.95-2.4,4.41.17,6.67,0,3.03-.22,10.3-5.59,13.8-6.44,2.7,2.71,6.32,1.13,8.74,1.84.38.11,6.24,2.73,6.9,3.22,1.61,1.19,1.66,3.09,1.84,3.22.23.17,5.25-.49,5.52-.46,1.54.18.25,1.61,5.29.46Z"/>
          <path class="cls-26" d="M256.05,309.14c-.1,7.59-2.53,14.49-9.66,17.95.12-.11,1.44-1.79,1.84-2.3,1.46-1.89,1.62-4.08,3.68-5.75-1.38-1.83-4.73-2.8-6.67-2.07-.7.26-2.42,2.61-2.76,2.76-2.3,1.01-2.61-.52-2.76-.46-.32.14-5.36,3.84-5.52,4.14-.77,1.43.43,3.09-1.61,5.29-1.43,1.54-4.36,1.24-5.52,3.45-4.99-.52-2.79-1.97-4.37-2.3-2.29-.48-4.35,5.06-7.59,4.14.85-6.28.01-14.77-.46-21.17,4.48.96,7.49-1.62,12.42-1.84-2.06,4.22-.35,2.13-.23,2.3,1.6,2.3.92,4.25,5.06,2.3.62-.29,2.8-3.12,2.99-3.22.61-.34,5-2.24,5.29-2.3.97-.19,4.1,3.37,2.53-2.07-.19-.65-2.53-.81-.92-2.99,1.42.99,2.12,3.76,2.3,3.91.51.43,6.24,1.77,6.67,1.61v-2.76l5.29,1.38Z"/>
          <path class="cls-16" d="M167.24,188.59c6.95,7.09,22.93,20.55,27.61,28.07l-21.63,1.38c-4.23-4.99-10.86-11.13-15.64-16.1.75-1.42,4.45-2.98,4.6-4.37.02-.17-1.18-2-.92-3.22.09-.41,4.8-5.63,5.98-5.75Z"/>
          <path class="cls-40" d="M150.22,171.56c5.71,5.66,11.4,11.29,17.02,17.02-1.18.12-5.9,5.35-5.98,5.75-.26,1.22.94,3.05.92,3.22-.15,1.39-3.85,2.95-4.6,4.37-7.78-8.09-16.3-16.59-24.39-24.39,1.75-1.38,6.33-3.69,8.51-4.14,2.77-.58,6.12,2.26,8.51-1.84Z"/>
          <path class="cls-45" d="M260.65,274.63c-11.01,11.18-4.44,21.71-4.6,34.51l-5.29-1.38v2.76c-.43.16-6.16-1.18-6.67-1.61-.18-.16-.88-2.93-2.3-3.91-3.2-2.23-3.04,1.03-3.91,1.38-1.19.48-3.72-.5-3.91-.46.46-1.95.59-3.04,0-5.06,6.96,1.42,12.14-3.94,10.58-10.81-.45-1.97-4.04-4.31-4.14-4.6-.32-.89.07-4.78,0-6.21l2.99-.46c2.15-3.42,3.95-2.79,7.13-4.6,3.27,1.79,7.28-.76,10.12.46Z"/>
          <path class="cls-37" d="M232.58,269.57c.08,2.81.55,13.53,0,15.41-.23.78-3.44,2.81-4.14,4.83-1.91.02-1.87,2.07-2.53,2.3-.33.11-6.38.9-6.9.92-1.56.06-2.66-.66-5.98-.46-2.42.15-3.89-1.47-6.21,1.84-1.52-2.09-2.79-3.13-3.22-5.98.06-3.56,3.24-2.16,3.45-2.3,1.09-.72.57-1.97.69-2.07,1.89-1.55,3.98-3.18,5.52-5.06.21-.26-.31-1.8.23-2.53.32-.43,7.1-2.13,8.05-2.76,3.7-.87,6.99-5.3,11.04-4.14Z"/>
          <path class="cls-44" d="M197.15,257.61c.13,9.67-.68,20.42,0,29.91-3.41-.72-3.01,2.18-3.22,2.3-1.67.98-3.05.25-3.45.46-1.25.66-3.09,2.66-4.14,3.22-.24.13-3.43.43-4.14.92-1.7,1.18-.41,3.01-2.53,2.76-.09-8.73.08-17.49,0-26.23,1.64.79,5.62,1.37,7.13.92.11-.03.64-1.4,1.38-1.84.13-.08,2.23.3,2.99-.69.28-.37.33-3.55.46-3.68,1.16-1.18,2.25-.47,2.53-.69.52-.4.05-1.6.23-1.84,1.03-1.36,1.8-1.5,1.84-1.61.41-1.09-.87-4.14.92-3.91Z"/>
          <path class="cls-31" d="M193.93,289.82c1.33,4.03-1.7,7.93,4.6,5.52,3.64,8.34,8.59,4.42,9.2,17.49-.29.03-.69-.07-.92,0-2.68.78-5.4-.1-8.05.92l.92-2.76-5.52,1.38c-1.23-1.52-.28-3.4.69-4.83-.43-1.61-12.72-1.19-15.18-1.15-.06-3.06.03-6.14,0-9.2,2.12.25.83-1.58,2.53-2.76.71-.49,3.9-.79,4.14-.92,1.06-.56,2.9-2.56,4.14-3.22.4-.21,1.78.52,3.45-.46Z"/>
          <path class="cls-20" d="M287.8,252.55c-4.17,3.86-8.62,6.95-12.88,10.58-.35-4.15-4.52.94-5.75.46-2.72-1.07,7.5-7.61-.23-5.98.5-.77,2.48-3.77.69-4.14-3.78,3.19-2.99.5-3.22.46-3.82-.62-5.64,3.96-5.98,4.14-.24.13-4.36-.17-4.83,0,.37-2.01,3.24-1.69,3.45-1.84,1.68-1.25.37-1.86.92-2.3,1.41-1.13,2.64.07,2.76,0,1.37-.82,1.85-2.87,3.22-3.68.23-.13,2.32-.2,2.76-.46.92-.54,1.54-2.63,2.76-2.76,1.13-.12,3.74,1.2,6.44.46,1.51-.41,4.53-3.18,6.44-3.22,1.06-.02,1.02,1.68,2.99,1.15-2.28,3.1-5.07,6.1.46,7.13Z"/>
          <path class="cls-2" d="M229.82,307.3c2.56-.22,1.65-.8,4.14-1.38.19-.04,2.72.94,3.91.46.87-.35.71-3.61,3.91-1.38-1.61,2.18.73,2.34.92,2.99,1.57,5.45-1.56,1.88-2.53,2.07-.29.06-4.68,1.96-5.29,2.3-3.72-1.36-3.98-1.55-7.82-1.38-4.93.22-7.94,2.8-12.42,1.84-.13-1.73.26-3.91,0-5.52,1.96-.51,1.77-3.41,2.53-3.68.89-.32,3.92,1.38,4.14,1.38.74.01,4.79-1.54,5.98-.46.68.62.48,2.9.69,3.45.04.11.76-.6,1.84-.69Z"/>
          <path class="cls-49" d="M228.44,294.88c.15.62.2.81.46,1.38-3.24,3,2.37,6.8.92,11.04-1.08.09-1.8.8-1.84.69-.21-.55,0-2.83-.69-3.45-1.19-1.08-5.24.47-5.98.46-.22,0-3.25-1.7-4.14-1.38-.76.27-.58,3.17-2.53,3.68-1.12-7.03-3.22-7.07-6.9-11.96l20.71-.46Z"/>
          <path class="cls-20" d="M274.92,263.13c-4.09,3.49-10.92,8.11-14.26,11.5-2.84-1.22-6.86,1.33-10.12-.46,5.6-3.19,4.76-1.86,9.2-6.67,1.33-1.44,2.6-1.54,3.68-2.76.05-.05-.91-.85-.46-1.38,1.49-1.75,5.04-4.3,5.98-5.75,7.73-1.63-2.49,4.91.23,5.98,1.23.48,5.4-4.61,5.75-.46Z"/>
          <path class="cls-1" d="M221.54,273.71c-.95.63-7.73,2.33-8.05,2.76-.54.74-.02,2.27-.23,2.53-1.55,1.89-3.64,3.51-5.52,5.06-.12.1.4,1.35-.69,2.07-.22.14-3.39-1.26-3.45,2.3-.43-2.81.1-7.06,0-10.12,3.29.05,4.98-.7,7.36-2.76.13-.11-.24-1.81,2.07-2.76,1.54-.64,3.76,1.05,4.14.92.86-.31,1.09-4.34,2.76-4.14.79.09.9,2.62,3.45,1.61.5.89-1.27,2.15-1.84,2.53Z"/>
          <path class="cls-23" d="M247.31,173.87c2.09,7.19,2.26,13.85,7.36,20.71-1.5.74-2.1-.09-3.22-1.38-.82-.95-1.86-4.04-2.07-4.14-.47-.22-2.06.22-2.53,0-2.4-1.14-4.16-11.55-6.44-14.26,1.87-.36,1.96.11,2.76,0,2.22-.3,1.2-1.84,4.14-.92Z"/>
          <path class="cls-15" d="M203.6,227.7c-.12-2.2-.14-5.87-.46-7.82,6.62-1.28,2.78-7,11.27-6.9.21,0,1.12,1.34,1.38,1.38.34.06,2.34-2.23,3.91.69-2.71-.14-5.43,2.44-7.13,2.99-.18.06-2.14-1.25-3.68-.46-1.44.74-1.31,10.95-5.29,10.12Z"/>
          <path class="cls-19" d="M228.44,294.88l-20.71.46c-.08-.11-.54-.39-.92-.92,2.33-3.31,3.79-1.69,6.21-1.84,3.32-.2,4.42.52,5.98.46.52-.02,6.57-.81,6.9-.92.66-.23.63-2.28,2.53-2.3-.67,1.93-.46,3.14,0,5.06Z"/>
          <path class="cls-36" d="M207.74,312.83c.05,1.06-.02,2.15,0,3.22-1.72-.13-.46,1.93-1.15,2.76-.13.16-3.48,1.83-3.68,1.84-1.02.07-.57-.95-.92-.92-4.15.37-9.25-.63-12.19-.46,2.03-1.05,4.49-1.7,6.67-2.3.1-.03.81.95.92.92.89-.21,2.14-2.25,2.3-2.3,2.12-.64,7.95,2.31,7.13-2.76.23-.07.63.03.92,0Z"/>
          <path class="cls-46" d="M244.09,162.82c1.52,3.85,2.11,7.22,3.22,11.04-2.94-.92-1.93.62-4.14.92-.66-2.42-1.64-.47-2.76-1.61-2.14-2.18-3.99-8.53-6.44-10.81l.46-.92c.8,1.34,5.52,8.03,6.67,8.28,6.56,1.46.77-4.37,2.99-6.9Z"/>
          <path class="cls-21" d="M197.15,287.52c.21,2.98.13,4.96,1.38,7.82-6.3,2.4-3.27-1.49-4.6-5.52.21-.12-.19-3.02,3.22-2.3Z"/>
          <path class="cls-24" d="M210.96,275.56c-2.38,2.06-4.07,2.81-7.36,2.76-.04-1.22.03-2.46,0-3.68,2.63-.76,4.82.13,7.36.92Z"/>
          <path class="cls-40" d="M186.57,187.21c.67-3.08,1.39-3.36,4.14-4.14,1.98-.35,1.2,1.02.92,2.07-1.09,4.09-2.28,2.81-5.06,2.07Z"/>
          <path class="cls-30" d="M268.93,257.61c-.94,1.45-4.5,4-5.98,5.75-.45.53.51,1.33.46,1.38-1.09,1.22-2.35,1.32-3.68,2.76-4.44,4.81-3.6,3.48-9.2,6.67-3.18,1.81-4.98,1.18-7.13,4.6l-2.99.46c-.17-3.5-.11-7.52,0-11.04,1.16-2.83,1.11.1,2.53-.92,2.85-2.04,3-6.37,8.74-4.6l-1.61-1.84c3.15-.75,3.22-1.92,5.52-2.76.47-.17,4.59.13,4.83,0,.34-.18,2.16-4.76,5.98-4.14.23.04-.56,2.73,3.22-.46,1.79.37-.19,3.37-.69,4.14Z"/>
          <path class="cls-40" d="M240.41,174.79c2.28,2.71,4.04,13.12,6.44,14.26l-.46,4.14c-.21-.05-.9.85-2.07,0-.28-.2-3.76-5.38-3.91-5.75-.11-.26-1.3-4.58-1.38-5.06-.22-1.31-.56-7.32.23-8.05.53-.23.75.54,1.15.46Z"/>
          <path class="cls-22" d="M243.17,256.69c4.73,2.97.07,5.76,6.9,4.14l1.61,1.84c-5.74-1.77-5.89,2.56-8.74,4.6-1.42,1.02-1.38-1.91-2.53.92.06-2.01-.42-8.68,0-9.89.25-.72,2.66-1.49,2.76-1.61Z"/>
          <path class="cls-17" d="M251.45,193.19c-2.01,1.21-2.91.52-5.06,0l.46-4.14c.47.22,2.06-.22,2.53,0,.21.1,1.25,3.19,2.07,4.14Z"/>
          <path class="cls-49" d="M206.82,312.83c.81,5.07-5.01,2.12-7.13,2.76-.16.05-1.41,2.09-2.3,2.3-.11.02-.82-.95-.92-.92-2.18.6-4.64,1.25-6.67,2.3-1.75.1-7.49.94-7.36,3.68-.3-.54-2.61-1.64-2.76-2.07-.55-1.61.06-11.76,0-14.49,2.46-.04,14.75-.46,15.18,1.15-.97,1.43-1.92,3.31-.69,4.83l5.52-1.38-.92,2.76c2.65-1.02,5.37-.14,8.05-.92Z"/>
          <path class="cls-4" d="M248.23,324.79l-2.07-1.84c-4.97,3.82-10.3,6.29-16.1,8.28-.14.05-.63,1.55-2.3,1.84-.28.05-.63-.91-.69-.92,1.17-2.21,4.09-1.91,5.52-3.45,2.04-2.2.84-3.86,1.61-5.29.16-.3,5.21-4,5.52-4.14.15-.06.46,1.47,2.76.46.34-.15,2.07-2.5,2.76-2.76,1.94-.73,5.3.24,6.67,2.07-2.06,1.67-2.22,3.86-3.68,5.75Z"/>
          <path class="cls-13" d="M111.57,168.8c0,1.19-.6,4.82,0,5.75.34.53,1.51-.07,1.84.46,1.4,2.29,2.02,5.73,2.76,6.9.39.63,4,3,4.14,3.22.05.08-.9.84-.46,1.84.32.74,1.82,1.27,1.84,1.38.15.96-1.55.9-1.84,1.38-.12.2.06,1.92-.69,2.53-1.55,1.27-5.99-.99-4.37,3.22-2.36-.26-8.29.55-9.89,0-1.92-.66-5.16-8.11-11.73-2.3-1.62-4.53-1.9-2.09-4.37-3.68-.51-.33-.65-2.41-1.38-2.3-1.18.17-.48,1.47-1.15,1.84-2.72,1.49-8.92-3.06-8.51-6.44l-4.83-.92c.61-.29,1.98-.75,1.84-1.61-6.85-6.05-7.49,1.13-10.81,2.53-.78.33-1.33-.53-1.61-.46l.46-8.28c3.36-.26,5.94-2.92,7.59-5.52,12.42,1.34,29.29-2,41.18.46Z"/>
          <path class="cls-43" d="M123.99,209.76c-.47,1.25,2.41,3.95,3.22,4.83.93,1.01,6.86,6.42,6.9,6.9.01.13-1.34,1.55-1.38,2.3s1.58,1.61,0,3.45c-2.76,3.23-3.5-2.49-3.91-2.76-.68-.44-2.41.32-3.45-.69s-1.19-3.87-1.38-4.14c-.97-1.37-2.89-3.15-4.14-5.06-.31-.47.99-1.02.23-1.61-.67-.52-5.43-.33-5.75-.69-.73-.82-1.27-6.43-1.61-6.67-3.26-2.28-16.23,2.99-17.49,2.76-1.69-.31-7.01-6.68-3.91-8.74.98,4.89,5.25,6.99,9.89,5.52,1.04-.33,2.28-2.08,3.22-2.3,10.44-2.4,13.17,1.16,19.56,6.9Z"/>
          <g>
            <path class="cls-6" d="M86.26,189.05l1.84,4.37c2.7.15,2.17.28,3.68,2.07-.91,2.03-.89,2.01-.46,4.14-3.1,2.06,2.22,8.44,3.91,8.74,1.25.23,14.22-5.04,17.49-2.76.34.24.88,5.86,1.61,6.67.32.36,5.09.17,5.75.69.76.59-.54,1.14-.23,1.61,1.25,1.91,3.17,3.69,4.14,5.06.19.27.33,3.13,1.38,4.14s2.77.25,3.45.69c.41.27,1.15,5.99,3.91,2.76,1.99.73,1.1,1.7,2.3,4.14.32.66,1.57,3.38,2.07,3.68,1.27.76,5.88.26,6.44.46.63.23.69,1.5,1.38,1.84,2.02.99,3.29-.58,3.91,2.3.52,6.21.3,13.04.46,19.33h-20.02l-4.37-5.06c.6-5.41,4.68-11.13,1.38-17.72-2.52-5.02-9.72-4.61-13.57-7.13-2.62-1.72-4-5.88-7.36-6.9-8.72-2.65-38.08,2.87-50.61,1.38-5.09-.61-8.76-2.94-12.65-5.98,1.22-2.17,3.58-3.37,5.06-5.29.73-.94.25-2.85.46-3.22.6-1.07,1.97-.57,2.07-.69,1.07-1.25,1.69-3.12,1.84-3.22.51-.34,2.91.87,4.14.46,1-.33,1.41-2.53,2.3-3.22.99-.77,2.34.03,3.45-1.15,1.83-1.95.87-12.05,1.38-12.42.78-.56,6.8-.54,7.13-.69.29-.13,1.95-5.09,2.07-5.98.54-.21.68-.35.92-.46l4.83.92c-.41,3.38,5.79,7.94,8.51,6.44Z"/>
            <path class="cls-30" d="M129.74,249.33c4.21,1.36,2.48,6.29-.46,8.28-2.66-4.08-4.37-4.61.46-8.28Z"/>
          </g>
          <path class="cls-25" d="M93.16,193.19c-.49.43-1.09,1.66-1.38,2.3-1.51-1.79-.98-1.92-3.68-2.07l-1.84-4.37c.67-.37-.03-1.67,1.15-1.84.73-.11.87,1.97,1.38,2.3,2.47,1.59,2.76-.85,4.37,3.68Z"/>
          <path class="cls-38" d="M171.39,256.69l.46.46c.14,13.34.61,26.67.46,40.03-6.26-1.38-9.8,3.73-16.1,2.76.86-11.29.14-25.27,0-36.81,6.23.18,9.84-4.45,15.18-6.44Z"/>
          <path class="cls-41" d="M194.39,263.13c-.18.24.29,1.44-.23,1.84-.28.22-1.37-.49-2.53.69-.13.13-.18,3.31-.46,3.68-.76.99-2.86.61-2.99.69-.74.44-1.27,1.81-1.38,1.84-1.51.45-5.49-.13-7.13-.92-.04-4.44.05-8.9,0-13.34,1.62-.56,2.81,1.36,2.99,1.38.86.1,3.06-.94,3.22-.92.98.14.8,1.29,1.38,1.38.82.13,3.21-.6,3.68-.46,2.79.8,1.5,3.87,3.45,4.14Z"/>
          <path class="cls-26" d="M234.88,312.37c-.19.11-2.37,2.93-2.99,3.22-4.14,1.94-3.46,0-5.06-2.3-.12-.17-1.83,1.92.23-2.3,3.84-.17,4.1.02,7.82,1.38Z"/>
          <path class="cls-27" d="M233.96,300.86c.59,2.02.46,3.12,0,5.06-2.49.58-1.58,1.16-4.14,1.38,1.45-4.24-4.16-8.04-.92-11.04.84,1.83,3.12,4.21,5.06,4.6Z"/>
          <path class="cls-44" d="M235.11,244.27c8.67-1.96,5.85,12.25-.92,7.82-2.87-1.88-2.55-7.04.92-7.82Z"/>
          <path class="cls-7" d="M161.26,216.66c-4.22.4-1.99,4.19-2.76,5.75-.18.37-1.53,1.46-2.3,2.53-.95,1.33-1.69,2.86-3.22,3.68-2.28-3.58-30.29-31.12-33.36-32.21-1.38-.49-3.35-.75-4.83-.92-1.62-4.21,2.82-1.95,4.37-3.22.75-.62.57-2.33.69-2.53.29-.48,1.99-.42,1.84-1.38-.02-.11-1.52-.64-1.84-1.38-.44-1,.51-1.76.46-1.84-.14-.22-3.75-2.6-4.14-3.22-.74-1.17-1.36-4.61-2.76-6.9-.33-.53-1.5.07-1.84-.46-.6-.93,0-4.56,0-5.75,1.87.39,2.19.3,3.91,1.38,9.43,5.9,36.42,36.57,45.78,46.47Z"/>
          <path class="cls-44" d="M170.93,226.78c1.87,3.85,1.19,5.6,1.38,9.66-2.25-1.24-3.04.03-3.22,0-.75-.13-.3-.82-.69-.92-.54-.14-.97.75-1.84.46-.12-.04-.28-2.01-1.84-1.84-.96.1-4.44,7.61-8.51,5.52-.37-4.33-.82-7.29-3.22-11.04,1.53-.82,2.27-2.35,3.22-3.68,3.5-2.17,2.69.73,3.91,1.38.5.26,3.9,2.22,4.14,2.3,2.94.92,4.11-1.7,6.67-1.84Z"/>
          <path class="cls-44" d="M172.31,236.44c.32,6.75-.53,13.57-.46,20.25h-.46c-5.34,1.99-8.96,6.63-15.18,6.44,0-.46,0-.92,0-1.38,1.24-1.48,4.15-1.04,4.83-1.38.24-.12,3.1-2.53,3.91-3.22.54-.46,3.13-2.33,3.22-2.53.5-1.06-.13-3.63,0-4.14s1.36-1.73,1.38-1.84c.69-4.16.07-8.13-.46-12.19.18.03.97-1.24,3.22,0Z"/>
          <path class="cls-15" d="M170.93,226.78c-2.57.14-3.73,2.76-6.67,1.84-.24-.08-3.64-2.04-4.14-2.3-1.22-.65-.41-3.55-3.91-1.38.77-1.07,2.12-2.16,2.3-2.53.77-1.56-1.46-5.35,2.76-5.75,2.71,2.87,7.99,6.68,9.66,10.12Z"/>
          <path class="cls-18" d="M171.85,257.15l-.46-.46h.46c0,.15,0,.31,0,.46Z"/>
          <path class="cls-20" d="M164.94,257.15c-.81.69-3.67,3.1-3.91,3.22-.68.35-3.59-.1-4.83,1.38-.09-6.74.44-14.07,0-20.71,4.31-.12.37,1.76,1.61,4.14,2.52.96,4.53-2.67,5.06-2.76.29-.05.94,2.6,1.15,2.99.26.48,1.14-.02,1.38.46.79,1.56-1.46,9.14-.46,11.27Z"/>
          <path class="cls-20" d="M169.09,236.44c.53,4.06,1.15,8.04.46,12.19-.02.11-1.24,1.31-1.38,1.84s.5,3.08,0,4.14c-.09.2-2.68,2.07-3.22,2.53-1-2.14,1.25-9.72.46-11.27-.24-.48-1.12.02-1.38-.46-.21-.39-.86-3.04-1.15-2.99-.54.09-2.55,3.72-5.06,2.76-1.24-2.38,2.7-4.27-1.61-4.14-.03-.45.04-.93,0-1.38,4.07,2.09,7.56-5.42,8.51-5.52,1.56-.17,1.72,1.8,1.84,1.84.87.29,1.3-.6,1.84-.46.39.1-.05.79.69.92Z"/>
        </g>
      </g>
    </g>
    <g>
      <path class="cls-47" d="M594.49,193.65c0-40.41.57-84.18,1.56-109.54h-1.46c-10.47,43.59-38.33,127.73-61.85,199.78h-37.19c-17.84-61.49-46.66-156.73-56.83-200.34h-1.36c1.9,26.82,2.79,75.4,2.79,114.82v85.53h-39.61V54.04h64.2c20.72,63.92,44.86,144.98,52.1,177.52h.43c5.55-27.43,35.07-115,56.92-177.52h62v229.85h-41.71v-90.24Z"/>
      <path class="cls-47" d="M847.38,181.91h-111.43v66.26h122.73l-5.22,35.72h-159.45V54.04h158.42v35.72h-116.48v56.42h111.43v35.72Z"/>
      <path class="cls-47" d="M943.12,225.36l-20.26,58.53h-42.51l79.36-229.85h53.89l82.78,229.85h-45.47l-21.16-58.53h-86.63ZM1020.04,189.64c-18.23-52.59-29.2-83.96-34.55-103.54h-.33c-5.65,21.58-17.81,58.59-32.46,103.54h67.34Z"/>
    </g>
  </g>
  <g>
    <path class="cls-47" d="M394.45,335.15h15.14c11.37,0,18.89,7.58,18.89,19.29s-7.31,20.22-19.19,20.22h-14.84v-39.51ZM401.86,368.6h7.05c8.17,0,11.88-5.99,11.88-14.11,0-6.92-3.44-13.28-11.84-13.28h-7.09v27.39Z"/>
    <path class="cls-47" d="M443.63,335.15v39.51h-7.41v-39.51h7.41Z"/>
    <path class="cls-47" d="M486.94,374.66h-5.49c-.31-1.06-.5-2.55-.6-4.4-2.03,2.9-5.73,5.01-11.79,5.01-11.44,0-17.73-8.66-17.73-19.91,0-11.86,6.77-20.79,19.04-20.79,9.83,0,15.74,5.48,16.76,12.32h-7.41c-.99-3.25-3.45-6.42-9.46-6.42-8.48,0-11.24,6.97-11.24,14.56s3,14.26,11.21,14.26,9.47-5.35,9.47-9.96v-.38h-9.51v-6.14h16.76v21.84Z"/>
    <path class="cls-47" d="M503.34,335.15v39.51h-7.41v-39.51h7.41Z"/>
    <path class="cls-47" d="M521.52,341.29h-12.27v-6.14h31.94v6.14h-12.24v33.37h-7.43v-33.37Z"/>
    <path class="cls-47" d="M548.99,364.6l-3.48,10.06h-7.31l13.64-39.51h9.26l14.23,39.51h-7.82l-3.64-10.06h-14.89ZM562.21,358.46c-3.13-9.04-5.02-14.43-5.94-17.8h-.06c-.97,3.71-3.06,10.07-5.58,17.8h11.58Z"/>
    <path class="cls-47" d="M580.79,335.15h7.41v33.37h20l-.89,6.14h-26.52v-39.51Z"/>
    <path class="cls-47" d="M635.8,341.29h-12.27v-6.14h31.94v6.14h-12.24v33.37h-7.43v-33.37Z"/>
    <path class="cls-47" d="M668.16,358.3v16.36h-7.27v-39.51h16.7c8.45,0,12.98,4.63,12.98,10.75,0,5.25-2.91,8.2-6.08,9.33,2.39.77,5.29,2.94,5.29,9.93v1.86c0,2.68-.03,5.85.55,7.63h-7.07c-.7-1.71-.77-4.71-.77-8.74v-.67c0-4.77-1.26-6.95-7.88-6.95h-6.46ZM668.16,352.32h7.65c5.14,0,7.24-1.95,7.24-5.64s-2.32-5.55-6.9-5.55h-7.99v11.19Z"/>
    <path class="cls-47" d="M705.95,364.6l-3.48,10.06h-7.31l13.64-39.51h9.26l14.23,39.51h-7.82l-3.64-10.06h-14.89ZM719.18,358.46c-3.13-9.04-5.02-14.43-5.94-17.8h-.06c-.97,3.71-3.06,10.07-5.58,17.8h11.58Z"/>
    <path class="cls-47" d="M737.75,374.66v-39.51h9.34c5.19,9,15.41,26.25,17.36,30.55h.1c-.42-4.45-.41-11.09-.41-17.57v-12.99h6.79v39.51h-8.83c-4.58-8.01-15.63-27.34-17.77-31.86h-.1c.29,3.81.35,11.44.35,18.54v13.32h-6.83Z"/>
    <path class="cls-47" d="M785.09,363.28c.96,4.23,3.94,6.25,8.91,6.25s7.23-2.17,7.23-5.36c0-3.47-1.92-5.15-9.08-6.84-10.26-2.43-13.11-6.1-13.11-11.51,0-6.54,4.87-11.25,14.04-11.25,10.12,0,14.2,5.57,14.75,11.15h-7.49c-.51-2.8-2.15-5.53-7.48-5.53-3.93,0-6.23,1.68-6.23,4.82s1.87,4.31,8.44,5.86c11.42,2.72,13.75,7.03,13.75,12.43,0,6.93-5.21,11.89-15.38,11.89s-14.94-5.11-15.84-11.92h7.49Z"/>
    <path class="cls-47" d="M815.63,335.15h26.83v6.14h-19.58v10.76h18.34v6.14h-18.34v16.47h-7.25v-39.51Z"/>
    <path class="cls-47" d="M885.18,354.74c0,10.95-6.43,20.49-19.13,20.49s-18.63-9-18.63-20.33,6.98-20.33,19.15-20.33c11.41,0,18.61,8.19,18.61,20.16ZM855.1,354.73c0,8,3.72,14.4,11.24,14.4,8.14,0,11.16-6.77,11.16-14.3s-3.43-14.16-11.25-14.16-11.15,6.11-11.15,14.06Z"/>
    <path class="cls-47" d="M900.16,358.3v16.36h-7.27v-39.51h16.7c8.45,0,12.98,4.63,12.98,10.75,0,5.25-2.91,8.2-6.08,9.33,2.39.77,5.29,2.94,5.29,9.93v1.86c0,2.68-.03,5.85.55,7.63h-7.07c-.7-1.71-.77-4.71-.77-8.74v-.67c0-4.77-1.26-6.95-7.88-6.95h-6.46ZM900.16,352.32h7.65c5.14,0,7.24-1.95,7.24-5.64s-2.32-5.55-6.9-5.55h-7.99v11.19Z"/>
    <path class="cls-47" d="M937.95,364.6l-3.48,10.06h-7.31l13.64-39.51h9.26l14.23,39.51h-7.82l-3.64-10.06h-14.89ZM951.17,358.46c-3.13-9.04-5.02-14.43-5.94-17.8h-.06c-.97,3.71-3.06,10.07-5.58,17.8h11.58Z"/>
    <path class="cls-47" d="M973.33,341.29h-12.27v-6.14h31.94v6.14h-12.24v33.37h-7.43v-33.37Z"/>
    <path class="cls-47" d="M1005.84,335.15v39.51h-7.41v-39.51h7.41Z"/>
    <path class="cls-47" d="M1051.29,354.74c0,10.95-6.43,20.49-19.13,20.49s-18.63-9-18.63-20.33,6.98-20.33,19.15-20.33c11.41,0,18.61,8.19,18.61,20.16ZM1021.21,354.73c0,8,3.72,14.4,11.24,14.4,8.14,0,11.16-6.77,11.16-14.3s-3.43-14.16-11.25-14.16-11.15,6.11-11.15,14.06Z"/>
    <path class="cls-47" d="M1059,374.66v-39.51h9.34c5.19,9,15.41,26.25,17.36,30.55h.1c-.42-4.45-.41-11.09-.41-17.57v-12.99h6.79v39.51h-8.83c-4.58-8.01-15.63-27.34-17.77-31.86h-.1c.29,3.81.35,11.44.35,18.54v13.32h-6.83Z"/>
  </g>
</svg>