<svg width="1117" height="362" viewBox="0 0 1117 362" fill="none" xmlns="http://www.w3.org/2000/svg">
<path d="M159.31 269.779C159.26 273.999 160.04 291.169 158.85 293.709C158.27 292.899 152.91 292.159 152.64 292.329C152.17 292.629 152.75 294.269 151.72 294.629C151.35 294.759 150.3 293.769 149.42 294.169C147.22 295.179 147.22 298.599 142.29 299.229C141.93 299.279 139.74 298.449 138.38 298.769C135.98 299.329 135.68 303.739 134.93 304.519C134.71 304.749 130.08 306.639 129.41 307.509C126.75 298.629 117.74 288.529 120.67 279.439L121.36 282.659C124.27 281.419 128.7 280.479 131.48 278.519C132.05 278.119 131.37 276.629 131.94 276.219C132.12 276.089 135.47 276.069 136.31 275.299C136.71 277.719 137.98 279.489 140.68 278.979C143.67 278.409 143.06 274.549 143.21 272.539C149.52 273.509 153.06 268.399 159.31 269.779Z" fill="url(#paint0_linear_58_222)"/>
<path d="M275.03 287.269C278.64 286.429 280.57 289.229 280.78 292.559C281.15 298.429 265.35 328.389 260.99 333.049C256.01 338.369 248.06 339.119 247.19 330.749C246.88 327.789 250.04 312.079 251.33 309.119C254.49 301.859 261.02 300.199 266.28 296.009C268.37 294.339 272.97 287.749 275.02 287.269H275.03Z" fill="#F4A7BC"/>
<path d="M136.3 231.589C136.61 243.939 134.46 264.199 136.3 275.299C135.46 276.069 132.11 276.089 131.93 276.219C131.36 276.629 132.04 278.119 131.47 278.519C128.68 280.479 124.26 281.419 121.35 282.659L120.66 279.439C121.86 275.709 125.28 272.809 126.18 269.089C130.81 250.009 110.4 240.219 111.92 226.529L116.29 231.589H136.31H136.3Z" fill="#7FBE94"/>
<path d="M64.75 26.8287C65.53 26.5587 80.52 26.5887 81.31 26.8287C84.43 27.7887 84.21 44.9187 81.77 46.1587C79.75 47.1787 64.78 47.2287 63.59 45.0087C62.56 43.0787 62.51 27.5887 64.74 26.8287H64.75Z" fill="#F9B733"/>
<path d="M19.66 40.1689C20.41 39.9489 34.55 39.9489 35.3 40.1689C39.07 41.2889 38.79 59.0089 35.76 59.9589C33.93 60.5289 18.91 60.1789 18.04 58.8089C16.91 57.0089 16.8 41.0189 19.65 40.1689H19.66Z" fill="#F9B733"/>
<path d="M6.31003 82.0487C7.23003 81.7987 21.06 82.2187 21.95 82.5087C24.43 83.3187 24.15 100.279 22.41 101.379C20.67 102.479 4.66003 102.599 3.77003 99.7687C3.54003 99.0187 3.54003 84.8687 3.77003 84.1287C3.89003 83.7487 5.87003 82.1787 6.30003 82.0587L6.31003 82.0487Z" fill="#F9B733"/>
<path d="M41.74 69.1587C43.47 68.5887 55.56 68.7687 56.23 70.7687C56.48 71.5087 56.47 85.6687 56.23 86.4087C55.4 88.9587 40.78 88.5587 40.13 86.8687C39.48 85.1787 39.73 69.8087 41.74 69.1487V69.1587Z" fill="#F1C95F"/>
<path d="M154.7 300.149C154.52 301.979 155 305.079 156.08 306.589C152.8 305.649 151.79 308.969 149.87 310.269C149.56 310.479 146.98 310.359 146.65 310.729C145.65 311.839 146.92 315.569 145.73 316.249C143.45 317.559 138.59 312.419 136.3 320.389C133.91 321.249 136.02 317.559 131.7 320.389C131.01 317.699 131.02 314.799 130.32 312.109C137.01 312.029 133.82 307.239 134 306.819C134.15 306.469 139.27 302.599 139.98 301.989C142.47 304.119 142.65 301.629 143.43 301.529C145.98 301.199 148.76 301.799 151.71 301.069C151.89 301.019 153.64 298.519 154.7 300.149Z" fill="#2A7FA7"/>
<path d="M42.66 0.138803C44.42 -0.331197 55.72 0.438802 56.23 1.7488C55.69 4.7388 57.6 15.7288 54.62 16.6988C54.03 16.8888 42.79 16.8888 42.2 16.6988C39.96 15.9688 39.27 1.0388 42.66 0.138803Z" fill="#F1C95F"/>
<path d="M136.3 320.399C136.24 320.609 135.75 324.569 135.84 324.769C136.22 325.599 138 325.349 138.6 326.609C139.29 328.059 135.85 329.779 141.36 331.669L142.74 338.569C143.39 340.109 148.55 339.699 143.66 343.169L149.18 346.389C146.06 350.799 144.78 345.809 141.36 347.539C138.23 338.439 134.07 329.629 131.7 320.389C136.03 317.559 133.91 321.249 136.3 320.389V320.399Z" fill="#286F9C"/>
<path d="M142.28 299.229C141.32 299.889 140.76 301.319 139.98 301.989C139.27 302.599 134.15 306.469 134 306.819C133.82 307.239 137.01 312.029 130.32 312.109C129.93 310.609 129.81 308.889 129.4 307.509C130.07 306.639 134.71 304.749 134.92 304.519C135.67 303.739 135.97 299.329 138.37 298.769C139.73 298.449 141.92 299.279 142.28 299.229Z" fill="#66AEC8"/>
<path d="M175.41 32.3489C176.83 37.6789 173.1 36.8989 172.65 37.6389C171.48 39.5489 173.07 43.9989 167.13 43.8489C166.21 37.0689 169.97 34.7889 175.41 32.3489Z" fill="#CBDCE9"/>
<path d="M134.92 206.739C133.83 207.679 132.09 205.389 131.93 205.359C130.28 205.079 128.15 205.959 127.33 205.819C126.8 205.729 126.6 204.459 126.41 204.439C125.46 204.319 124.15 205.979 122.04 203.979C120.84 201.529 121.73 200.569 119.74 199.839C121.32 197.999 119.7 197.129 119.74 196.389C119.78 195.649 121.13 194.219 121.12 194.089C121.08 193.599 115.15 188.189 114.22 187.189C113.41 186.309 110.53 183.609 111 182.359C114.86 185.829 133.52 203.469 134.93 206.749L134.92 206.739Z" fill="#5DA46F"/>
<path d="M134.92 206.739C135.83 208.859 135.66 210.119 135.84 212.259C135.22 209.379 133.95 210.949 131.93 209.959C131.24 209.619 131.18 208.349 130.55 208.119C129.99 207.919 125.37 208.419 124.11 207.659C123.61 207.359 122.36 204.639 122.04 203.979C124.15 205.979 125.47 204.319 126.41 204.439C126.6 204.459 126.8 205.729 127.33 205.819C128.15 205.959 130.28 205.079 131.93 205.359C132.09 205.389 133.83 207.679 134.92 206.739Z" fill="#4C9563"/>
<path d="M158.85 293.709C157.95 295.629 155.12 295.959 154.71 300.149C153.65 298.519 151.9 301.019 151.72 301.069C148.76 301.799 145.99 301.199 143.44 301.529C142.66 301.629 142.48 304.119 139.99 301.989C140.77 301.319 141.33 299.889 142.29 299.229C147.22 298.599 147.22 295.179 149.42 294.169C150.3 293.769 151.35 294.759 151.72 294.629C152.75 294.269 152.17 292.629 152.64 292.329C152.91 292.159 158.27 292.899 158.85 293.709Z" fill="#4C9AAD"/>
<path d="M343.82 124.379C339.97 123.559 337.67 131.229 334.39 132.199C330.42 133.369 330.38 130.569 329.79 130.359C328.66 129.959 325.96 130.899 325.65 130.819C324.55 130.559 321.51 126.109 320.82 130.819C318.61 129.109 317.26 126.349 314.84 124.839C318.45 123.699 312.52 117.849 311.39 117.479C310.26 117.109 305.62 119.119 302.19 117.479C301.68 117.239 300.73 114.769 298.97 114.259C298.89 114.239 297.77 115.149 297.59 115.179C297.3 115.229 297.41 114.159 297.13 114.259C296.47 114.489 296.43 115.819 295.75 116.099C293.42 117.049 292.88 114.539 291.38 117.479C287.03 113.079 280.34 100.449 273.89 99.9888C274.67 95.3288 268.89 96.0589 265.61 95.8489C266.54 93.6689 262.96 92.1688 262.85 91.9388C262.24 90.6488 262.93 87.4388 261.47 85.7288C261.67 85.6788 265.06 84.2988 265.15 84.1188C265.89 82.7388 264.91 75.0889 264.23 73.5389C263.9 72.7789 263.1 73.9889 262.85 73.5389C262.1 72.1989 262.62 70.7688 261.24 69.1688C259.52 67.1588 255.47 68.3788 255.03 65.4888C259.61 61.8188 257.44 66.1288 259.86 65.9488C260.11 65.9288 263.58 63.2888 263.31 62.2688C268.26 66.8588 276.1 70.5789 282.87 67.7889C285.16 66.8489 287.36 62.8788 289.77 61.8088C297.2 58.5088 313.03 67.5289 317.61 73.5389C323.97 81.9089 321.73 96.1589 327.27 105.289C331.79 112.739 345.01 113.369 343.83 124.389L343.82 124.379Z" fill="#A0B7D0"/>
<path d="M285.38 128.979C292.29 138.649 301.16 141.049 309.54 131.279C312.73 134.339 314.73 138.449 318.05 141.399C317.95 142.889 315.65 148.379 315.75 148.989C315.91 149.979 318.45 151.149 319.43 152.899C317.49 154.199 314.7 158.859 313.68 159.799C313.18 160.259 312.35 159.289 312.3 159.339C311.04 160.479 309.84 163.329 309.54 163.479C309.09 163.709 308.51 162.509 307.47 163.249C307.01 163.579 307.72 169.669 305.17 170.839C302.87 172.229 300.7 173.799 298.27 174.979C296.62 175.779 294.63 176.389 292.98 177.279C292.61 177.139 293.6 175.179 292.29 174.059C293.48 171.889 292.94 170.229 292.06 168.079L288.15 170.609C287.76 172.449 289.61 171.999 289.99 172.449C290.02 172.479 289.33 172.959 289.53 173.139C288.3 178.639 287.31 181.339 281.02 181.879C280.67 181.909 279.29 180.489 279.18 180.499C277.17 180.639 274.96 181.449 272.51 181.419C274.69 172.759 271.86 177.259 270.67 175.669C270.26 175.119 271.6 171.909 271.13 170.609C270.94 170.089 269.34 169.659 268.83 168.769C268.6 168.359 269.06 166.539 268.83 166.009C268.35 164.899 266.06 165.569 265.38 164.859C265.23 164.709 264.07 161.259 263.77 160.949C262.77 159.909 261.8 160.359 261.7 160.259C261.26 159.819 260.28 157.129 259.4 157.039C258.52 156.949 257.89 158.379 257.56 158.419C257.2 158.459 256.41 156.219 255.49 157.729L256.41 163.019C253.75 154.799 249.02 152.039 245.83 145.299C240.5 134.049 237.53 125.359 230.19 114.699L232.72 112.399C231.2 116.979 236.59 114.909 237.32 115.159C237.83 115.339 239.17 117.339 239.62 117.459C241.85 118.059 241.23 116.149 244.68 118.379C244.72 118.409 245.24 117.589 245.6 117.919C247.62 119.749 246.29 127.549 246.75 128.729C247.21 129.909 251.98 130.479 252.96 131.259C253.37 131.579 253.53 133.869 253.88 134.019C254.03 134.079 256.34 133.079 257.1 133.559C257.66 133.909 257.01 135.009 257.56 135.399C257.9 135.639 260.89 134.809 261.7 134.939C261.92 134.979 262.41 135.829 262.62 135.859C263.38 135.959 268.76 136.419 269.06 136.319C269.9 136.039 270.67 133.749 272.28 134.019C272.48 134.049 274.37 136.269 275.96 135.859C276.95 135.609 277.39 133.159 278.26 132.639C278.71 132.369 279.6 133.299 280.56 132.639C281.99 131.649 283.4 129.349 285.39 128.959L285.38 128.979Z" fill="#E15875"/>
<path d="M227.41 61.7988C227.48 61.8188 228.73 62.2188 228.79 62.2588C229.98 63.1888 229.99 67.4888 232.7 68.2388C237.62 69.6088 245.63 62.4888 252.03 67.7788C253.4 68.9088 255.68 76.8188 256.86 79.2788C252.7 80.6688 257.56 85.1488 258.24 86.4088C258.31 86.5288 257.93 88.8188 258.24 89.1688C258.75 89.7388 260.14 89.0588 260.54 89.6288C260.73 89.8888 260.42 95.5488 261 96.0688C262.02 96.9888 264.68 95.7788 265.6 95.8388C268.89 96.0488 274.66 95.3188 273.88 99.9788C272.54 99.8888 270.39 100.199 269.74 101.589C266.24 109.049 278.17 117.189 282.16 122.299C283.34 123.809 283.96 126.979 285.38 128.969C283.39 129.359 281.98 131.669 280.55 132.649C279.59 133.309 278.7 132.379 278.25 132.649C277.38 133.169 276.94 135.619 275.95 135.869C274.36 136.279 272.47 134.059 272.27 134.029C270.66 133.759 269.89 136.059 269.05 136.329C268.74 136.429 263.37 135.969 262.61 135.869C262.4 135.839 261.91 134.989 261.69 134.949C260.88 134.819 257.89 135.649 257.55 135.409C257 135.019 257.65 133.919 257.09 133.569C256.33 133.089 254.02 134.089 253.87 134.029C253.52 133.879 253.36 131.589 252.95 131.269C251.97 130.489 247.21 129.959 246.74 128.739C246.27 127.519 247.61 119.749 245.59 117.929C245.23 117.599 244.71 118.419 244.67 118.389C241.22 116.159 241.84 118.069 239.61 117.469C239.16 117.349 237.82 115.349 237.31 115.169C236.58 114.919 231.19 116.989 232.71 112.409L230.18 114.709C228.55 112.339 224 107.399 221.44 106.429C222.15 105.179 222.26 100.969 222.36 100.679C222.41 100.539 224.5 99.5388 224.66 98.8388C224.78 98.3188 223.86 94.0888 224.2 92.3988C224.56 90.6188 226.89 86.8788 226.96 84.5788C227.08 80.8288 224.55 80.0488 224.2 78.8288C223.7 77.0788 223.7 71.9588 223.28 70.7788C223.03 70.0588 221.18 69.2188 220.98 68.7088C220.12 66.5588 219.47 63.5488 221.67 62.2688C223.72 62.9688 225.61 61.4188 227.42 61.8088L227.41 61.7988Z" fill="url(#paint1_linear_58_222)"/>
<path d="M214.06 42.4787C213.53 43.6187 215.06 47.5087 214.98 47.7687C214.78 48.4387 212.83 48.7487 212.22 49.6087C211.49 50.6387 210.72 53.3987 209.69 53.9787C207.62 55.1487 208.97 51.9287 206.93 52.1387C202.95 56.3187 201.92 56.1387 206.24 60.8787C205 61.3787 204.41 60.5687 203.71 60.8787C203.29 61.0687 201 67.1287 199.57 59.9587C194.06 64.5787 195.03 59.3887 193.13 59.4987C193.06 63.0787 190.94 63.9087 189.68 66.8587C187.64 66.2287 186.41 65.3487 184.62 64.5587C184.51 64.5087 184.41 64.3287 183.7 64.0987C182.08 62.2587 181.54 63.6587 181.4 63.6387C181.08 63.5787 180.87 64.1887 179.33 63.6387C176.33 62.5687 167.57 47.0587 167.14 43.8487C173.09 43.9887 171.49 39.5487 172.66 37.6387C173.11 36.8987 176.84 37.6787 175.42 32.3487C180.78 29.9387 189.27 29.8487 195.44 31.8887C202.59 34.2587 204.4 42.7087 214.08 42.4687L214.06 42.4787Z" fill="#A0B7D0"/>
<path d="M263.3 62.2588C263.57 63.2788 260.1 65.9188 259.85 65.9388C257.43 66.1188 259.6 61.8088 255.02 65.4788C253.83 66.4288 253.57 67.7788 253.41 67.7788C253.01 67.7888 247.38 63.2688 246.97 63.1788C245.94 62.9588 239.84 66.3088 239.38 62.0288C239.34 61.6288 240.74 61.2488 240.76 61.1088C240.93 59.6888 235.78 60.5788 235.01 60.8788C234.24 61.1788 235.29 62.0088 235.24 62.0288C232.71 63.1988 232.07 59.8988 228.8 62.2588C228.74 62.2188 227.49 61.8188 227.42 61.7988L226.04 60.4188L226.96 60.1888C224.68 59.6488 226.22 58.2488 226.04 57.8888C225.66 57.1288 223.41 55.4288 223.28 55.1288C222.56 53.4188 225.47 49.0188 220.98 48.9188C221.38 46.7588 220.91 43.4088 220.98 41.0988C224.74 39.5788 229.31 34.3888 234.09 33.2788C255.43 28.2988 252.29 52.0488 263.31 62.2688L263.3 62.2588Z" fill="#768EB9"/>
<path d="M216.36 59.4988C216.47 59.4988 217.17 60.7088 217.97 60.8788C218.04 60.8888 218.36 60.2088 219.35 60.4188C219.8 60.5188 219.35 61.6988 219.81 61.7988C219.95 61.8288 221.9 59.9888 222.11 59.9588C222.77 59.8688 224.88 61.3388 226.02 60.4188L227.4 61.7988C225.59 61.4088 223.7 62.9588 221.65 62.2588C219.45 63.5388 220.1 66.5588 220.96 68.6988C213 67.4488 201.99 69.7388 194.5 68.6988C193.52 68.5588 190.98 67.2588 189.67 66.8588C190.93 63.9088 193.05 63.0788 193.12 59.4988C195.03 59.3888 194.05 64.5788 199.56 59.9588C201 67.1288 203.28 61.0688 203.7 60.8788C204.4 60.5688 204.99 61.3788 206.23 60.8788C207.04 60.5488 209.43 58.7288 210.14 59.0388C210.62 59.2488 211.16 62.4688 212.44 62.2588C213.14 62.1488 213.25 59.2888 216.35 59.4988H216.36Z" fill="#CBDCE9"/>
<path d="M272.5 181.439C261.99 181.319 268.08 179.839 263.99 172.699C263.55 173.269 261.13 175.839 261 176.149C260.61 177.049 262.02 178.819 260.54 178.679C257.92 173.989 258.14 168.419 256.4 163.039L255.48 157.749C256.4 156.239 257.19 158.489 257.55 158.439C257.88 158.399 258.51 156.969 259.39 157.059C260.27 157.149 261.25 159.849 261.69 160.279C261.8 160.379 262.76 159.929 263.76 160.969C264.06 161.279 265.22 164.729 265.37 164.879C266.05 165.589 268.34 164.919 268.82 166.029C269.05 166.559 268.59 168.379 268.82 168.789C269.33 169.679 270.93 170.109 271.12 170.629C271.59 171.929 270.25 175.139 270.66 175.689C271.85 177.279 274.68 172.779 272.5 181.439Z" fill="#D54262"/>
<path d="M220.96 41.0886C220.89 43.4086 221.36 46.7486 220.96 48.9086C219.82 55.1086 215.13 53.7786 216.36 59.4886C213.26 59.2786 213.15 62.1386 212.45 62.2486C211.17 62.4586 210.63 59.2286 210.15 59.0286C209.44 58.7186 207.05 60.5386 206.24 60.8686C201.92 56.1286 202.95 56.2986 206.93 52.1286C208.97 51.9186 207.62 55.1386 209.69 53.9686C210.72 53.3886 211.49 50.6286 212.22 49.5986C212.83 48.7386 214.78 48.4286 214.98 47.7586C215.06 47.4986 213.53 43.6086 214.06 42.4686C215.47 42.4386 219.66 41.6186 220.96 41.0886Z" fill="#A0B7D0"/>
<path d="M314.83 124.839C305.97 119.309 300.45 126.659 291.36 117.479C292.86 114.539 293.4 117.049 295.73 116.099C296.41 115.819 296.45 114.489 297.11 114.259C297.39 114.159 297.28 115.229 297.57 115.179C297.75 115.149 298.87 114.239 298.95 114.259C300.71 114.769 301.66 117.239 302.17 117.479C305.6 119.119 310.2 117.089 311.37 117.479C312.54 117.869 318.43 123.709 314.82 124.839H314.83Z" fill="#899FC1"/>
<path d="M272.5 181.439C274.95 181.469 277.16 180.649 279.17 180.519C279.28 180.519 280.66 181.929 281.01 181.899C287.3 181.349 288.29 178.649 289.52 173.159C290.35 173.899 292.17 173.989 292.28 174.079C293.59 175.199 292.6 177.159 292.97 177.299C294.62 176.409 296.61 175.799 298.26 174.999C291.24 180.089 274.08 186.779 265.82 183.739C263.53 182.899 261.7 180.779 260.53 178.679C262.01 178.819 260.6 177.049 260.99 176.149C261.12 175.839 263.54 173.269 263.98 172.699C268.07 179.839 261.98 181.319 272.49 181.439H272.5Z" fill="#C33052"/>
<path d="M320.81 158.889L319.43 159.119C319.69 156.039 321.14 155.939 319.43 152.909C318.45 151.159 315.91 149.989 315.75 148.999C315.65 148.379 317.95 142.899 318.05 141.409C326.47 148.879 332.78 146.249 320.81 158.899V158.889Z" fill="#E97F98"/>
<path d="M320.81 158.889C316.02 163.949 311.07 167.289 305.17 170.849C307.72 169.679 307.01 163.589 307.47 163.259C308.52 162.519 309.09 163.719 309.54 163.489C309.85 163.329 311.04 160.489 312.3 159.349C312.35 159.299 313.18 160.269 313.68 159.809C314.71 158.859 317.49 154.209 319.43 152.909C321.14 155.949 319.69 156.049 319.43 159.119L320.81 158.889Z" fill="#D54262"/>
<path d="M343.82 124.379C342.87 133.209 330.64 134.519 323.8 133.119C322.55 132.869 321.59 131.429 320.81 130.819C321.5 126.109 324.54 130.559 325.64 130.819C325.96 130.899 328.65 129.959 329.78 130.359C330.38 130.569 330.42 133.369 334.38 132.199C337.66 131.229 339.97 123.559 343.81 124.379H343.82Z" fill="#899FC1"/>
<path d="M209.46 88.4888C211.01 86.3388 213.65 88.4288 215.9 88.4888C220.46 88.6088 219.54 85.8288 220.27 85.7288C221.8 85.7288 221.64 91.4988 221.42 91.9388C221.01 92.7688 220.01 91.0288 218.89 91.2488C218.27 91.3688 217.27 92.6988 216.59 92.6288C215.83 92.5488 212.27 88.6188 211.99 88.4888C211.53 88.2788 210.13 88.6488 209.46 88.4888Z" fill="#F8A756"/>
<path d="M221.42 82.5089C221.51 82.4389 221.62 81.9388 222.34 81.5888C224.53 80.5288 226.07 80.5088 226.02 83.6588C226.02 83.8688 224.67 84.7889 224.64 85.0389C224.26 87.7289 224.88 90.1788 222.11 92.1688C221.47 90.3488 222.19 88.2288 221.88 86.4188C221.53 84.3488 219.24 86.8389 221.42 82.5089Z" fill="#F8A756"/>
<path d="M183.69 64.0988C183.17 63.9288 182.06 63.9188 181.39 63.6388C181.53 63.6588 182.07 62.2588 183.69 64.0988Z" fill="#FEFFFE"/>
<path d="M184.61 64.5586C183.76 64.7886 183.94 64.3786 183.69 64.0986C184.4 64.3286 184.5 64.5086 184.61 64.5586Z" fill="#FEFFFE"/>
<path d="M255.01 65.4787C255.45 68.3687 259.5 67.1487 261.22 69.1587C262.6 70.7587 262.09 72.1987 262.83 73.5287C263.08 73.9787 263.88 72.7687 264.21 73.5287C264.89 75.0787 265.87 82.7387 265.13 84.1087C265.04 84.2887 261.64 85.6687 261.45 85.7187C260.69 85.8987 260.51 86.7387 259.61 85.4887C260.32 82.4887 257.49 80.5987 256.85 79.2787C255.67 76.8087 253.38 68.9087 252.02 67.7787C245.62 62.4887 237.62 69.6087 232.69 68.2387C229.98 67.4787 229.97 63.1887 228.78 62.2587C232.05 59.8987 232.69 63.1987 235.22 62.0287C235.27 62.0087 234.2 61.1887 234.99 60.8787C235.78 60.5687 240.91 59.6887 240.74 61.1087C240.72 61.2487 239.32 61.6287 239.36 62.0287C239.82 66.3087 245.92 62.9587 246.95 63.1787C247.36 63.2687 253 67.7887 253.39 67.7787C253.55 67.7787 253.81 66.4287 255 65.4787H255.01Z" fill="#D2D6E2"/>
<path d="M256.85 79.2888C257.49 80.6188 260.32 82.4988 259.61 85.4988C260.51 86.7488 260.69 85.9088 261.45 85.7288C262.91 87.4388 262.22 90.6488 262.83 91.9388C262.94 92.1688 266.53 93.6688 265.59 95.8488C264.67 95.7888 262.01 96.9988 260.99 96.0788C260.41 95.5588 260.72 89.8988 260.53 89.6388C260.13 89.0688 258.74 89.7488 258.23 89.1788C257.92 88.8288 258.3 86.5388 258.23 86.4188C257.55 85.1588 252.69 80.6788 256.85 79.2888Z" fill="#F4A7BC"/>
<path d="M292.29 174.069C292.18 173.979 290.36 173.889 289.53 173.149C289.33 172.969 290.02 172.489 289.99 172.459C289.61 172.009 287.76 172.459 288.15 170.619L292.06 168.089C292.94 170.249 293.48 171.909 292.29 174.069Z" fill="#E15875"/>
<path d="M226.03 60.4187C224.89 61.3387 222.78 59.8587 222.12 59.9587C221.91 59.9887 219.96 61.8287 219.82 61.7987C219.37 61.6887 219.82 60.5187 219.36 60.4187C218.37 60.2087 218.05 60.8987 217.98 60.8787C217.18 60.7087 216.48 59.5087 216.37 59.4987C215.14 53.7787 219.83 55.1187 220.97 48.9187C225.46 49.0187 222.55 53.4187 223.27 55.1287C223.4 55.4287 225.65 57.1287 226.03 57.8887C226.21 58.2487 224.67 59.6487 226.95 60.1887L226.03 60.4187Z" fill="#768EB9"/>
<path d="M151.94 81.5886C153.73 81.3886 159.58 82.3386 161.37 82.0486C164.75 81.4886 168.1 78.5786 172.18 77.9086C171.66 81.0086 166.52 83.9386 167.12 86.8786C167.38 88.1686 169.99 89.4686 170.8 90.5586C171.1 90.9586 170.31 91.4386 170.34 91.4786C171.41 92.7886 177.55 97.8986 178.85 98.1486C181.09 98.5886 183.9 97.0886 184.83 97.2286C185.76 97.3686 188.13 98.7286 189.43 99.0686C192.31 99.8286 193.27 97.6886 195.64 101.599C195.87 101.989 194.66 103.329 198.17 105.509C201.32 107.459 208.48 107.239 210.59 109.649C213.1 112.509 218.34 128.939 221.4 134.039L220.94 134.959C220.72 134.749 219.36 133.599 219.1 134.269C221.63 138.649 219.08 137.419 218.87 137.719C217.46 139.769 214.28 144.969 211.97 145.999C208.82 147.409 206.85 144.559 203 148.529C202.73 148.809 203.9 150.409 200.93 151.519C195.68 153.479 189.18 149.989 184.83 152.439C183.84 152.999 181.78 156.059 180.69 156.119C179.38 156.199 179.1 154.779 178.39 154.739C178.09 154.719 177.76 155.639 177.7 155.659C174.95 156.439 174.22 156.719 173.56 159.799C172.66 159.559 169.83 158.959 169.65 158.879C167.36 157.859 168.5 155.019 162.98 159.339C154.2 150.289 119.57 113.029 111.67 108.729C101.31 103.079 87.47 108.909 79.46 104.129C71.96 99.6486 64.43 88.5286 63.59 79.7386C66.56 79.8086 65.03 72.9786 67.96 72.3786C70.06 71.9486 78.3 76.9786 80.38 77.4386C81.24 77.6286 87.77 77.1786 88.2 77.4386C88.5 77.6186 90.87 83.3386 91.19 83.6486C93.19 85.5886 105.56 84.0086 107.98 85.7186C108.8 86.2986 110.03 91.0186 110.28 91.2386C111.2 92.0486 115.7 91.8586 116.72 92.1586C117.13 92.2786 118.79 93.7686 119.94 93.9986C125.29 95.0486 123.6 89.2686 124.08 88.9386C124.56 88.6086 128.7 89.2986 129.6 88.9386C130.79 88.4686 130.64 86.0586 130.75 85.9486C136.29 80.4886 140.56 85.0886 146.16 83.8786C147.08 83.6786 148.46 81.9586 151.91 81.5786L151.94 81.5886Z" fill="url(#paint2_linear_58_222)"/>
<path d="M220.96 134.959C223.41 137.239 225.26 143.589 227.4 145.769C228.52 146.909 229.5 144.959 230.16 147.379C229.36 147.489 229.27 147.019 227.4 147.379C227 147.459 226.78 146.689 226.25 146.919C225.46 147.659 225.8 153.659 226.02 154.969C226.1 155.449 227.29 159.769 227.4 160.029C227.55 160.399 231.03 165.579 231.31 165.779C232.48 166.629 233.17 165.729 233.38 165.779C235.53 166.299 236.43 166.989 238.44 165.779C239.56 167.069 240.17 167.899 241.66 167.159C242.94 168.869 246.09 170.969 247.64 172.909C259.34 187.559 261.89 199.369 283.3 196.149C284.64 195.949 289.22 193.779 290.2 193.849C295.49 194.199 289.36 208.699 287.67 211.569C284.43 217.049 279.35 220.909 274.79 225.139C269.26 224.109 272.05 221.099 274.33 218.009C272.36 218.539 272.4 216.839 271.34 216.859C269.43 216.899 266.4 219.669 264.9 220.079C262.2 220.819 259.59 219.499 258.46 219.619C257.24 219.749 256.62 221.839 255.7 222.379C255.25 222.639 253.17 222.709 252.94 222.839C251.57 223.659 251.09 225.699 249.72 226.519C249.6 226.589 248.37 225.389 246.96 226.519C246.41 226.959 247.72 227.569 246.04 228.819C245.83 228.969 242.96 228.649 242.59 230.659C240.28 231.499 240.22 232.669 237.07 233.419C230.23 235.039 234.89 232.249 230.17 229.279C245.63 210.649 209.47 202.569 213.15 223.529C213.86 227.579 219.41 230.429 219.59 230.889C220 231.919 219.54 240.129 219.59 242.159C215.53 240.999 212.25 245.429 208.55 246.299C209.12 245.919 210.89 244.659 210.39 243.769C207.84 244.779 207.73 242.249 206.94 242.159C205.27 241.959 205.04 245.999 204.18 246.299C203.8 246.429 201.58 244.739 200.04 245.379C197.73 246.329 198.1 248.029 197.97 248.139C195.43 247.349 193.24 246.459 190.61 247.219C190.26 231.789 191.46 215.569 190.61 200.289C194.59 201.109 194.46 190.909 195.9 190.169C197.44 189.379 199.4 190.689 199.58 190.629C201.28 190.079 204 187.499 206.71 187.639C205.14 184.719 203.14 187.009 202.8 186.949C202.54 186.909 201.63 185.569 201.42 185.569C192.92 185.479 196.77 191.189 190.15 192.469C188.65 183.259 170.3 166.859 163 159.339C168.52 155.019 167.38 157.859 169.67 158.879C169.85 158.959 172.68 159.559 173.58 159.799C176.36 160.539 177.55 161.819 178.64 157.729C178.92 156.679 179.7 155.309 177.72 155.659C177.78 155.639 178.11 154.719 178.41 154.739C179.12 154.779 179.4 156.199 180.71 156.119C181.8 156.059 183.86 152.999 184.85 152.439C189.2 149.989 195.71 153.479 200.95 151.519C203.92 150.409 202.75 148.809 203.02 148.529C206.87 144.559 208.84 147.409 211.99 145.999C214.3 144.959 217.49 139.769 218.89 137.719C219.1 137.419 221.65 138.639 219.12 134.269C219.38 133.599 220.74 134.749 220.96 134.959Z" fill="url(#paint3_linear_58_222)"/>
<path d="M194.74 288.649C194.8 293.039 192.17 310.719 197.27 311.659C200.74 312.289 201.73 309.369 202.1 306.599C205.34 307.509 207.4 301.969 209.69 302.459C211.27 302.799 209.07 304.239 214.06 304.759C214.12 304.759 214.47 305.729 214.75 305.679C216.43 305.389 216.91 303.889 217.05 303.839C222.86 301.849 228.19 299.379 233.15 295.559L235.22 297.399C234.82 297.919 233.5 299.589 233.38 299.699C230.32 302.639 225.48 303.509 222.11 306.139C211.01 314.789 220.76 318.249 215.9 325.699C212.82 330.409 205.7 331.769 202.56 335.819C200.96 337.879 199.52 342.409 197.5 345.019C188.09 357.149 167.39 362.589 152.64 360.889C144.05 359.899 143.76 354.519 141.37 347.549C144.79 345.819 146.08 350.809 149.19 346.399L143.67 343.179C148.56 339.709 143.4 340.119 142.75 338.579L141.37 331.679C135.86 329.789 139.3 328.069 138.61 326.619C138.01 325.359 136.23 325.609 135.85 324.779C135.76 324.579 136.25 320.619 136.31 320.409C138.6 312.439 143.46 317.579 145.74 316.269C146.93 315.589 145.66 311.859 146.66 310.749C146.99 310.379 149.57 310.499 149.88 310.289C151.81 308.989 152.81 305.669 156.09 306.609C161.2 313.779 176.19 307.789 169.43 295.569C169.3 292.829 175.04 291.989 176.79 291.889C179.74 291.719 184.83 292.719 188.98 292.349C189.33 292.319 188.88 293.339 189.9 293.269C190.11 293.259 193.45 291.589 193.58 291.429C194.27 290.599 193.01 288.539 194.73 288.669L194.74 288.649Z" fill="#195C8A"/>
<path d="M68.2 103.209C66.58 103.149 67.75 103.899 68.2 104.359C69.51 105.709 71.17 107.089 72.34 108.499C72.39 108.559 71.83 109.829 71.88 109.879C72.1 110.119 76.43 114.079 76.71 114.249C76.77 114.289 77.38 113.389 78.09 113.789C86.96 118.769 97.42 120.889 104.55 129.199C105.22 129.989 104.28 131.139 104.55 131.499C105.55 132.829 111.65 136.249 107.31 137.249C105.89 136.289 101.35 134.269 99.72 134.029C90.06 132.609 63.83 135.689 57.39 133.569C56.92 133.409 54.83 130.079 52.79 129.429C37.45 124.539 35.97 147.509 49.8 146.449L49.34 154.729C44.3 155.879 45.59 154.449 44.05 154.269C43.77 154.239 38.76 154.899 38.53 154.729C38.35 154.599 38.3 152.699 36.69 151.509C36.03 151.019 30.17 148.399 29.79 148.289C27.37 147.579 23.75 149.159 21.05 146.449C17.54 147.299 10.28 152.669 7.24999 152.889C4.98999 153.059 2.51999 150.489 0.579989 152.889C0.469989 150.129 0.269989 131.539 1.03999 130.569L18.3 129.419C20.25 127.989 17.79 114.459 19.45 111.699C21.21 108.779 35.88 112.039 39.01 110.089C42.14 108.139 37.78 96.4786 40.85 93.5286C41.8 93.1686 58.49 93.9786 59.72 94.4486C60.95 94.9186 66.63 101.779 68.23 103.189L68.2 103.209Z" fill="#C2CC3B"/>
<path d="M151.94 81.5887C148.49 81.9687 147.11 83.6887 146.19 83.8887C140.59 85.0987 136.31 80.4987 130.78 85.9587C130.67 86.0687 130.82 88.4787 129.63 88.9487C128.73 89.3087 124.59 88.6087 124.11 88.9487C123.63 89.2887 125.32 95.0687 119.97 94.0087C118.82 93.7787 117.16 92.2887 116.75 92.1687C115.73 91.8687 111.23 92.0587 110.31 91.2487C110.06 91.0287 108.83 86.3087 108.01 85.7287C105.58 84.0187 93.21 85.5987 91.22 83.6587C90.89 83.3387 88.52 77.6287 88.23 77.4487C87.8 77.1887 81.27 77.6387 80.41 77.4487C78.32 76.9887 70.09 71.9587 67.99 72.3887C65.06 72.9887 66.59 79.8187 63.62 79.7487C60.71 49.5887 78.31 47.9587 103.42 48.4587C107.42 48.5387 127.74 49.5287 130.11 50.7587C135.76 53.6987 129.76 62.7887 132.64 68.4787C136.21 75.5287 147.67 75.4587 151.97 81.5887H151.94Z" fill="#F9942F"/>
<path d="M209.46 88.4886C210.14 88.6486 211.53 88.2786 211.99 88.4886C212.27 88.6186 215.83 92.5486 216.59 92.6286C217.28 92.6986 218.27 91.3686 218.89 91.2486C220.01 91.0286 221.01 92.7686 221.42 91.9386C221.64 91.4986 221.8 85.7186 220.27 85.7286C219.54 85.8286 220.46 88.6086 215.9 88.4886C217.76 86.4986 219.2 84.1586 221.42 82.5086C219.24 86.8386 221.53 84.3486 221.88 86.4186C222.19 88.2286 221.47 90.3586 222.11 92.1686C224.88 90.1686 224.27 87.7286 224.64 85.0386C224.67 84.7886 226.02 83.8686 226.02 83.6586C226.06 80.5086 224.53 80.5286 222.34 81.5886L224.18 78.8286C224.53 80.0486 227.06 80.8286 226.94 84.5786C226.87 86.8786 224.54 90.6286 224.18 92.3986C223.84 94.0886 224.76 98.3186 224.64 98.8386C224.48 99.5386 222.39 100.539 222.34 100.679C222.24 100.969 222.13 105.179 221.42 106.429C218.48 105.309 217.49 108.549 217.74 110.799C218.05 113.559 229.07 130.299 231.08 135.419C228.86 137.949 234.65 143.789 228.09 142.319C226.94 142.059 222.22 135.369 221.42 134.039C218.35 128.939 213.12 112.519 210.61 109.649C208.49 107.239 201.34 107.459 198.19 105.509C194.68 103.329 195.89 101.989 195.66 101.599C193.29 97.6886 192.32 99.8286 189.45 99.0686C188.15 98.7286 185.76 97.3586 184.85 97.2286C183.94 97.0986 181.1 98.5886 178.87 98.1486C177.57 97.8986 171.43 92.7886 170.36 91.4786C170.33 91.4386 171.12 90.9586 170.82 90.5586C170.01 89.4686 167.4 88.1686 167.14 86.8786C166.54 83.9386 171.68 81.0086 172.2 77.9086C183.06 76.1386 186.16 84.3886 194.98 87.1086C199.68 88.5586 205.65 87.5886 209.47 88.4886H209.46Z" fill="#F56E13"/>
<path d="M68.2001 103.209C71.4001 106.019 76.3201 111.419 80.3901 112.409C88.6201 114.419 100.38 110.709 108 114.709C113.35 117.529 131.39 138.379 137.22 144.159C134.83 148.259 131.48 145.419 128.71 145.999C126.53 146.459 121.94 148.759 120.2 150.139C116.87 146.919 110.47 139.389 107.32 137.259C111.66 136.259 105.56 132.839 104.56 131.509C104.29 131.149 105.23 129.999 104.56 129.209C97.4301 120.889 86.9701 118.779 78.1001 113.799C77.3901 113.399 76.7801 114.299 76.7201 114.259C76.4401 114.089 72.1101 110.129 71.8901 109.889C71.8401 109.839 72.4001 108.569 72.3501 108.509C71.1801 107.099 69.5201 105.719 68.2101 104.369C67.7601 103.909 66.5901 103.159 68.2101 103.219L68.2001 103.209Z" fill="#F9B733"/>
<path d="M181.85 189.259C185.86 195.709 184.03 221.149 184.15 230.209C182.36 229.979 183.64 233.029 183.23 234.119C183.19 234.229 182.42 234.369 181.39 235.729C179.44 235.459 180.73 232.389 177.94 231.589C177.47 231.449 175.08 232.179 174.26 232.049C173.68 231.959 173.86 230.809 172.88 230.669C172.71 230.649 170.52 231.689 169.66 231.589C169.47 231.569 168.29 229.649 166.67 230.209C166.49 215.869 169.85 201.979 160.23 190.639L181.86 189.259H181.85Z" fill="#9BC972"/>
<path d="M59 154.749C58.88 155.639 57.22 160.599 56.93 160.729C56.6 160.879 50.57 160.859 49.8 161.419C49.29 161.789 50.25 171.889 48.42 173.839C47.31 175.019 45.96 174.229 44.97 174.989C44.08 175.679 43.67 177.879 42.67 178.209C41.44 178.619 39.04 177.409 38.53 177.749C38.38 177.849 37.76 179.719 36.69 180.969C36.59 181.089 35.22 180.589 34.62 181.659C34.41 182.029 34.89 183.939 34.16 184.879C32.68 186.799 30.32 187.999 29.1 190.169C21.04 183.869 14.99 175.279 8.39001 167.619C11.57 163.059 13.62 166.589 15.52 166.699C16.42 166.749 20.31 164.879 20.58 164.859C22.78 164.709 24.73 166.509 27.48 165.319C30.9 163.839 29.01 161.179 30.7 159.799C31.76 158.929 39.88 156.909 41.28 157.039C41.44 157.059 41.73 158.399 42.2 158.419C45.14 158.579 45.73 158.529 48.64 157.499C48.08 158.799 47.56 159.279 49.56 159.339C52.17 159.189 51.75 156.899 53.24 156.119C54.61 155.399 58.02 155.129 58.99 154.739L59 154.749Z" fill="#5CA150"/>
<path d="M49.33 154.749C49.61 154.679 50.16 155.539 50.94 155.209C54.27 153.809 54.9 146.629 61.75 152.679C61.89 153.539 60.52 153.999 59.91 154.289C59.67 154.399 59.52 154.539 58.99 154.749C58.02 155.139 54.61 155.409 53.24 156.129C51.75 156.909 52.17 159.199 49.56 159.349C47.56 159.289 48.08 158.809 48.64 157.509C45.73 158.539 45.13 158.589 42.2 158.429C41.73 158.399 41.44 157.069 41.28 157.049C39.88 156.919 31.75 158.949 30.7 159.809C29.01 161.189 30.9 163.849 27.48 165.329C24.73 166.519 22.78 164.719 20.58 164.869C20.31 164.889 16.42 166.759 15.52 166.709C13.62 166.599 11.57 163.069 8.39002 167.629C7.09002 166.119 0.730021 160.999 0.570021 160.499C0.190021 159.289 0.640021 154.679 0.570021 152.909C2.52002 150.509 4.98002 153.079 7.24002 152.909C10.27 152.689 17.54 147.319 21.04 146.469C23.74 149.179 27.36 147.599 29.78 148.309C30.16 148.419 36.02 151.039 36.68 151.529C38.29 152.719 38.34 154.619 38.52 154.749C38.75 154.919 43.77 154.259 44.04 154.289C45.58 154.469 44.29 155.899 49.33 154.749Z" fill="#8BB232"/>
<path d="M243.05 281.739C242.95 289.329 240.52 296.229 233.39 299.689C233.51 299.579 234.83 297.899 235.23 297.389C236.69 295.499 236.85 293.309 238.91 291.639C237.53 289.809 234.18 288.839 232.24 289.569C231.54 289.829 229.82 292.179 229.48 292.329C227.18 293.339 226.87 291.809 226.72 291.869C226.4 292.009 221.36 295.709 221.2 296.009C220.43 297.439 221.63 299.099 219.59 301.299C218.16 302.839 215.23 302.539 214.07 304.749C209.08 304.229 211.28 302.779 209.7 302.449C207.41 301.969 205.35 307.509 202.11 306.589C202.96 300.309 202.12 291.819 201.65 285.419C206.13 286.379 209.14 283.799 214.07 283.579C212.01 287.799 213.72 285.709 213.84 285.879C215.44 288.179 214.76 290.129 218.9 288.179C219.52 287.889 221.7 285.059 221.89 284.959C222.5 284.619 226.89 282.719 227.18 282.659C228.15 282.469 231.28 286.029 229.71 280.589C229.52 279.939 227.18 279.779 228.79 277.599C230.21 278.589 230.91 281.359 231.09 281.509C231.6 281.939 237.33 283.279 237.76 283.119V280.359L243.05 281.739Z" fill="#195C8A"/>
<path d="M154.24 161.189C161.19 168.279 177.17 181.739 181.85 189.259L160.22 190.639C155.99 185.649 149.36 179.509 144.58 174.539C145.33 173.119 149.03 171.559 149.18 170.169C149.2 169.999 148 168.169 148.26 166.949C148.35 166.539 153.06 161.319 154.24 161.199V161.189Z" fill="#CFDD8E"/>
<path d="M137.22 144.159C142.93 149.819 148.62 155.449 154.24 161.179C153.06 161.299 148.34 166.529 148.26 166.929C148 168.149 149.2 169.979 149.18 170.149C149.03 171.539 145.33 173.099 144.58 174.519C136.8 166.429 128.28 157.929 120.19 150.129C121.94 148.749 126.52 146.439 128.7 145.989C131.47 145.409 134.82 148.249 137.21 144.149L137.22 144.159Z" fill="#F1C95F"/>
<path d="M247.65 247.229C236.64 258.409 243.21 268.939 243.05 281.739L237.76 280.359V283.119C237.33 283.279 231.6 281.939 231.09 281.509C230.91 281.349 230.21 278.579 228.79 277.599C225.59 275.369 225.75 278.629 224.88 278.979C223.69 279.459 221.16 278.479 220.97 278.519C221.43 276.569 221.56 275.479 220.97 273.459C227.93 274.879 233.11 269.519 231.55 262.649C231.1 260.679 227.51 258.339 227.41 258.049C227.09 257.159 227.48 253.269 227.41 251.839L230.4 251.379C232.55 247.959 234.35 248.589 237.53 246.779C240.8 248.569 244.81 246.019 247.65 247.239V247.229Z" fill="#A1CFE0"/>
<path d="M219.58 242.169C219.66 244.979 220.13 255.699 219.58 257.579C219.35 258.359 216.14 260.389 215.44 262.409C213.53 262.429 213.57 264.479 212.91 264.709C212.58 264.819 206.53 265.609 206.01 265.629C204.45 265.689 203.35 264.969 200.03 265.169C197.61 265.319 196.14 263.699 193.82 267.009C192.3 264.919 191.03 263.879 190.6 261.029C190.66 257.469 193.84 258.869 194.05 258.729C195.14 258.009 194.62 256.759 194.74 256.659C196.63 255.109 198.72 253.479 200.26 251.599C200.47 251.339 199.95 249.799 200.49 249.069C200.81 248.639 207.59 246.939 208.54 246.309C212.24 245.439 215.53 241.009 219.58 242.169Z" fill="#186A62"/>
<path d="M184.15 230.209C184.28 239.879 183.47 250.629 184.15 260.119C180.74 259.399 181.14 262.299 180.93 262.419C179.26 263.399 177.88 262.669 177.48 262.879C176.23 263.539 174.39 265.539 173.34 266.099C173.1 266.229 169.91 266.529 169.2 267.019C167.5 268.199 168.79 270.029 166.67 269.779C166.58 261.049 166.75 252.289 166.67 243.549C168.31 244.339 172.29 244.919 173.8 244.469C173.91 244.439 174.44 243.069 175.18 242.629C175.31 242.549 177.41 242.929 178.17 241.939C178.45 241.569 178.5 238.389 178.63 238.259C179.79 237.079 180.88 237.789 181.16 237.569C181.68 237.169 181.21 235.969 181.39 235.729C182.42 234.369 183.19 234.229 183.23 234.119C183.64 233.029 182.36 229.979 184.15 230.209Z" fill="#74B673"/>
<path d="M180.93 262.419C182.26 266.449 179.23 270.349 185.53 267.939C189.17 276.279 194.12 272.359 194.73 285.429C194.44 285.459 194.04 285.359 193.81 285.429C191.13 286.209 188.41 285.329 185.76 286.349L186.68 283.589L181.16 284.969C179.93 283.449 180.88 281.569 181.85 280.139C181.42 278.529 169.13 278.949 166.67 278.989C166.61 275.929 166.7 272.849 166.67 269.789C168.79 270.039 167.5 268.209 169.2 267.029C169.91 266.539 173.1 266.239 173.34 266.109C174.4 265.549 176.24 263.549 177.48 262.889C177.88 262.679 179.26 263.409 180.93 262.429V262.419Z" fill="#4C9AAD"/>
<path d="M274.8 225.149C270.63 229.009 266.18 232.099 261.92 235.729C261.57 231.579 257.4 236.669 256.17 236.189C253.45 235.119 263.67 228.579 255.94 230.209C256.44 229.439 258.42 226.439 256.63 226.069C252.85 229.259 253.64 226.569 253.41 226.529C249.59 225.909 247.77 230.489 247.43 230.669C247.19 230.799 243.07 230.499 242.6 230.669C242.97 228.659 245.84 228.979 246.05 228.829C247.73 227.579 246.42 226.969 246.97 226.529C248.38 225.399 249.61 226.599 249.73 226.529C251.1 225.709 251.58 223.659 252.95 222.849C253.18 222.719 255.27 222.649 255.71 222.389C256.63 221.849 257.25 219.759 258.47 219.629C259.6 219.509 262.21 220.829 264.91 220.089C266.42 219.679 269.44 216.909 271.35 216.869C272.41 216.849 272.37 218.549 274.34 218.019C272.06 221.119 269.27 224.119 274.8 225.149Z" fill="#4C9563"/>
<path d="M216.82 279.899C219.38 279.679 218.47 279.099 220.96 278.519C221.15 278.479 223.68 279.459 224.87 278.979C225.74 278.629 225.58 275.369 228.78 277.599C227.17 279.779 229.51 279.939 229.7 280.589C231.27 286.039 228.14 282.469 227.17 282.659C226.88 282.719 222.49 284.619 221.88 284.959C218.16 283.599 217.9 283.409 214.06 283.579C209.13 283.799 206.12 286.379 201.64 285.419C201.51 283.689 201.9 281.509 201.64 279.899C203.6 279.389 203.41 276.489 204.17 276.219C205.06 275.899 208.09 277.599 208.31 277.599C209.05 277.609 213.1 276.059 214.29 277.139C214.97 277.759 214.77 280.039 214.98 280.589C215.02 280.699 215.74 279.989 216.82 279.899Z" fill="#2A7FA7"/>
<path d="M215.44 267.479C215.59 268.099 215.64 268.289 215.9 268.859C212.66 271.859 218.27 275.659 216.82 279.899C215.74 279.989 215.02 280.699 214.98 280.589C214.77 280.039 214.98 277.759 214.29 277.139C213.1 276.059 209.05 277.609 208.31 277.599C208.09 277.599 205.06 275.899 204.17 276.219C203.41 276.489 203.59 279.389 201.64 279.899C200.52 272.869 198.42 272.829 194.74 267.939L215.45 267.479H215.44Z" fill="#4997B9"/>
<path d="M261.92 235.729C257.83 239.219 251 243.839 247.66 247.229C244.82 246.009 240.8 248.559 237.54 246.769C243.14 243.579 242.3 244.909 246.74 240.099C248.07 238.659 249.34 238.559 250.42 237.339C250.47 237.289 249.51 236.489 249.96 235.959C251.45 234.209 255 231.659 255.94 230.209C263.67 228.579 253.45 235.119 256.17 236.189C257.4 236.669 261.57 231.579 261.92 235.729Z" fill="#4C9563"/>
<path d="M208.54 246.309C207.59 246.939 200.81 248.639 200.49 249.069C199.95 249.809 200.47 251.339 200.26 251.599C198.71 253.489 196.62 255.109 194.74 256.659C194.62 256.759 195.14 258.009 194.05 258.729C193.83 258.869 190.66 257.469 190.6 261.029C190.17 258.219 190.7 253.969 190.6 250.909C193.89 250.959 195.58 250.209 197.96 248.149C198.09 248.039 197.72 246.339 200.03 245.389C201.57 244.749 203.79 246.439 204.17 246.309C205.03 245.999 205.26 241.969 206.93 242.169C207.72 242.259 207.83 244.789 210.38 243.779C210.88 244.669 209.11 245.929 208.54 246.309Z" fill="#227665"/>
<path d="M234.31 146.469C236.4 153.659 236.57 160.319 241.67 167.179C240.17 167.919 239.57 167.089 238.45 165.799C237.63 164.849 236.59 161.759 236.38 161.659C235.91 161.439 234.32 161.879 233.85 161.659C231.45 160.519 229.69 150.109 227.41 147.399C229.28 147.039 229.37 147.509 230.17 147.399C232.39 147.099 231.37 145.559 234.31 146.479V146.469Z" fill="#F1B75E"/>
<path d="M190.6 200.299C190.48 198.099 190.46 194.429 190.14 192.479C196.76 191.199 192.92 185.479 201.41 185.579C201.62 185.579 202.53 186.919 202.79 186.959C203.13 187.019 205.13 184.729 206.7 187.649C203.99 187.509 201.27 190.089 199.57 190.639C199.39 190.699 197.43 189.389 195.89 190.179C194.45 190.919 194.58 201.129 190.6 200.299Z" fill="#9BC972"/>
<path d="M215.44 267.479L194.73 267.939C194.65 267.829 194.19 267.549 193.81 267.019C196.14 263.709 197.6 265.329 200.02 265.179C203.34 264.979 204.44 265.699 206 265.639C206.52 265.619 212.57 264.829 212.9 264.719C213.56 264.489 213.53 262.439 215.43 262.419C214.76 264.349 214.97 265.559 215.43 267.479H215.44Z" fill="#32869F"/>
<path d="M194.74 285.429C194.79 286.489 194.72 287.579 194.74 288.649C193.02 288.519 194.28 290.579 193.59 291.409C193.46 291.569 190.11 293.239 189.91 293.249C188.89 293.319 189.34 292.299 188.99 292.329C184.84 292.699 179.74 291.699 176.8 291.869C178.83 290.819 181.29 290.169 183.47 289.569C183.57 289.539 184.28 290.519 184.39 290.489C185.28 290.279 186.53 288.239 186.69 288.189C188.81 287.549 194.64 290.499 193.82 285.429C194.05 285.359 194.45 285.459 194.74 285.429Z" fill="#286F9C"/>
<path d="M231.09 135.419C232.61 139.269 233.2 142.639 234.31 146.459C231.37 145.539 232.38 147.079 230.17 147.379C229.51 144.959 228.53 146.909 227.41 145.769C225.27 143.589 223.42 137.239 220.97 134.959L221.43 134.039C222.23 135.379 226.95 142.069 228.1 142.319C234.66 143.779 228.87 137.949 231.09 135.419Z" fill="#F9942F"/>
<path d="M184.15 260.119C184.36 263.099 184.28 265.079 185.53 267.939C179.23 270.339 182.26 266.449 180.93 262.419C181.14 262.299 180.74 259.399 184.15 260.119Z" fill="#36898C"/>
<path d="M197.96 248.159C195.58 250.219 193.89 250.969 190.6 250.919C190.56 249.699 190.63 248.459 190.6 247.239C193.23 246.479 195.42 247.369 197.96 248.159Z" fill="#5DA46F"/>
<path d="M173.57 159.809C174.24 156.729 174.96 156.449 177.71 155.669C179.69 155.319 178.91 156.689 178.63 157.739C177.54 161.829 176.35 160.549 173.57 159.809Z" fill="#F1C95F"/>
<path d="M255.93 230.209C254.99 231.659 251.43 234.209 249.95 235.959C249.5 236.489 250.46 237.289 250.41 237.339C249.32 238.559 248.06 238.659 246.73 240.099C242.29 244.909 243.13 243.579 237.53 246.769C234.35 248.579 232.55 247.949 230.4 251.369L227.41 251.829C227.24 248.329 227.3 244.309 227.41 240.789C228.57 237.959 228.52 240.889 229.94 239.869C232.79 237.829 232.94 233.499 238.68 235.269L237.07 233.429C240.22 232.679 240.29 231.509 242.59 230.669C243.06 230.499 247.18 230.799 247.42 230.669C247.76 230.489 249.58 225.909 253.4 226.529C253.63 226.569 252.84 229.259 256.62 226.069C258.41 226.439 256.43 229.439 255.93 230.209Z" fill="#18634F"/>
<path d="M227.41 147.389C229.69 150.099 231.45 160.509 233.85 161.649L233.39 165.789C233.18 165.739 232.49 166.639 231.32 165.789C231.04 165.589 227.56 160.409 227.41 160.039C227.3 159.779 226.11 155.459 226.03 154.979C225.81 153.669 225.47 147.659 226.26 146.929C226.79 146.699 227.01 147.469 227.41 147.389Z" fill="#F1C95F"/>
<path d="M230.17 229.289C234.9 232.259 230.24 235.049 237.07 233.429L238.68 235.269C232.94 233.499 232.79 237.829 229.94 239.869C228.52 240.889 228.56 237.959 227.41 240.789C227.47 238.779 226.99 232.109 227.41 230.899C227.66 230.179 230.07 229.409 230.17 229.289Z" fill="#33825B"/>
<path d="M238.45 165.789C236.44 166.999 235.54 166.309 233.39 165.789L233.85 161.649C234.32 161.869 235.91 161.429 236.38 161.649C236.59 161.749 237.63 164.839 238.45 165.789Z" fill="#D9CC81"/>
<path d="M193.82 285.429C194.63 290.499 188.81 287.549 186.69 288.189C186.53 288.239 185.28 290.279 184.39 290.489C184.28 290.509 183.57 289.539 183.47 289.569C181.29 290.169 178.83 290.819 176.8 291.869C175.05 291.969 169.31 292.809 169.44 295.549C169.14 295.009 166.83 293.909 166.68 293.479C166.13 291.869 166.74 281.719 166.68 278.989C169.14 278.949 181.43 278.529 181.86 280.139C180.89 281.569 179.94 283.449 181.17 284.969L186.69 283.589L185.77 286.349C188.42 285.329 191.14 286.209 193.82 285.429Z" fill="#4997B9"/>
<path d="M235.23 297.389L233.16 295.549C228.19 299.369 222.86 301.839 217.06 303.829C216.92 303.879 216.43 305.379 214.76 305.669C214.48 305.719 214.13 304.759 214.07 304.749C215.24 302.539 218.16 302.839 219.59 301.299C221.63 299.099 220.43 297.439 221.2 296.009C221.36 295.709 226.41 292.009 226.72 291.869C226.87 291.809 227.18 293.339 229.48 292.329C229.82 292.179 231.55 289.829 232.24 289.569C234.18 288.839 237.54 289.809 238.91 291.639C236.85 293.309 236.69 295.499 235.23 297.389Z" fill="#12476A"/>
<path d="M98.57 141.399C98.57 142.589 97.97 146.219 98.57 147.149C98.91 147.679 100.08 147.079 100.41 147.609C101.81 149.899 102.43 153.339 103.17 154.509C103.56 155.139 107.17 157.509 107.31 157.729C107.36 157.809 106.41 158.569 106.85 159.569C107.17 160.309 108.67 160.839 108.69 160.949C108.84 161.909 107.14 161.849 106.85 162.329C106.73 162.529 106.91 164.249 106.16 164.859C104.61 166.129 100.17 163.869 101.79 168.079C99.43 167.819 93.5 168.629 91.9 168.079C89.98 167.419 86.74 159.969 80.17 165.779C78.55 161.249 78.27 163.689 75.8 162.099C75.29 161.769 75.15 159.689 74.42 159.799C73.24 159.969 73.94 161.269 73.27 161.639C70.55 163.129 64.35 158.579 64.76 155.199L59.93 154.279C60.54 153.989 61.91 153.529 61.77 152.669C54.92 146.619 54.28 153.799 50.96 155.199C50.18 155.529 49.63 154.669 49.35 154.739L49.81 146.459C53.17 146.199 55.75 143.539 57.4 140.939C69.82 142.279 86.69 138.939 98.58 141.399H98.57Z" fill="#C2CC3B"/>
<path d="M110.99 182.359C110.52 183.609 113.4 186.309 114.21 187.189C115.14 188.199 121.07 193.609 121.11 194.089C121.12 194.219 119.77 195.639 119.73 196.389C119.69 197.139 121.31 197.999 119.73 199.839C116.97 203.069 116.23 197.349 115.82 197.079C115.14 196.639 113.41 197.399 112.37 196.389C111.33 195.379 111.18 192.519 110.99 192.249C110.02 190.879 108.1 189.099 106.85 187.189C106.54 186.719 107.84 186.169 107.08 185.579C106.41 185.059 101.65 185.249 101.33 184.889C100.6 184.069 100.06 178.459 99.7201 178.219C96.4601 175.939 83.4901 181.209 82.2301 180.979C80.5401 180.669 75.2201 174.299 78.3201 172.239C79.3001 177.129 83.5701 179.229 88.2101 177.759C89.2501 177.429 90.4901 175.679 91.4301 175.459C101.87 173.059 104.6 176.619 110.99 182.359Z" fill="#5CA150"/>
<path d="M73.26 161.649L75.1 166.019C77.8 166.169 77.27 166.299 78.78 168.089C77.87 170.119 77.89 170.099 78.32 172.229C75.22 174.289 80.54 180.669 82.23 180.969C83.48 181.199 96.45 175.929 99.72 178.209C100.06 178.449 100.6 184.069 101.33 184.879C101.65 185.239 106.42 185.049 107.08 185.569C107.84 186.159 106.54 186.709 106.85 187.179C108.1 189.089 110.02 190.869 110.99 192.239C111.18 192.509 111.32 195.369 112.37 196.379C113.42 197.389 115.14 196.629 115.82 197.069C116.23 197.339 116.97 203.059 119.73 199.829C121.72 200.559 120.83 201.529 122.03 203.969C122.35 204.629 123.6 207.349 124.1 207.649C125.37 208.409 129.98 207.909 130.54 208.109C131.17 208.339 131.23 209.609 131.92 209.949C133.94 210.939 135.21 209.369 135.83 212.249C136.35 218.459 136.13 225.289 136.29 231.579H116.27L111.9 226.519C112.5 221.109 116.58 215.389 113.28 208.799C110.76 203.779 103.56 204.189 99.71 201.669C97.09 199.949 95.71 195.789 92.35 194.769C83.63 192.119 54.27 197.639 41.74 196.149C36.65 195.539 32.98 193.209 29.09 190.169C30.31 187.999 32.67 186.799 34.15 184.879C34.88 183.939 34.4 182.029 34.61 181.659C35.21 180.589 36.58 181.089 36.68 180.969C37.75 179.719 38.37 177.849 38.52 177.749C39.03 177.409 41.43 178.619 42.66 178.209C43.66 177.879 44.07 175.679 44.96 174.989C45.95 174.219 47.3 175.019 48.41 173.839C50.24 171.889 49.28 161.789 49.79 161.419C50.57 160.859 56.59 160.879 56.92 160.729C57.21 160.599 58.87 155.639 58.99 154.749C59.53 154.539 59.67 154.399 59.91 154.289L64.74 155.209C64.33 158.589 70.53 163.149 73.25 161.649H73.26Z" fill="url(#paint4_linear_58_222)"/>
<path d="M116.74 221.928C120.95 223.288 119.22 228.218 116.28 230.208C113.62 226.128 111.91 225.598 116.74 221.928Z" fill="#18634F"/>
<path d="M80.16 165.789C79.67 166.219 79.07 167.449 78.78 168.089C77.27 166.299 77.8 166.169 75.1 166.019L73.26 161.649C73.93 161.279 73.23 159.979 74.41 159.809C75.14 159.699 75.28 161.779 75.79 162.109C78.26 163.699 78.55 161.259 80.16 165.789Z" fill="#8BB232"/>
<path d="M158.39 229.289L158.85 229.749C158.99 243.089 159.46 256.419 159.31 269.779C153.05 268.399 149.51 273.509 143.21 272.539C144.07 261.249 143.35 247.269 143.21 235.729C149.44 235.909 153.05 231.279 158.39 229.289Z" fill="#7FBE94"/>
<path d="M181.39 235.729C181.21 235.969 181.68 237.169 181.16 237.569C180.88 237.789 179.79 237.079 178.63 238.259C178.5 238.389 178.45 241.569 178.17 241.939C177.41 242.929 175.31 242.549 175.18 242.629C174.44 243.069 173.91 244.439 173.8 244.469C172.29 244.919 168.31 244.339 166.67 243.549C166.63 239.109 166.72 234.649 166.67 230.209C168.29 229.649 169.48 231.569 169.66 231.589C170.52 231.689 172.72 230.649 172.88 230.669C173.86 230.809 173.68 231.959 174.26 232.049C175.08 232.179 177.47 231.449 177.94 231.589C180.73 232.389 179.44 235.459 181.39 235.729Z" fill="#A5D2BB"/>
<path d="M221.88 284.969C221.69 285.079 219.51 287.899 218.89 288.189C214.75 290.129 215.43 288.189 213.83 285.889C213.71 285.719 212 287.809 214.06 283.589C217.9 283.419 218.16 283.609 221.88 284.969Z" fill="#195C8A"/>
<path d="M220.96 273.459C221.55 275.479 221.42 276.579 220.96 278.519C218.47 279.099 219.38 279.679 216.82 279.899C218.27 275.659 212.66 271.859 215.9 268.859C216.74 270.689 219.02 273.069 220.96 273.459Z" fill="#66AEC8"/>
<path d="M222.11 216.869C230.78 214.909 227.96 229.119 221.19 224.689C218.32 222.809 218.64 217.649 222.11 216.869Z" fill="#74B673"/>
<path d="M148.26 189.259C144.04 189.659 146.27 193.449 145.5 195.009C145.32 195.379 143.97 196.469 143.2 197.539C142.25 198.869 141.51 200.399 139.98 201.219C137.7 197.639 109.69 170.099 106.62 169.009C105.24 168.519 103.27 168.259 101.79 168.089C100.17 163.879 104.61 166.139 106.16 164.869C106.91 164.249 106.73 162.539 106.85 162.339C107.14 161.859 108.84 161.919 108.69 160.959C108.67 160.849 107.17 160.319 106.85 159.579C106.41 158.579 107.36 157.819 107.31 157.739C107.17 157.519 103.56 155.139 103.17 154.519C102.43 153.349 101.81 149.909 100.41 147.619C100.08 147.089 98.91 147.689 98.57 147.159C97.97 146.229 98.57 142.599 98.57 141.409C100.44 141.799 100.76 141.709 102.48 142.789C111.91 148.689 138.9 179.359 148.26 189.259Z" fill="url(#paint5_linear_58_222)"/>
<path d="M157.93 199.379C159.8 203.229 159.12 204.979 159.31 209.039C157.06 207.799 156.27 209.069 156.09 209.039C155.34 208.909 155.79 208.219 155.4 208.119C154.86 207.979 154.43 208.869 153.56 208.579C153.44 208.539 153.28 206.569 151.72 206.739C150.76 206.839 147.28 214.349 143.21 212.259C142.84 207.929 142.39 204.969 139.99 201.219C141.52 200.399 142.26 198.869 143.21 197.539C146.71 195.369 145.9 198.269 147.12 198.919C147.62 199.179 151.02 201.139 151.26 201.219C154.2 202.139 155.37 199.519 157.93 199.379Z" fill="#74B673"/>
<path d="M159.31 209.039C159.63 215.789 158.78 222.609 158.85 229.289H158.39C153.05 231.279 149.43 235.919 143.21 235.729C143.21 235.269 143.21 234.809 143.21 234.349C144.45 232.869 147.36 233.309 148.04 232.969C148.28 232.849 151.14 230.439 151.95 229.749C152.49 229.289 155.08 227.419 155.17 227.219C155.67 226.159 155.04 223.589 155.17 223.079C155.3 222.569 156.53 221.349 156.55 221.239C157.24 217.079 156.62 213.109 156.09 209.049C156.27 209.079 157.06 207.809 159.31 209.049V209.039Z" fill="#74B673"/>
<path d="M157.93 199.379C155.36 199.519 154.2 202.139 151.26 201.219C151.02 201.139 147.62 199.179 147.12 198.919C145.9 198.269 146.71 195.369 143.21 197.539C143.98 196.469 145.33 195.379 145.51 195.009C146.28 193.449 144.05 189.659 148.27 189.259C150.98 192.129 156.26 195.939 157.93 199.379Z" fill="#9BC972"/>
<path d="M158.85 229.749L158.39 229.289H158.85C158.85 229.439 158.85 229.599 158.85 229.749Z" fill="#FEFFFE"/>
<path d="M151.94 229.749C151.13 230.439 148.27 232.849 148.03 232.969C147.35 233.319 144.44 232.869 143.2 234.349C143.11 227.609 143.64 220.279 143.2 213.639C147.51 213.519 143.57 215.399 144.81 217.779C147.33 218.739 149.34 215.109 149.87 215.019C150.16 214.969 150.81 217.619 151.02 218.009C151.28 218.489 152.16 217.989 152.4 218.469C153.19 220.029 150.94 227.609 151.94 229.739V229.749Z" fill="#4C9563"/>
<path d="M156.09 209.039C156.62 213.099 157.24 217.079 156.55 221.229C156.53 221.339 155.31 222.539 155.17 223.069C155.03 223.599 155.67 226.149 155.17 227.209C155.08 227.409 152.49 229.279 151.95 229.739C150.95 227.599 153.2 220.019 152.41 218.469C152.17 217.989 151.29 218.489 151.03 218.009C150.82 217.619 150.17 214.969 149.88 215.019C149.34 215.109 147.33 218.739 144.82 217.779C143.58 215.399 147.52 213.509 143.21 213.639C143.18 213.189 143.25 212.709 143.21 212.259C147.28 214.349 150.77 206.839 151.72 206.739C153.28 206.569 153.44 208.539 153.56 208.579C154.43 208.869 154.86 207.979 155.4 208.119C155.79 208.219 155.35 208.909 156.09 209.039Z" fill="#4C9563"/>
<path d="M514.202 193.108H517.012L583.048 32H645.57V271.789H596.396V115.715H594.404L532.35 270.618H498.863L436.809 115.13H434.818V271.789H385.643V32H448.166L514.202 193.108ZM848.917 73.7988H738.038V130.937H840.604V172.735H738.038V229.99H849.386V271.789H687.341V32H848.917V73.7988ZM1107 271.789H1052.67L1034.92 217.11H948.343L930.555 271.789H876.228L959.007 32H1024.34L1107 271.789ZM961.217 177.536H1022.07L992.609 86.7949H990.736L961.217 177.536Z" fill="#4D4C4C"/>
<path d="M403.121 344H389.371V305.212H403.235C407.136 305.212 410.495 305.989 413.311 307.542C416.126 309.082 418.292 311.298 419.807 314.189C421.335 317.081 422.098 320.54 422.098 324.568C422.098 328.609 421.335 332.081 419.807 334.985C418.292 337.889 416.114 340.117 413.273 341.67C410.444 343.223 407.061 344 403.121 344ZM397.572 336.973H402.78C405.205 336.973 407.244 336.544 408.898 335.686C410.564 334.814 411.814 333.47 412.648 331.652C413.494 329.821 413.917 327.46 413.917 324.568C413.917 321.702 413.494 319.36 412.648 317.542C411.814 315.723 410.571 314.385 408.917 313.527C407.263 312.668 405.223 312.239 402.799 312.239H397.572V336.973ZM436.374 305.212V344H428.173V305.212H436.374ZM468.841 317.75C468.576 316.828 468.203 316.014 467.723 315.307C467.244 314.587 466.657 313.981 465.962 313.489C465.28 312.984 464.497 312.598 463.614 312.333C462.742 312.068 461.777 311.936 460.716 311.936C458.734 311.936 456.991 312.428 455.489 313.413C453.999 314.398 452.837 315.831 452.004 317.712C451.17 319.581 450.754 321.866 450.754 324.568C450.754 327.27 451.164 329.568 451.985 331.462C452.806 333.356 453.967 334.802 455.47 335.799C456.972 336.784 458.746 337.277 460.792 337.277C462.648 337.277 464.232 336.948 465.545 336.292C466.871 335.622 467.881 334.682 468.576 333.47C469.283 332.258 469.636 330.824 469.636 329.17L471.303 329.417H461.303V323.242H477.534V328.129C477.534 331.538 476.814 334.467 475.375 336.917C473.936 339.354 471.953 341.235 469.428 342.561C466.903 343.874 464.011 344.53 460.754 344.53C457.117 344.53 453.923 343.729 451.17 342.125C448.418 340.509 446.271 338.217 444.731 335.25C443.203 332.27 442.439 328.735 442.439 324.644C442.439 321.5 442.894 318.697 443.803 316.235C444.725 313.76 446.013 311.664 447.667 309.947C449.321 308.23 451.246 306.923 453.443 306.027C455.64 305.13 458.02 304.682 460.583 304.682C462.78 304.682 464.826 305.004 466.72 305.648C468.614 306.279 470.293 307.176 471.758 308.337C473.235 309.499 474.441 310.881 475.375 312.485C476.309 314.076 476.909 315.831 477.174 317.75H468.841ZM491.895 305.212V344H483.694V305.212H491.895ZM497.165 311.973V305.212H529.021V311.973H517.146V344H509.04V311.973H497.165ZM536.213 344H527.425L540.815 305.212H551.384L564.755 344H555.967L546.251 314.076H545.948L536.213 344ZM535.664 328.754H556.421V335.155H535.664V328.754ZM569.423 344V305.212H577.624V337.239H594.253V344H569.423ZM610.55 311.973V305.212H642.406V311.973H630.531V344H622.425V311.973H610.55ZM647.652 344V305.212H662.955C665.885 305.212 668.385 305.736 670.455 306.784C672.539 307.819 674.123 309.29 675.209 311.197C676.308 313.091 676.857 315.319 676.857 317.883C676.857 320.458 676.301 322.674 675.19 324.53C674.079 326.374 672.469 327.788 670.361 328.773C668.265 329.758 665.727 330.25 662.747 330.25H652.501V323.659H661.421C662.987 323.659 664.288 323.444 665.323 323.015C666.358 322.586 667.128 321.942 667.634 321.083C668.151 320.225 668.41 319.158 668.41 317.883C668.41 316.595 668.151 315.509 667.634 314.625C667.128 313.741 666.352 313.072 665.304 312.617C664.269 312.15 662.962 311.917 661.384 311.917H655.853V344H647.652ZM668.599 326.348L678.24 344H669.187L659.755 326.348H668.599ZM689.338 344H680.55L693.94 305.212H704.509L717.88 344H709.092L699.376 314.076H699.073L689.338 344ZM688.789 328.754H709.546V335.155H688.789V328.754ZM754.991 305.212V344H747.908L731.033 319.587H730.749V344H722.548V305.212H729.745L746.488 329.606H746.829V305.212H754.991ZM782.809 316.367C782.657 314.84 782.007 313.653 780.858 312.807C779.709 311.961 778.15 311.538 776.18 311.538C774.842 311.538 773.712 311.727 772.79 312.106C771.868 312.472 771.161 312.984 770.669 313.64C770.189 314.297 769.949 315.042 769.949 315.875C769.924 316.569 770.069 317.176 770.384 317.693C770.713 318.211 771.161 318.659 771.729 319.038C772.297 319.404 772.954 319.726 773.699 320.004C774.444 320.269 775.239 320.496 776.085 320.686L779.57 321.519C781.262 321.898 782.815 322.403 784.229 323.034C785.643 323.665 786.868 324.442 787.903 325.364C788.939 326.285 789.741 327.371 790.309 328.621C790.89 329.871 791.186 331.304 791.199 332.92C791.186 335.294 790.58 337.352 789.381 339.095C788.194 340.824 786.477 342.169 784.229 343.129C781.994 344.076 779.299 344.549 776.142 344.549C773.011 344.549 770.283 344.069 767.96 343.11C765.65 342.15 763.844 340.73 762.544 338.848C761.256 336.955 760.58 334.612 760.517 331.822H768.453C768.541 333.122 768.914 334.208 769.57 335.08C770.239 335.938 771.129 336.588 772.241 337.03C773.364 337.46 774.633 337.674 776.047 337.674C777.436 337.674 778.642 337.472 779.665 337.068C780.7 336.664 781.502 336.102 782.07 335.383C782.638 334.663 782.922 333.836 782.922 332.902C782.922 332.03 782.664 331.298 782.146 330.705C781.641 330.111 780.896 329.606 779.911 329.189C778.939 328.773 777.746 328.394 776.331 328.053L772.108 326.992C768.838 326.197 766.256 324.953 764.362 323.261C762.468 321.569 761.527 319.29 761.54 316.424C761.527 314.076 762.152 312.024 763.415 310.269C764.69 308.514 766.439 307.144 768.661 306.159C770.883 305.174 773.408 304.682 776.237 304.682C779.116 304.682 781.628 305.174 783.775 306.159C785.934 307.144 787.613 308.514 788.813 310.269C790.012 312.024 790.631 314.057 790.669 316.367H782.809ZM796.715 344V305.212H822.397V311.973H804.916V321.216H820.692V327.977H804.916V344H796.715ZM863.557 324.606C863.557 328.836 862.755 332.434 861.152 335.402C859.561 338.369 857.389 340.635 854.636 342.201C851.896 343.754 848.816 344.53 845.394 344.53C841.947 344.53 838.854 343.747 836.114 342.182C833.374 340.616 831.208 338.35 829.617 335.383C828.027 332.415 827.231 328.823 827.231 324.606C827.231 320.376 828.027 316.778 829.617 313.811C831.208 310.843 833.374 308.583 836.114 307.03C838.854 305.465 841.947 304.682 845.394 304.682C848.816 304.682 851.896 305.465 854.636 307.03C857.389 308.583 859.561 310.843 861.152 313.811C862.755 316.778 863.557 320.376 863.557 324.606ZM855.242 324.606C855.242 321.866 854.832 319.556 854.011 317.674C853.203 315.793 852.061 314.366 850.583 313.394C849.106 312.422 847.376 311.936 845.394 311.936C843.412 311.936 841.682 312.422 840.205 313.394C838.727 314.366 837.578 315.793 836.758 317.674C835.95 319.556 835.545 321.866 835.545 324.606C835.545 327.346 835.95 329.657 836.758 331.538C837.578 333.419 838.727 334.846 840.205 335.818C841.682 336.79 843.412 337.277 845.394 337.277C847.376 337.277 849.106 336.79 850.583 335.818C852.061 334.846 853.203 333.419 854.011 331.538C854.832 329.657 855.242 327.346 855.242 324.606ZM869.632 344V305.212H884.935C887.864 305.212 890.364 305.736 892.435 306.784C894.518 307.819 896.103 309.29 897.188 311.197C898.287 313.091 898.836 315.319 898.836 317.883C898.836 320.458 898.281 322.674 897.17 324.53C896.058 326.374 894.449 327.788 892.34 328.773C890.244 329.758 887.706 330.25 884.726 330.25H874.48V323.659H883.401C884.966 323.659 886.267 323.444 887.302 323.015C888.337 322.586 889.108 321.942 889.613 321.083C890.13 320.225 890.389 319.158 890.389 317.883C890.389 316.595 890.13 315.509 889.613 314.625C889.108 313.741 888.331 313.072 887.283 312.617C886.248 312.15 884.941 311.917 883.363 311.917H877.832V344H869.632ZM890.579 326.348L900.219 344H891.166L881.734 326.348H890.579ZM904.632 305.212H914.745L925.427 331.273H925.882L936.563 305.212H946.677V344H938.723V318.754H938.401L928.363 343.811H922.946L912.908 318.659H912.586V344H904.632V305.212ZM960.119 344H951.331L964.722 305.212H975.29L988.661 344H979.873L970.157 314.076H969.854L960.119 344ZM959.57 328.754H980.328V335.155H959.57V328.754ZM987.113 311.973V305.212H1018.97V311.973H1007.09V344H998.988V311.973H987.113ZM1032.42 305.212V344H1024.21V305.212H1032.42ZM1074.81 324.606C1074.81 328.836 1074.01 332.434 1072.4 335.402C1070.81 338.369 1068.64 340.635 1065.89 342.201C1063.15 343.754 1060.07 344.53 1056.64 344.53C1053.2 344.53 1050.1 343.747 1047.36 342.182C1044.62 340.616 1042.46 338.35 1040.87 335.383C1039.28 332.415 1038.48 328.823 1038.48 324.606C1038.48 320.376 1039.28 316.778 1040.87 313.811C1042.46 310.843 1044.62 308.583 1047.36 307.03C1050.1 305.465 1053.2 304.682 1056.64 304.682C1060.07 304.682 1063.15 305.465 1065.89 307.03C1068.64 308.583 1070.81 310.843 1072.4 313.811C1074.01 316.778 1074.81 320.376 1074.81 324.606ZM1066.49 324.606C1066.49 321.866 1066.08 319.556 1065.26 317.674C1064.45 315.793 1063.31 314.366 1061.83 313.394C1060.36 312.422 1058.63 311.936 1056.64 311.936C1054.66 311.936 1052.93 312.422 1051.45 313.394C1049.98 314.366 1048.83 315.793 1048.01 317.674C1047.2 319.556 1046.8 321.866 1046.8 324.606C1046.8 327.346 1047.2 329.657 1048.01 331.538C1048.83 333.419 1049.98 334.846 1051.45 335.818C1052.93 336.79 1054.66 337.277 1056.64 337.277C1058.63 337.277 1060.36 336.79 1061.83 335.818C1063.31 334.846 1064.45 333.419 1065.26 331.538C1066.08 329.657 1066.49 327.346 1066.49 324.606ZM1113.32 305.212V344H1106.24L1089.37 319.587H1089.08V344H1080.88V305.212H1088.08L1104.82 329.606H1105.16V305.212H1113.32Z" fill="#4D4C4C"/>
<defs>
<linearGradient id="paint0_linear_58_222" x1="139.82" y1="277.939" x2="143.63" y2="295.469" gradientUnits="userSpaceOnUse">
<stop stop-color="#63ACAB"/>
<stop offset="1" stop-color="#72B6C8"/>
</linearGradient>
<linearGradient id="paint1_linear_58_222" x1="253.02" y1="69.7888" x2="252.46" y2="130.519" gradientUnits="userSpaceOnUse">
<stop stop-color="#EAADBB"/>
<stop offset="1" stop-color="#F18DA1"/>
</linearGradient>
<linearGradient id="paint2_linear_58_222" x1="94.7" y1="54.8186" x2="192.56" y2="157.329" gradientUnits="userSpaceOnUse">
<stop stop-color="#F46411"/>
<stop offset="0.72" stop-color="#F8991B"/>
<stop offset="1" stop-color="#F4CC49"/>
</linearGradient>
<linearGradient id="paint3_linear_58_222" x1="227.89" y1="146.339" x2="227.18" y2="242.039" gradientUnits="userSpaceOnUse">
<stop stop-color="#E3E08A"/>
<stop offset="1" stop-color="#6AAD6F"/>
</linearGradient>
<linearGradient id="paint4_linear_58_222" x1="70.66" y1="159.149" x2="92.55" y2="237.119" gradientUnits="userSpaceOnUse">
<stop stop-color="#458F42"/>
<stop offset="1" stop-color="#287D57"/>
</linearGradient>
<linearGradient id="paint5_linear_58_222" x1="112.4" y1="162.109" x2="136.95" y2="194.309" gradientUnits="userSpaceOnUse">
<stop stop-color="#DEDB6C"/>
<stop offset="1" stop-color="#C0D77F"/>
</linearGradient>
</defs>
</svg>
