<?xml version="1.0" encoding="UTF-8"?>
<svg id="Layer_1" data-name="Layer 1" xmlns="http://www.w3.org/2000/svg" xmlns:xlink="http://www.w3.org/1999/xlink" viewBox="0 0 512 512">
  <defs>
    <style>
      .cls-1 {
        fill: #227665;
      }

      .cls-2 {
        fill: #2a7fa7;
      }

      .cls-3 {
        fill: #cbdce9;
      }

      .cls-4 {
        fill: #12476a;
      }

      .cls-5 {
        fill: #c33052;
      }

      .cls-6 {
        fill: url(#linear-gradient-5);
      }

      .cls-7 {
        fill: url(#linear-gradient-6);
      }

      .cls-8 {
        fill: url(#linear-gradient-4);
      }

      .cls-9 {
        fill: url(#linear-gradient-3);
      }

      .cls-10 {
        fill: url(#linear-gradient-2);
      }

      .cls-11 {
        fill: #f4a7bc;
      }

      .cls-12 {
        fill: #e97f98;
      }

      .cls-13 {
        fill: #c2cc3b;
      }

      .cls-14 {
        fill: url(#linear-gradient);
      }

      .cls-15 {
        fill: #9bc972;
      }

      .cls-16 {
        fill: #cfdd8e;
      }

      .cls-17 {
        fill: #d9cc81;
      }

      .cls-18 {
        fill: #fefffe;
      }

      .cls-19 {
        fill: #32869f;
      }

      .cls-20 {
        fill: #4c9563;
      }

      .cls-21 {
        fill: #36898c;
      }

      .cls-22 {
        fill: #33825b;
      }

      .cls-23 {
        fill: #f1b75e;
      }

      .cls-24 {
        fill: #5da46f;
      }

      .cls-25 {
        fill: #8bb232;
      }

      .cls-26 {
        fill: #195c8a;
      }

      .cls-27 {
        fill: #66aec8;
      }

      .cls-28 {
        fill: #f56e13;
      }

      .cls-29 {
        fill: #e15875;
      }

      .cls-30 {
        fill: #18634f;
      }

      .cls-31 {
        fill: #4c9aad;
      }

      .cls-32 {
        fill: #d2d6e2;
      }

      .cls-33 {
        fill: #d54262;
      }

      .cls-34 {
        fill: #a0b7d0;
      }

      .cls-35 {
        fill: #f8a756;
      }

      .cls-36 {
        fill: #286f9c;
      }

      .cls-37 {
        fill: #186a62;
      }

      .cls-38 {
        fill: #7fbe94;
      }

      .cls-39 {
        fill: #f9b733;
      }

      .cls-40 {
        fill: #f1c95f;
      }

      .cls-41 {
        fill: #a5d2bb;
      }

      .cls-42 {
        fill: #899fc1;
      }

      .cls-43 {
        fill: #5ca150;
      }

      .cls-44 {
        fill: #74b673;
      }

      .cls-45 {
        fill: #a1cfe0;
      }

      .cls-46 {
        fill: #f9942f;
      }

      .cls-47 {
        fill: #768eb9;
      }

      .cls-48 {
        fill: #4997b9;
      }
    </style>
    <linearGradient id="linear-gradient" x1="212.02" y1="378.65" x2="216.82" y2="400.74" gradientUnits="userSpaceOnUse">
      <stop offset="0" stop-color="#63acab"/>
      <stop offset="1" stop-color="#72b6c8"/>
    </linearGradient>
    <linearGradient id="linear-gradient-2" x1="354.66" y1="116.38" x2="353.95" y2="192.9" gradientUnits="userSpaceOnUse">
      <stop offset="0" stop-color="#eaadbb"/>
      <stop offset="1" stop-color="#f18da1"/>
    </linearGradient>
    <linearGradient id="linear-gradient-3" x1="155.16" y1="97.52" x2="278.47" y2="226.68" gradientUnits="userSpaceOnUse">
      <stop offset="0" stop-color="#f46411"/>
      <stop offset=".72" stop-color="#f8991b"/>
      <stop offset="1" stop-color="#f4cc49"/>
    </linearGradient>
    <linearGradient id="linear-gradient-4" x1="322.99" y1="212.83" x2="322.09" y2="333.42" gradientUnits="userSpaceOnUse">
      <stop offset="0" stop-color="#e3e08a"/>
      <stop offset="1" stop-color="#6aad6f"/>
    </linearGradient>
    <linearGradient id="linear-gradient-5" x1="124.87" y1="228.98" x2="152.46" y2="327.22" gradientUnits="userSpaceOnUse">
      <stop offset="0" stop-color="#458f42"/>
      <stop offset="1" stop-color="#287d57"/>
    </linearGradient>
    <linearGradient id="linear-gradient-6" x1="177.46" y1="232.71" x2="208.4" y2="273.28" gradientUnits="userSpaceOnUse">
      <stop offset="0" stop-color="#dedb6c"/>
      <stop offset="1" stop-color="#c0d77f"/>
    </linearGradient>
  </defs>
  <g id="Generative_Object" data-name="Generative Object">
    <path class="cls-14" d="M236.57,368.37c-.06,5.32.92,26.95-.58,30.15-.73-1.02-7.49-1.96-7.83-1.74-.59.38.14,2.45-1.16,2.9-.47.16-1.79-1.09-2.9-.58-2.77,1.27-2.77,5.58-8.99,6.38-.45.06-3.21-.98-4.93-.58-3.02.71-3.41,6.26-4.35,7.25-.27.29-6.11,2.68-6.96,3.77-3.35-11.19-14.7-23.92-11.02-35.37l.87,4.06c3.67-1.56,9.24-2.75,12.76-5.22.72-.51-.14-2.39.58-2.9.23-.16,4.45-.19,5.51-1.16.51,3.05,2.1,5.28,5.51,4.64,3.77-.72,3-5.58,3.19-8.12,7.95,1.23,12.41-5.21,20.29-3.48Z"/>
    <path class="cls-11" d="M382.38,390.41c4.55-1.06,6.98,2.47,7.25,6.67.47,7.39-19.44,45.15-24.93,51.02-6.27,6.71-16.3,7.65-17.39-2.9-.39-3.73,3.6-23.53,5.22-27.25,3.99-9.15,12.22-11.25,18.84-16.52,2.64-2.1,8.43-10.41,11.02-11.02Z"/>
    <path class="cls-38" d="M207.58,320.25c.39,15.56-2.32,41.09,0,55.08-1.06.97-5.28,1-5.51,1.16-.72.51.14,2.39-.58,2.9-3.51,2.47-9.09,3.66-12.76,5.22l-.87-4.06c1.51-4.7,5.82-8.36,6.96-13.05,5.83-24.04-19.88-36.37-17.97-53.63l5.51,6.38h25.22Z"/>
    <path class="cls-39" d="M117.42,62.25c.99-.33,19.87-.31,20.87,0,3.94,1.21,3.66,22.79.58,24.35-2.55,1.29-21.41,1.35-22.9-1.45-1.29-2.43-1.36-21.95,1.45-22.9Z"/>
    <path class="cls-39" d="M60.6,79.06c.94-.28,18.77-.28,19.71,0,4.75,1.41,4.4,23.74.58,24.93-2.3.72-21.24.28-22.32-1.45-1.42-2.27-1.56-22.42,2.03-23.48Z"/>
    <path class="cls-39" d="M43.79,131.82c1.15-.31,18.59.21,19.71.58,3.12,1.02,2.77,22.4.58,23.77s-22.36,1.54-23.48-2.03c-.3-.94-.3-18.77,0-19.71.15-.47,2.64-2.46,3.19-2.61Z"/>
    <path class="cls-40" d="M88.43,115.59c2.18-.71,17.41-.5,18.26,2.03.32.93.31,18.78,0,19.71-1.05,3.21-19.47,2.71-20.29.58s-.5-21.49,2.03-22.32Z"/>
    <path class="cls-2" d="M230.77,406.64c-.23,2.31.38,6.21,1.74,8.12-4.14-1.19-5.4,3-7.83,4.64-.39.26-3.64.11-4.06.58-1.26,1.4.33,6.1-1.16,6.96-2.88,1.65-9-4.83-11.89,5.22-3.01,1.08-.35-3.56-5.8,0-.87-3.39-.85-7.04-1.74-10.44,8.43-.11,4.41-6.14,4.64-6.67.19-.44,6.65-5.32,7.54-6.09,3.13,2.68,3.36-.45,4.35-.58,3.21-.42,6.71.34,10.44-.58.23-.06,2.44-3.21,3.77-1.16Z"/>
    <path class="cls-40" d="M89.59,28.62c2.22-.59,16.46.37,17.1,2.03-.68,3.77,1.73,17.61-2.03,18.84-.74.24-14.91.24-15.65,0-2.82-.92-3.69-19.74.58-20.87Z"/>
    <path class="cls-36" d="M207.58,432.15c-.08.27-.7,5.26-.58,5.51.48,1.04,2.72.73,3.48,2.32.87,1.83-3.47,3.99,3.48,6.38l1.74,8.7c.82,1.94,7.32,1.42,1.16,5.8l6.96,4.06c-3.93,5.56-5.55-.73-9.86,1.45-3.95-11.47-9.18-22.56-12.18-34.21,5.45-3.56,2.78,1.08,5.8,0Z"/>
    <path class="cls-27" d="M215.12,405.48c-1.21.84-1.92,2.64-2.9,3.48-.89.77-7.34,5.64-7.54,6.09-.23.53,3.79,6.56-4.64,6.67-.49-1.89-.64-4.06-1.16-5.8.84-1.09,6.68-3.48,6.96-3.77.94-.99,1.33-6.54,4.35-7.25,1.71-.4,4.47.64,4.93.58Z"/>
    <path class="cls-3" d="M256.86,69.21c1.79,6.72-2.91,5.74-3.48,6.67-1.48,2.4.53,8.01-6.96,7.83-1.15-8.54,3.58-11.41,10.44-14.49Z"/>
    <path class="cls-24" d="M205.84,288.94c-1.38,1.19-3.56-1.7-3.77-1.74-2.07-.35-4.77.76-5.8.58-.67-.12-.92-1.71-1.16-1.74-1.19-.15-2.85,1.95-5.51-.58-1.51-3.08-.39-4.29-2.9-5.22,1.99-2.32-.05-3.42,0-4.35s1.75-2.73,1.74-2.9c-.05-.61-7.52-7.43-8.7-8.7-1.02-1.11-4.65-4.51-4.06-6.09,4.86,4.37,28.37,26.6,30.15,30.73Z"/>
    <path class="cls-20" d="M205.84,288.94c1.15,2.67.94,4.26,1.16,6.96-.78-3.63-2.38-1.65-4.93-2.9-.86-.42-.94-2.03-1.74-2.32-.7-.26-6.52.38-8.12-.58-.63-.38-2.2-3.81-2.61-4.64,2.66,2.53,4.32.43,5.51.58.24.03.49,1.62,1.16,1.74,1.03.18,3.72-.93,5.8-.58.2.03,2.39,2.93,3.77,1.74Z"/>
    <path class="cls-31" d="M235.99,398.52c-1.13,2.41-4.7,2.84-5.22,8.12-1.33-2.05-3.54,1.1-3.77,1.16-3.73.92-7.22.16-10.44.58-.99.13-1.21,3.26-4.35.58.98-.84,1.69-2.64,2.9-3.48,6.22-.8,6.22-5.1,8.99-6.38,1.11-.51,2.43.74,2.9.58,1.3-.45.56-2.52,1.16-2.9.34-.22,7.1.71,7.83,1.74Z"/>
    <g>
      <g>
        <path class="cls-34" d="M469.06,185.16c-4.85-1.04-7.75,8.64-11.89,9.86-5,1.47-5.05-2.05-5.8-2.32-1.42-.5-4.82.67-5.22.58-1.39-.33-5.22-5.94-6.09,0-2.79-2.15-4.48-5.63-7.54-7.54,4.55-1.43-2.93-8.81-4.35-9.28s-7.28,2.07-11.6,0c-.64-.31-1.84-3.42-4.06-4.06-.1-.03-1.51,1.12-1.74,1.16-.37.07-.23-1.28-.58-1.16-.84.29-.88,1.97-1.74,2.32-2.93,1.2-3.62-1.96-5.51,1.74-5.49-5.54-13.91-21.46-22.03-22.03.98-5.87-6.3-4.95-10.44-5.22,1.18-2.75-3.34-4.63-3.48-4.93-.76-1.62.1-5.67-1.74-7.83.25-.06,4.52-1.81,4.64-2.03.93-1.73-.3-11.38-1.16-13.33-.42-.95-1.42.57-1.74,0-.94-1.68-.29-3.49-2.03-5.51-2.17-2.53-7.27-.99-7.83-4.64,5.77-4.62,3.03.81,6.09.58.32-.02,4.69-3.36,4.35-4.64,6.23,5.78,16.11,10.46,24.64,6.96,2.89-1.19,5.66-6.19,8.7-7.54,9.36-4.15,29.31,7.2,35.08,14.78,8.01,10.54,5.19,28.5,12.18,40,5.7,9.38,22.36,10.19,20.87,24.06Z"/>
        <path class="cls-29" d="M395.43,190.96c8.7,12.19,19.88,15.21,30.44,2.9,4.02,3.86,6.54,9.04,10.73,12.76-.13,1.88-3.03,8.79-2.9,9.57.2,1.24,3.4,2.72,4.64,4.93-2.45,1.64-5.95,7.5-7.25,8.7-.63.58-1.67-.64-1.74-.58-1.59,1.44-3.09,5.02-3.48,5.22-.57.29-1.29-1.23-2.61-.29-.59.42.31,8.09-2.9,9.57-2.9,1.75-5.63,3.74-8.7,5.22-2.08,1.01-4.59,1.78-6.67,2.9-.47-.17.78-2.65-.87-4.06,1.51-2.73.82-4.82-.29-7.54l-4.93,3.19c-.49,2.31,1.84,1.75,2.32,2.32.03.04-.84.64-.58.87-1.55,6.92-2.8,10.33-10.73,11.02-.44.04-2.17-1.75-2.32-1.74-2.53.17-5.32,1.2-8.41,1.16,2.74-10.91-.82-5.24-2.32-7.25-.52-.7,1.17-4.74.58-6.38-.23-.65-2.25-1.2-2.9-2.32-.3-.51.29-2.81,0-3.48-.61-1.39-3.49-.56-4.35-1.45-.18-.19-1.65-4.54-2.03-4.93-1.26-1.31-2.48-.74-2.61-.87-.55-.55-1.78-3.94-2.9-4.06s-1.9,1.69-2.32,1.74c-.46.06-1.45-2.77-2.61-.87l1.16,6.67c-3.35-10.36-9.31-13.83-13.33-22.32-6.72-14.17-10.46-25.13-19.71-38.56l3.19-2.9c-1.91,5.78,4.87,3.16,5.8,3.48.64.22,2.33,2.74,2.9,2.9,2.81.76,2.03-1.66,6.38,1.16.05.04.7-.99,1.16-.58,2.55,2.3.87,12.13,1.45,13.62s6.59,2.21,7.83,3.19c.52.41.72,3.29,1.16,3.48.19.08,3.1-1.19,4.06-.58.7.44-.12,1.82.58,2.32.43.3,4.2-.74,5.22-.58.28.04.89,1.12,1.16,1.16.96.13,7.73.71,8.12.58,1.06-.35,2.03-3.24,4.06-2.9.26.04,2.63,2.83,4.64,2.32,1.24-.32,1.8-3.4,2.9-4.06.57-.34,1.69.83,2.9,0,1.8-1.24,3.58-4.14,6.09-4.64Z"/>
        <path class="cls-10" d="M322.38,106.31c.09.02,1.67.52,1.74.58,1.5,1.17,1.51,6.59,4.93,7.54,6.21,1.73,16.29-7.25,24.35-.58,1.72,1.42,4.59,11.39,6.09,14.49-5.24,1.75.88,7.39,1.74,8.99.08.15-.39,3.04,0,3.48.64.72,2.39-.14,2.9.58.23.33-.15,7.46.58,8.12,1.28,1.16,4.63-.37,5.8-.29,4.14.27,11.41-.65,10.44,5.22-1.69-.12-4.4.28-5.22,2.03-4.41,9.41,10.63,19.66,15.65,26.09,1.49,1.9,2.26,5.89,4.06,8.41-2.51.5-4.28,3.4-6.09,4.64-1.21.83-2.33-.34-2.9,0-1.1.66-1.66,3.74-2.9,4.06-2,.51-4.38-2.28-4.64-2.32-2.03-.35-3,2.55-4.06,2.9-.39.13-7.16-.45-8.12-.58-.27-.04-.88-1.11-1.16-1.16-1.02-.16-4.79.88-5.22.58-.7-.49.12-1.88-.58-2.32-.96-.61-3.87.66-4.06.58-.44-.19-.64-3.07-1.16-3.48-1.24-.98-7.23-1.65-7.83-3.19s1.1-11.32-1.45-13.62c-.46-.41-1.11.62-1.16.58-4.35-2.81-3.57-.4-6.38-1.16-.57-.15-2.25-2.67-2.9-2.9-.92-.32-7.71,2.3-5.8-3.48l-3.19,2.9c-2.06-2.99-7.79-9.21-11.02-10.44.9-1.58,1.04-6.89,1.16-7.25.06-.18,2.7-1.43,2.9-2.32.15-.66-1.01-5.99-.58-8.12.45-2.24,3.39-6.96,3.48-9.86.15-4.73-3.04-5.71-3.48-7.25-.63-2.2-.64-8.66-1.16-10.15-.32-.91-2.64-1.97-2.9-2.61-1.08-2.7-1.9-6.5.87-8.12,2.59.89,4.96-1.07,7.25-.58Z"/>
        <path class="cls-34" d="M305.56,81.96c-.66,1.44,1.26,6.34,1.16,6.67-.26.85-2.71,1.24-3.48,2.32-.92,1.3-1.89,4.77-3.19,5.51-2.61,1.48-.91-2.58-3.48-2.32-5.01,5.26-6.31,5.05-.87,11.02-1.57.63-2.3-.39-3.19,0-.53.24-3.41,7.88-5.22-1.16-6.94,5.82-5.72-.72-8.12-.58-.09,4.51-2.76,5.56-4.35,9.28-2.57-.79-4.12-1.91-6.38-2.9-.14-.06-.26-.29-1.16-.58-2.04-2.31-2.72-.55-2.9-.58-.4-.07-.67.69-2.61,0-3.77-1.35-14.82-20.89-15.36-24.93,7.49.18,5.48-5.42,6.96-7.83.57-.93,5.27.05,3.48-6.67,6.76-3.04,17.45-3.15,25.22-.58,9.01,2.98,11.29,13.63,23.48,13.33Z"/>
        <path class="cls-47" d="M367.6,106.89c.34,1.28-4.03,4.61-4.35,4.64-3.05.23-.31-5.2-6.09-.58-1.5,1.2-1.83,2.89-2.03,2.9-.5.01-7.6-5.68-8.12-5.8-1.3-.28-8.98,3.94-9.57-1.45-.06-.51,1.72-.98,1.74-1.16.22-1.79-6.28-.67-7.25-.29s.36,1.42.29,1.45c-3.19,1.47-3.99-2.69-8.12.29-.07-.06-1.65-.56-1.74-.58l-1.74-1.74,1.16-.29c-2.87-.68-.93-2.44-1.16-2.9-.48-.96-3.32-3.1-3.48-3.48-.91-2.16,2.76-7.7-2.9-7.83.5-2.72-.09-6.94,0-9.86,4.74-1.92,10.49-8.45,16.52-9.86,26.89-6.27,22.93,23.65,36.82,36.53Z"/>
        <path class="cls-3" d="M308.46,103.41c.13,0,1.02,1.53,2.03,1.74.09.02.49-.85,1.74-.58.57.12.01,1.61.58,1.74.18.04,2.63-2.28,2.9-2.32.83-.12,3.49,1.74,4.93.58l1.74,1.74c-2.29-.49-4.66,1.47-7.25.58-2.77,1.61-1.95,5.41-.87,8.12-10.03-1.57-23.91,1.31-33.34,0-1.23-.17-4.43-1.81-6.09-2.32,1.59-3.72,4.26-4.76,4.35-9.28,2.4-.14,1.18,6.4,8.12.58,1.81,9.04,4.69,1.4,5.22,1.16.89-.39,1.62.63,3.19,0,1.02-.41,4.03-2.7,4.93-2.32.6.26,1.28,4.32,2.9,4.06.88-.14,1.02-3.75,4.93-3.48Z"/>
        <path class="cls-33" d="M379.19,257.06c-13.25-.15-5.57-2.02-10.73-11.02-.56.72-3.6,3.96-3.77,4.35-.49,1.14,1.28,3.36-.58,3.19-3.3-5.92-3.02-12.93-5.22-19.71l-1.16-6.67c1.16-1.9,2.15.93,2.61.87.42-.05,1.21-1.85,2.32-1.74s2.35,3.51,2.9,4.06c.13.13,1.35-.44,2.61.87.38.39,1.84,4.74,2.03,4.93.85.89,3.74.05,4.35,1.45.29.67-.3,2.97,0,3.48.65,1.12,2.66,1.67,2.9,2.32.59,1.64-1.1,5.68-.58,6.38,1.5,2.01,5.06-3.67,2.32,7.25Z"/>
        <path class="cls-34" d="M314.26,80.22c-.09,2.92.5,7.14,0,9.86-1.44,7.81-7.35,6.13-5.8,13.33-3.91-.27-4.05,3.34-4.93,3.48-1.62.26-2.29-3.8-2.9-4.06-.9-.39-3.9,1.91-4.93,2.32-5.44-5.97-4.14-5.75.87-11.02,2.57-.26.87,3.8,3.48,2.32,1.3-.74,2.27-4.21,3.19-5.51.77-1.08,3.22-1.47,3.48-2.32.1-.32-1.82-5.23-1.16-6.67,1.78-.04,7.06-1.08,8.7-1.74Z"/>
        <path class="cls-42" d="M432.53,185.74c-11.16-6.97-18.11,2.3-29.57-9.28,1.89-3.7,2.57-.54,5.51-1.74.86-.35.9-2.03,1.74-2.32.35-.12.21,1.23.58,1.16.23-.04,1.64-1.19,1.74-1.16,2.22.64,3.41,3.75,4.06,4.06,4.32,2.07,10.12-.49,11.6,0s8.89,7.84,4.35,9.28Z"/>
        <path class="cls-5" d="M379.19,257.06c3.09.04,5.88-.99,8.41-1.16.14,0,1.88,1.78,2.32,1.74,7.93-.69,9.17-4.09,10.73-11.02,1.05.93,3.34,1.04,3.48,1.16,1.65,1.41.4,3.88.87,4.06,2.08-1.12,4.59-1.89,6.67-2.9-8.85,6.41-30.47,14.85-40.87,11.02-2.89-1.06-5.19-3.73-6.67-6.38,1.86.17.09-2.05.58-3.19.17-.39,3.21-3.63,3.77-4.35,5.16,9-2.52,10.86,10.73,11.02Z"/>
        <path class="cls-12" d="M440.07,228.65l-1.74.29c.33-3.88,2.15-4,0-7.83-1.24-2.21-4.43-3.68-4.64-4.93-.13-.78,2.77-7.69,2.9-9.57,10.61,9.41,18.56,6.1,3.48,22.03Z"/>
        <path class="cls-33" d="M440.07,228.65c-6.03,6.37-12.28,10.58-19.71,15.07,3.21-1.48,2.31-9.15,2.9-9.57,1.32-.94,2.04.58,2.61.29.38-.2,1.89-3.78,3.48-5.22.07-.06,1.11,1.16,1.74.58,1.29-1.19,4.8-7.05,7.25-8.7,2.15,3.82.33,3.95,0,7.83l1.74-.29Z"/>
        <path class="cls-42" d="M469.06,185.16c-1.19,11.13-16.61,12.78-25.22,11.02-1.57-.32-2.78-2.13-3.77-2.9.87-5.94,4.7-.33,6.09,0,.4.09,3.8-1.08,5.22-.58.75.26.8,3.79,5.8,2.32,4.14-1.22,7.04-10.89,11.89-9.86Z"/>
        <path class="cls-35" d="M299.76,139.94c1.95-2.71,5.28-.08,8.12,0,5.74.15,4.58-3.35,5.51-3.48,1.92,0,1.73,7.27,1.45,7.83-.52,1.05-1.77-1.14-3.19-.87-.78.15-2.04,1.83-2.9,1.74-.96-.1-5.44-5.06-5.8-5.22-.57-.26-2.34.2-3.19,0Z"/>
        <path class="cls-35" d="M314.84,132.4c.12-.09.26-.72,1.16-1.16,2.76-1.34,4.69-1.36,4.64,2.61,0,.26-1.7,1.43-1.74,1.74-.47,3.39.3,6.47-3.19,8.99-.8-2.29.1-4.96-.29-7.25-.44-2.61-3.33.53-.58-4.93Z"/>
        <path class="cls-18" d="M267.3,109.21c-.66-.21-2.06-.23-2.9-.58.18.03.85-1.73,2.9.58Z"/>
        <path class="cls-18" d="M268.46,109.79c-1.07.29-.85-.23-1.16-.58.9.29,1.02.52,1.16.58Z"/>
        <path class="cls-32" d="M357.16,110.95c.56,3.64,5.65,2.11,7.83,4.64,1.74,2.02,1.09,3.82,2.03,5.51.32.57,1.32-.95,1.74,0,.86,1.95,2.09,11.6,1.16,13.33-.12.22-4.39,1.97-4.64,2.03-.96.23-1.18,1.28-2.32-.29.9-3.78-2.68-6.16-3.48-7.83-1.49-3.11-4.37-13.07-6.09-14.49-8.06-6.67-18.15,2.31-24.35.58-3.41-.95-3.43-6.37-4.93-7.54,4.12-2.98,4.93,1.18,8.12-.29.07-.03-1.28-1.06-.29-1.45s7.46-1.5,7.25.29c-.02.18-1.79.65-1.74,1.16.59,5.39,8.27,1.17,9.57,1.45.52.11,7.62,5.81,8.12,5.8.2,0,.53-1.7,2.03-2.9Z"/>
        <path class="cls-11" d="M359.48,128.34c.8,1.67,4.38,4.05,3.48,7.83,1.14,1.57,1.36.52,2.32.29,1.84,2.16.98,6.2,1.74,7.83.14.29,4.66,2.18,3.48,4.93-1.16-.08-4.51,1.45-5.8.29-.73-.66-.35-7.78-.58-8.12-.51-.72-2.25.14-2.9-.58-.39-.44.08-3.33,0-3.48-.85-1.59-6.98-7.24-1.74-8.99Z"/>
        <path class="cls-29" d="M404.12,247.78c-.14-.12-2.43-.23-3.48-1.16-.26-.23.61-.83.58-.87-.48-.57-2.81,0-2.32-2.32l4.93-3.19c1.11,2.72,1.8,4.81.29,7.54Z"/>
        <path class="cls-47" d="M320.64,104.57c-1.44,1.16-4.1-.7-4.93-.58-.27.04-2.72,2.36-2.9,2.32-.57-.13-.01-1.62-.58-1.74-1.25-.27-1.65.6-1.74.58-1.01-.21-1.9-1.73-2.03-1.74-1.55-7.2,4.36-5.52,5.8-13.33,5.66.13,1.99,5.67,2.9,7.83.16.38,3,2.52,3.48,3.48.23.46-1.71,2.22,1.16,2.9l-1.16.29Z"/>
      </g>
      <g>
        <path class="cls-9" d="M227.29,131.24c2.26-.25,9.63.95,11.89.58,4.26-.7,8.48-4.38,13.62-5.22-.66,3.91-7.13,7.6-6.38,11.31.33,1.63,3.61,3.26,4.64,4.64.38.51-.62,1.11-.58,1.16,1.35,1.65,9.09,8.09,10.73,8.41,2.82.55,6.36-1.33,7.54-1.16s4.16,1.89,5.8,2.32c3.62.96,4.84-1.73,7.83,3.19.3.49-1.24,2.19,3.19,4.93,3.97,2.46,12.99,2.18,15.65,5.22,3.16,3.61,9.76,24.31,13.62,30.73l-.58,1.16c-.28-.26-1.99-1.71-2.32-.87,3.19,5.51-.03,3.97-.29,4.35-1.77,2.58-5.78,9.13-8.7,10.44-3.97,1.78-6.45-1.81-11.31,3.19-.34.35,1.14,2.37-2.61,3.77-6.61,2.47-14.81-1.93-20.29,1.16-1.25.71-3.85,4.56-5.22,4.64-1.65.1-2.01-1.69-2.9-1.74-.38-.02-.8,1.14-.87,1.16-3.47.98-4.38,1.33-5.22,5.22-1.13-.3-4.7-1.06-4.93-1.16-2.89-1.28-1.45-4.86-8.41.58-11.07-11.4-54.7-58.35-64.65-63.78-13.05-7.12-30.49.23-40.58-5.8-9.45-5.64-18.94-19.66-20-30.73,3.74.09,1.81-8.52,5.51-9.28,2.64-.54,13.02,5.79,15.65,6.38,1.08.24,9.32-.32,9.86,0,.37.22,3.36,7.43,3.77,7.83,2.52,2.44,18.11.45,21.16,2.61,1.03.73,2.59,6.68,2.9,6.96,1.16,1.03,6.83.78,8.12,1.16.52.16,2.6,2.03,4.06,2.32,6.74,1.33,4.62-5.95,5.22-6.38s5.82.45,6.96,0c1.5-.59,1.31-3.63,1.45-3.77,6.98-6.89,12.36-1.08,19.42-2.61,1.16-.25,2.89-2.41,7.25-2.9Z"/>
        <path class="cls-8" d="M314.26,198.5c3.09,2.88,5.42,10.88,8.12,13.62,1.41,1.44,2.65-1.03,3.48,2.03-1.01.14-1.12-.46-3.48,0-.51.1-.78-.88-1.45-.58-1,.93-.57,8.49-.29,10.15.1.61,1.6,6.05,1.74,6.38.2.47,4.57,6.99,4.93,7.25,1.47,1.07,2.35-.06,2.61,0,2.71.66,3.84,1.52,6.38,0,1.42,1.63,2.17,2.67,4.06,1.74,1.61,2.16,5.59,4.8,7.54,7.25,14.75,18.46,17.95,33.34,44.93,29.28,1.69-.25,7.46-2.98,8.7-2.9,6.67.44-1.06,18.72-3.19,22.32-4.08,6.91-10.48,11.77-16.23,17.1-6.96-1.3-3.45-5.09-.58-8.99-2.48.67-2.44-1.48-3.77-1.45-2.41.05-6.22,3.54-8.12,4.06-3.4.93-6.69-.74-8.12-.58-1.53.17-2.32,2.8-3.48,3.48-.56.33-3.19.41-3.48.58-1.73,1.03-2.33,3.6-4.06,4.64-.15.09-1.7-1.42-3.48,0-.7.56.96,1.33-1.16,2.9-.26.19-3.88-.21-4.35,2.32-2.91,1.06-2.99,2.54-6.96,3.48-8.61,2.05-2.74-1.47-8.7-5.22,19.49-23.48-26.08-33.66-21.45-7.25.9,5.1,7.89,8.69,8.12,9.28.51,1.3-.07,11.65,0,14.2-5.11-1.46-9.25,4.12-13.91,5.22.71-.48,2.95-2.06,2.32-3.19-3.22,1.27-3.35-1.91-4.35-2.03-2.1-.25-2.39,4.83-3.48,5.22-.48.17-3.28-1.96-5.22-1.16-2.91,1.2-2.44,3.34-2.61,3.48-3.2-.99-5.96-2.12-9.28-1.16-.44-19.45,1.07-39.88,0-59.14,5.01,1.04,4.86-11.82,6.67-12.76,1.94-1,4.42.65,4.64.58,2.15-.69,5.57-3.95,8.99-3.77-1.98-3.68-4.5-.8-4.93-.87-.33-.05-1.48-1.74-1.74-1.74-10.71-.12-5.86,7.08-14.2,8.7-1.9-11.6-25.01-32.27-34.21-41.74,6.96-5.44,5.52-1.86,8.41-.58.23.1,3.8.86,4.93,1.16,3.51.94,5,2.54,6.38-2.61.35-1.32,1.33-3.04-1.16-2.61.07-.02.49-1.18.87-1.16.89.05,1.25,1.84,2.9,1.74,1.37-.08,3.96-3.93,5.22-4.64,5.48-3.09,13.68,1.31,20.29-1.16,3.75-1.4,2.27-3.42,2.61-3.77,4.86-5,7.33-1.41,11.31-3.19,2.91-1.31,6.93-7.86,8.7-10.44.26-.38,3.48,1.17.29-4.35.33-.84,2.04.61,2.32.87Z"/>
        <path class="cls-26" d="M281.21,392.14c.08,5.53-3.24,27.81,3.19,28.99,4.37.8,5.61-2.89,6.09-6.38,4.09,1.15,6.68-5.83,9.57-5.22,1.99.42-.78,2.24,5.51,2.9.07,0,.51,1.22.87,1.16,2.11-.37,2.72-2.26,2.9-2.32,7.31-2.51,14.03-5.63,20.29-10.44l2.61,2.32c-.5.65-2.17,2.75-2.32,2.9-3.86,3.7-9.96,4.81-14.2,8.12-13.99,10.9-1.7,15.25-7.83,24.64-3.88,5.94-12.85,7.64-16.81,12.76-2.01,2.6-3.82,8.3-6.38,11.6-11.85,15.29-37.94,22.14-56.53,20-10.83-1.24-11.18-8.03-14.2-16.81,4.31-2.18,5.93,4.11,9.86-1.45l-6.96-4.06c6.16-4.38-.34-3.85-1.16-5.8l-1.74-8.7c-6.95-2.38-2.61-4.55-3.48-6.38-.76-1.59-3-1.28-3.48-2.32-.12-.25.5-5.24.58-5.51,2.89-10.04,9.01-3.57,11.89-5.22,1.49-.86-.1-5.56,1.16-6.96.42-.47,3.67-.32,4.06-.58,2.43-1.63,3.69-5.83,7.83-4.64,6.44,9.03,25.33,1.48,16.81-13.91-.16-3.45,7.07-4.51,9.28-4.64,3.71-.21,10.13,1.05,15.36.58.44-.04-.13,1.24,1.16,1.16.26-.02,4.47-2.12,4.64-2.32.87-1.05-.72-3.64,1.45-3.48Z"/>
        <path class="cls-13" d="M121.77,158.49c-2.04-.07-.56.87,0,1.45,1.65,1.7,3.75,3.44,5.22,5.22.06.07-.64,1.67-.58,1.74.28.3,5.74,5.3,6.09,5.51.08.05.85-1.08,1.74-.58,11.17,6.28,24.35,8.94,33.34,19.42.85.99-.34,2.44,0,2.9,1.26,1.68,8.94,5.99,3.48,7.25-1.79-1.21-7.52-3.76-9.57-4.06-12.17-1.79-45.22,2.09-53.34-.58-.6-.2-3.23-4.4-5.8-5.22-19.33-6.16-21.19,22.78-3.77,21.45l-.58,10.44c-6.35,1.45-4.72-.36-6.67-.58-.35-.04-6.67.79-6.96.58-.22-.16-.29-2.56-2.32-4.06-.83-.62-8.21-3.92-8.7-4.06-3.05-.89-7.61,1.1-11.02-2.32-4.42,1.08-13.57,7.83-17.39,8.12-2.85.21-5.95-3.02-8.41,0-.13-3.48-.39-26.9.58-28.12l21.74-1.45c2.46-1.81-.64-18.85,1.45-22.32,2.22-3.68,20.71.43,24.64-2.03,3.98-2.49-1.55-17.15,2.32-20.87,1.2-.46,22.23.57,23.77,1.16s8.7,9.24,10.73,11.02Z"/>
        <path class="cls-46" d="M227.29,131.24c-4.35.48-6.09,2.65-7.25,2.9-7.06,1.53-12.45-4.28-19.42,2.61-.14.14.05,3.18-1.45,3.77-1.14.45-6.35-.43-6.96,0s1.53,7.71-5.22,6.38c-1.46-.29-3.54-2.16-4.06-2.32-1.29-.38-6.96-.13-8.12-1.16-.31-.27-1.87-6.23-2.9-6.96-3.06-2.16-18.64-.17-21.16-2.61-.41-.4-3.4-7.6-3.77-7.83-.54-.32-8.78.24-9.86,0-2.63-.59-13.01-6.92-15.65-6.38-3.69.75-1.77,9.37-5.51,9.28-3.66-38,18.51-40.05,50.15-39.43,5.04.1,30.64,1.35,33.63,2.9,7.13,3.7-.44,15.16,3.19,22.32,4.5,8.88,18.94,8.8,24.35,16.52Z"/>
        <path class="cls-28" d="M299.76,139.94c.85.2,2.61-.26,3.19,0,.36.16,4.84,5.12,5.8,5.22.86.09,2.12-1.59,2.9-1.74,1.42-.27,2.67,1.92,3.19.87.28-.56.47-7.84-1.45-7.83-.93.13.24,3.63-5.51,3.48,2.34-2.5,4.16-5.46,6.96-7.54-2.75,5.46.14,2.32.58,4.93.39,2.29-.51,4.96.29,7.25,3.49-2.52,2.72-5.6,3.19-8.99.04-.31,1.74-1.48,1.74-1.74.06-3.97-1.88-3.95-4.64-2.61l2.32-3.48c.44,1.54,3.62,2.52,3.48,7.25-.09,2.9-3.03,7.62-3.48,9.86-.43,2.13.73,7.46.58,8.12-.2.89-2.84,2.14-2.9,2.32-.12.36-.26,5.67-1.16,7.25-3.71-1.42-4.96,2.67-4.64,5.51.39,3.48,14.27,24.57,16.81,31.02-2.8,3.19,4.5,10.54-3.77,8.7-1.45-.32-7.39-8.75-8.41-10.44-3.86-6.42-10.46-27.12-13.62-30.73-2.67-3.04-11.68-2.76-15.65-5.22-4.42-2.74-2.89-4.44-3.19-4.93-2.99-4.92-4.2-2.23-7.83-3.19-1.64-.43-4.65-2.15-5.8-2.32s-4.72,1.71-7.54,1.16c-1.64-.32-9.37-6.76-10.73-8.41-.04-.05.96-.65.58-1.16-1.02-1.38-4.31-3.01-4.64-4.64-.75-3.71,5.72-7.4,6.38-11.31,13.68-2.24,17.59,8.17,28.7,11.6,5.92,1.83,13.45.6,18.26,1.74Z"/>
        <path class="cls-39" d="M121.77,158.49c4.03,3.54,10.24,10.35,15.36,11.6,10.38,2.53,25.19-2.15,34.79,2.9,6.75,3.55,29.48,29.83,36.82,37.11-3.01,5.17-7.23,1.59-10.73,2.32-2.75.57-8.53,3.48-10.73,5.22-4.2-4.05-12.26-13.54-16.23-16.23,5.46-1.26-2.22-5.57-3.48-7.25-.34-.45.85-1.91,0-2.9-8.98-10.48-22.17-13.14-33.34-19.42-.89-.5-1.66.63-1.74.58-.35-.21-5.81-5.21-6.09-5.51-.06-.07.64-1.67.58-1.74-1.47-1.77-3.57-3.52-5.22-5.22-.56-.58-2.04-1.52,0-1.45Z"/>
        <path class="cls-15" d="M264.98,266.91c5.06,8.12,2.75,40.18,2.9,51.6-2.25-.29-.64,3.55-1.16,4.93-.05.14-1.02.31-2.32,2.03-2.46-.34-.84-4.21-4.35-5.22-.6-.17-3.6.75-4.64.58-.73-.12-.51-1.57-1.74-1.74-.21-.03-2.98,1.29-4.06,1.16-.23-.03-1.73-2.44-3.77-1.74-.22-18.07,4.01-35.56-8.12-49.86l27.25-1.74Z"/>
        <path class="cls-43" d="M110.18,223.43c-.15,1.12-2.24,7.38-2.61,7.54-.42.18-8.01.16-8.99.87-.65.47.57,13.19-1.74,15.65-1.39,1.49-3.1.49-4.35,1.45-1.12.87-1.64,3.64-2.9,4.06-1.55.52-4.57-1.01-5.22-.58-.19.13-.97,2.48-2.32,4.06-.13.15-1.85-.48-2.61.87-.26.47.34,2.87-.58,4.06-1.87,2.42-4.83,3.94-6.38,6.67-10.16-7.94-17.78-18.76-26.09-28.41,4.01-5.74,6.59-1.29,8.99-1.16,1.14.06,6.04-2.3,6.38-2.32,2.77-.2,5.23,2.07,8.7.58,4.31-1.86,1.93-5.21,4.06-6.96,1.33-1.09,11.57-3.65,13.33-3.48.21.02.57,1.71,1.16,1.74,3.7.2,4.45.13,8.12-1.16-.7,1.64-1.36,2.25,1.16,2.32,3.29-.2,2.76-3.07,4.64-4.06,1.72-.9,6.02-1.25,7.25-1.74Z"/>
        <path class="cls-25" d="M98,223.43c.36-.08,1.05.99,2.03.58,4.19-1.76,4.99-10.81,13.62-3.19.18,1.08-1.56,1.66-2.32,2.03-.3.14-.49.31-1.16.58-1.23.49-5.52.84-7.25,1.74-1.88.98-1.35,3.86-4.64,4.06-2.52-.07-1.86-.68-1.16-2.32-3.67,1.29-4.42,1.36-8.12,1.16-.59-.03-.95-1.72-1.16-1.74-1.77-.17-12,2.39-13.33,3.48-2.13,1.74.25,5.1-4.06,6.96-3.46,1.49-5.92-.77-8.7-.58-.34.02-5.24,2.38-6.38,2.32-2.39-.13-4.98-4.58-8.99,1.16-1.64-1.91-9.66-8.35-9.86-8.99-.48-1.52.09-7.33,0-9.57,2.45-3.02,5.55.21,8.41,0,3.82-.28,12.97-7.04,17.39-8.12,3.4,3.42,7.97,1.43,11.02,2.32.48.14,7.86,3.44,8.7,4.06,2.03,1.5,2.09,3.89,2.32,4.06.29.21,6.61-.62,6.96-.58,1.94.22.32,2.03,6.67.58Z"/>
        <path class="cls-26" d="M342.09,383.45c-.12,9.57-3.18,18.26-12.18,22.61.15-.14,1.82-2.25,2.32-2.9,1.85-2.38,2.04-5.14,4.64-7.25-1.73-2.31-5.96-3.53-8.41-2.61-.88.33-3.05,3.29-3.48,3.48-2.9,1.28-3.29-.66-3.48-.58-.4.17-6.75,4.84-6.96,5.22-.97,1.8.55,3.9-2.03,6.67-1.8,1.94-5.49,1.57-6.96,4.35-6.29-.66-3.51-2.48-5.51-2.9-2.88-.61-5.48,6.37-9.57,5.22,1.07-7.91.02-18.62-.58-26.67,5.65,1.21,9.44-2.04,15.65-2.32-2.6,5.31-.44,2.69-.29,2.9,2.02,2.9,1.16,5.35,6.38,2.9.78-.37,3.53-3.93,3.77-4.06.77-.42,6.3-2.83,6.67-2.9,1.23-.24,5.16,4.25,3.19-2.61-.24-.82-3.19-1.03-1.16-3.77,1.79,1.24,2.67,4.73,2.9,4.93.64.55,7.86,2.23,8.41,2.03v-3.48l6.67,1.74Z"/>
        <path class="cls-16" d="M230.19,231.55c8.76,8.93,28.89,25.89,34.79,35.37l-27.25,1.74c-5.34-6.29-13.69-14.02-19.71-20.29.94-1.79,5.61-3.76,5.8-5.51.02-.21-1.48-2.53-1.16-4.06.11-.51,6.05-7.09,7.54-7.25Z"/>
        <path class="cls-40" d="M208.74,210.09c7.19,7.13,14.36,14.22,21.45,21.45-1.49.15-7.43,6.74-7.54,7.25-.32,1.53,1.18,3.85,1.16,4.06-.19,1.75-4.86,3.72-5.8,5.51-9.8-10.2-20.54-20.9-30.73-30.73,2.2-1.74,7.98-4.64,10.73-5.22,3.49-.73,7.71,2.85,10.73-2.32Z"/>
        <path class="cls-45" d="M347.89,339.96c-13.87,14.08-5.59,27.35-5.8,43.48l-6.67-1.74v3.48c-.55.2-7.77-1.48-8.41-2.03-.23-.2-1.11-3.69-2.9-4.93-4.03-2.8-3.83,1.3-4.93,1.74-1.5.6-4.69-.64-4.93-.58.58-2.45.75-3.83,0-6.38,8.76,1.79,15.3-4.96,13.33-13.62-.56-2.49-5.09-5.43-5.22-5.8-.4-1.13.09-6.03,0-7.83l3.77-.58c2.71-4.31,4.98-3.52,8.99-5.8,4.12,2.25,9.17-.96,12.76.58Z"/>
        <path class="cls-37" d="M312.52,333.59c.1,3.54.69,17.05,0,19.42-.29.98-4.33,3.54-5.22,6.09-2.4.03-2.36,2.61-3.19,2.9-.41.14-8.04,1.13-8.7,1.16-1.97.08-3.36-.83-7.54-.58-3.05.18-4.9-1.85-7.83,2.32-1.92-2.64-3.51-3.94-4.06-7.54.08-4.49,4.08-2.72,4.35-2.9,1.37-.9.71-2.48.87-2.61,2.38-1.95,5.01-4,6.96-6.38.26-.32-.4-2.26.29-3.19.4-.54,8.95-2.68,10.15-3.48,4.67-1.1,8.8-6.67,13.91-5.22Z"/>
        <path class="cls-44" d="M267.88,318.51c.16,12.19-.86,25.73,0,37.69-4.3-.91-3.79,2.74-4.06,2.9-2.11,1.24-3.85.31-4.35.58-1.57.83-3.89,3.35-5.22,4.06-.3.16-4.32.54-5.22,1.16-2.15,1.49-.52,3.8-3.19,3.48-.11-11.01.09-22.04,0-33.05,2.07,1,7.09,1.73,8.99,1.16.14-.04.81-1.76,1.74-2.32.17-.1,2.81.38,3.77-.87.35-.46.42-4.47.58-4.64,1.46-1.49,2.84-.6,3.19-.87.66-.51.06-2.02.29-2.32,1.3-1.72,2.26-1.89,2.32-2.03.52-1.38-1.09-5.21,1.16-4.93Z"/>
        <path class="cls-31" d="M263.82,359.1c1.68,5.07-2.14,9.99,5.8,6.96,4.59,10.51,10.82,5.57,11.6,22.03-.37.04-.87-.09-1.16,0-3.37.99-6.81-.12-10.15,1.16l1.16-3.48-6.96,1.74c-1.54-1.92-.35-4.29.87-6.09-.54-2.03-16.03-1.5-19.13-1.45-.08-3.85.04-7.74,0-11.6,2.67.32,1.04-1.99,3.19-3.48.9-.62,4.92-1,5.22-1.16,1.33-.71,3.65-3.23,5.22-4.06.5-.27,2.24.66,4.35-.58Z"/>
        <path class="cls-20" d="M382.09,312.13c-5.25,4.87-10.86,8.75-16.23,13.33-.45-5.23-5.7,1.19-7.25.58-3.43-1.35,9.45-9.59-.29-7.54.63-.97,3.13-4.75.87-5.22-4.77,4.01-3.77.63-4.06.58-4.81-.78-7.1,4.99-7.54,5.22-.31.16-5.49-.22-6.09,0,.47-2.53,4.09-2.12,4.35-2.32,2.12-1.57.46-2.34,1.16-2.9,1.78-1.42,3.33.09,3.48,0,1.73-1.04,2.33-3.61,4.06-4.64.29-.17,2.92-.25,3.48-.58,1.16-.68,1.94-3.31,3.48-3.48,1.43-.16,4.71,1.51,8.12.58,1.9-.52,5.71-4,8.12-4.06,1.33-.03,1.29,2.12,3.77,1.45-2.87,3.9-6.38,7.69.58,8.99Z"/>
        <path class="cls-2" d="M309.04,381.13c3.23-.27,2.08-1.01,5.22-1.74.24-.06,3.43,1.18,4.93.58,1.1-.44.9-4.54,4.93-1.74-2.03,2.74.92,2.95,1.16,3.77,1.97,6.86-1.96,2.37-3.19,2.61-.37.07-5.89,2.48-6.67,2.9-4.69-1.72-5.02-1.95-9.86-1.74-6.21.27-10.01,3.53-15.65,2.32-.16-2.18.32-4.93,0-6.96,2.46-.65,2.24-4.3,3.19-4.64,1.12-.4,4.94,1.73,5.22,1.74.93.02,6.03-1.95,7.54-.58.86.78.6,3.66.87,4.35.06.14.96-.75,2.32-.87Z"/>
        <path class="cls-48" d="M307.3,365.47c.18.78.25,1.02.58,1.74-4.08,3.79,2.98,8.57,1.16,13.91-1.36.11-2.26,1.01-2.32.87-.27-.69,0-3.57-.87-4.35-1.5-1.37-6.61.6-7.54.58-.27,0-4.1-2.14-5.22-1.74-.95.34-.72,3.99-3.19,4.64-1.41-8.85-4.06-8.91-8.7-15.07l26.09-.58Z"/>
        <path class="cls-20" d="M365.86,325.47c-5.16,4.4-13.77,10.22-17.97,14.49-3.58-1.54-8.64,1.67-12.76-.58,7.06-4.02,6-2.35,11.6-8.41,1.68-1.82,3.27-1.94,4.64-3.48.06-.07-1.15-1.07-.58-1.74,1.87-2.2,6.35-5.42,7.54-7.25,9.74-2.05-3.14,6.19.29,7.54,1.55.61,6.8-5.81,7.25-.58Z"/>
        <path class="cls-1" d="M298.6,338.8c-1.2.8-9.74,2.94-10.15,3.48-.69.93-.03,2.87-.29,3.19-1.95,2.38-4.58,4.42-6.96,6.38-.15.13.5,1.71-.87,2.61-.27.18-4.27-1.59-4.35,2.9-.54-3.54.12-8.9,0-12.76,4.14.06,6.27-.88,9.28-3.48.16-.14-.3-2.28,2.61-3.48,1.94-.8,4.74,1.33,5.22,1.16,1.09-.38,1.38-5.47,3.48-5.22,1,.12,1.13,3.3,4.35,2.03.63,1.12-1.6,2.71-2.32,3.19Z"/>
        <path class="cls-23" d="M331.07,212.99c2.63,9.06,2.85,17.46,9.28,26.09-1.88.93-2.64-.11-4.06-1.74-1.04-1.19-2.35-5.09-2.61-5.22-.59-.28-2.6.28-3.19,0-3.03-1.44-5.24-14.55-8.12-17.97,2.36-.46,2.47.14,3.48,0,2.79-.38,1.52-2.32,5.22-1.16Z"/>
        <path class="cls-15" d="M275.99,280.83c-.15-2.77-.18-7.4-.58-9.86,8.35-1.62,3.5-8.82,14.2-8.7.26,0,1.41,1.69,1.74,1.74.43.07,2.95-2.81,4.93.87-3.41-.18-6.84,3.08-8.99,3.77-.22.07-2.7-1.58-4.64-.58-1.81.93-1.66,13.79-6.67,12.76Z"/>
        <path class="cls-19" d="M307.3,365.47l-26.09.58c-.11-.14-.68-.49-1.16-1.16,2.93-4.17,4.78-2.13,7.83-2.32,4.18-.25,5.57.66,7.54.58.66-.03,8.28-1.02,8.7-1.16.83-.29.79-2.87,3.19-2.9-.85,2.43-.57,3.96,0,6.38Z"/>
        <path class="cls-36" d="M281.21,388.09c.06,1.34-.02,2.72,0,4.06-2.17-.16-.58,2.43-1.45,3.48-.17.2-4.38,2.3-4.64,2.32-1.29.08-.72-1.2-1.16-1.16-5.23.47-11.65-.79-15.36-.58,2.56-1.33,5.66-2.14,8.41-2.9.13-.04,1.02,1.19,1.16,1.16,1.13-.26,2.7-2.84,2.9-2.9,2.67-.8,10.01,2.9,8.99-3.48.29-.09.79.04,1.16,0Z"/>
        <path class="cls-46" d="M327.01,199.08c1.91,4.85,2.66,9.1,4.06,13.91-3.7-1.16-2.43.78-5.22,1.16-.83-3.05-2.06-.59-3.48-2.03-2.7-2.75-5.03-10.75-8.12-13.62l.58-1.16c1.01,1.68,6.95,10.11,8.41,10.44,8.27,1.84.97-5.51,3.77-8.7Z"/>
        <path class="cls-21" d="M267.88,356.2c.27,3.75.16,6.25,1.74,9.86-7.93,3.03-4.12-1.88-5.8-6.96.27-.16-.24-3.8,4.06-2.9Z"/>
        <path class="cls-24" d="M285.27,341.12c-3,2.59-5.13,3.54-9.28,3.48-.05-1.54.03-3.1,0-4.64,3.32-.96,6.07.17,9.28,1.16Z"/>
        <path class="cls-40" d="M254.54,229.81c.84-3.88,1.75-4.23,5.22-5.22,2.49-.44,1.51,1.29,1.16,2.61-1.37,5.15-2.87,3.54-6.38,2.61Z"/>
        <path class="cls-30" d="M358.32,318.51c-1.19,1.83-5.67,5.05-7.54,7.25-.57.67.64,1.67.58,1.74-1.37,1.53-2.96,1.66-4.64,3.48-5.6,6.06-4.53,4.39-11.6,8.41-4.01,2.28-6.28,1.49-8.99,5.8l-3.77.58c-.22-4.41-.14-9.48,0-13.91,1.46-3.56,1.4.12,3.19-1.16,3.59-2.58,3.78-8.03,11.02-5.8l-2.03-2.32c3.97-.94,4.05-2.42,6.96-3.48.59-.22,5.78.16,6.09,0,.43-.22,2.73-6,7.54-5.22.29.05-.71,3.43,4.06-.58,2.26.47-.24,4.25-.87,5.22Z"/>
        <path class="cls-40" d="M322.38,214.15c2.88,3.42,5.09,16.53,8.12,17.97l-.58,5.22c-.26-.06-1.14,1.07-2.61,0-.35-.26-4.73-6.78-4.93-7.25-.14-.33-1.64-5.77-1.74-6.38-.28-1.65-.71-9.22.29-10.15.67-.3.94.68,1.45.58Z"/>
        <path class="cls-22" d="M325.85,317.35c5.96,3.75.08,7.26,8.7,5.22l2.03,2.32c-7.23-2.23-7.42,3.22-11.02,5.8-1.79,1.28-1.73-2.4-3.19,1.16.08-2.54-.53-10.94,0-12.47.32-.9,3.35-1.87,3.48-2.03Z"/>
        <path class="cls-17" d="M336.29,237.34c-2.54,1.52-3.66.66-6.38,0l.58-5.22c.59.28,2.59-.28,3.19,0,.26.12,1.57,4.02,2.61,5.22Z"/>
        <path class="cls-48" d="M280.05,388.09c1.02,6.38-6.31,2.68-8.99,3.48-.2.06-1.77,2.64-2.9,2.9-.14.03-1.03-1.2-1.16-1.16-2.75.76-5.85,1.57-8.41,2.9-2.21.13-9.44,1.19-9.28,4.64-.38-.68-3.29-2.07-3.48-2.61-.7-2.03.07-14.82,0-18.26,3.1-.05,18.59-.58,19.13,1.45-1.22,1.8-2.41,4.17-.87,6.09l6.96-1.74-1.16,3.48c3.34-1.28,6.77-.17,10.15-1.16Z"/>
        <path class="cls-4" d="M332.23,403.16l-2.61-2.32c-6.26,4.81-12.98,7.92-20.29,10.44-.18.06-.79,1.95-2.9,2.32-.36.06-.8-1.15-.87-1.16,1.47-2.78,5.15-2.41,6.96-4.35,2.58-2.77,1.06-4.87,2.03-6.67.21-.38,6.56-5.04,6.96-5.22.18-.08.57,1.86,3.48.58.43-.19,2.6-3.15,3.48-3.48,2.45-.93,6.67.3,8.41,2.61-2.6,2.11-2.79,4.87-4.64,7.25Z"/>
        <path class="cls-13" d="M160.04,206.61c.01,1.5-.75,6.08,0,7.25.43.67,1.91-.09,2.32.58,1.77,2.89,2.55,7.22,3.48,8.7.5.79,5.04,3.78,5.22,4.06.07.1-1.13,1.05-.58,2.32.41.93,2.3,1.6,2.32,1.74.19,1.21-1.95,1.14-2.32,1.74-.16.26.08,2.41-.87,3.19-1.96,1.6-7.55-1.25-5.51,4.06-2.98-.33-10.44.7-12.47,0-2.42-.83-6.5-10.21-14.78-2.9-2.04-5.71-2.4-2.63-5.51-4.64-.64-.41-.82-3.03-1.74-2.9-1.49.22-.6,1.86-1.45,2.32-3.43,1.88-11.24-3.85-10.73-8.12l-6.09-1.16c.76-.36,2.5-.94,2.32-2.03-8.64-7.63-9.43,1.43-13.62,3.19-.98.41-1.67-.66-2.03-.58l.58-10.44c4.23-.32,7.49-3.68,9.57-6.96,15.65,1.69,36.9-2.52,51.89.58Z"/>
        <path class="cls-43" d="M175.69,258.22c-.59,1.58,3.03,4.98,4.06,6.09,1.17,1.27,8.64,8.08,8.7,8.7.01.17-1.68,1.95-1.74,2.9s1.99,2.03,0,4.35c-3.48,4.07-4.41-3.14-4.93-3.48-.85-.55-3.04.4-4.35-.87s-1.5-4.87-1.74-5.22c-1.22-1.73-3.64-3.97-5.22-6.38-.39-.59,1.25-1.28.29-2.03-.84-.65-6.84-.42-7.25-.87-.92-1.03-1.6-8.11-2.03-8.41-4.11-2.87-20.45,3.76-22.03,3.48-2.13-.39-8.84-8.42-4.93-11.02,1.23,6.16,6.62,8.8,12.47,6.96,1.32-.42,2.87-2.63,4.06-2.9,13.15-3.02,16.59,1.46,24.64,8.7Z"/>
        <g>
          <path class="cls-6" d="M128.15,232.13l2.32,5.51c3.4.19,2.73.35,4.64,2.61-1.15,2.56-1.12,2.53-.58,5.22-3.91,2.6,2.8,10.63,4.93,11.02,1.58.29,17.92-6.35,22.03-3.48.43.3,1.11,7.38,2.03,8.41.4.45,6.41.22,7.25.87.96.75-.68,1.44-.29,2.03,1.58,2.41,4,4.65,5.22,6.38.24.35.41,3.94,1.74,5.22s3.5.32,4.35.87c.52.34,1.45,7.55,4.93,3.48,2.51.93,1.39,2.14,2.9,5.22.41.83,1.98,4.26,2.61,4.64,1.6.96,7.41.32,8.12.58.8.29.87,1.89,1.74,2.32,2.55,1.25,4.14-.73,4.93,2.9.65,7.83.38,16.43.58,24.35h-25.22l-5.51-6.38c.75-6.81,5.89-14.03,1.74-22.32-3.17-6.33-12.25-5.81-17.1-8.99-3.3-2.16-5.04-7.41-9.28-8.7-10.98-3.34-47.98,3.62-63.78,1.74-6.42-.76-11.04-3.7-15.94-7.54,1.54-2.73,4.51-4.25,6.38-6.67.92-1.19.32-3.59.58-4.06.76-1.35,2.48-.72,2.61-.87,1.35-1.58,2.12-3.93,2.32-4.06.64-.43,3.66,1.1,5.22.58,1.26-.42,1.78-3.19,2.9-4.06,1.25-.96,2.95.04,4.35-1.45,2.31-2.46,1.09-15.19,1.74-15.65.98-.71,8.57-.69,8.99-.87.37-.16,2.46-6.41,2.61-7.54.67-.27.86-.44,1.16-.58l6.09,1.16c-.51,4.26,7.3,10,10.73,8.12Z"/>
          <path class="cls-30" d="M182.94,308.08c5.3,1.72,3.13,7.92-.58,10.44-3.35-5.14-5.51-5.81.58-10.44Z"/>
        </g>
        <path class="cls-25" d="M136.85,237.34c-.62.55-1.37,2.09-1.74,2.9-1.91-2.26-1.24-2.42-4.64-2.61l-2.32-5.51c.84-.46-.04-2.1,1.45-2.32.92-.13,1.1,2.48,1.74,2.9,3.11,2.01,3.47-1.07,5.51,4.64Z"/>
        <path class="cls-38" d="M235.41,317.35l.58.58c.18,16.8.77,33.61.58,50.44-7.88-1.73-12.34,4.71-20.29,3.48,1.08-14.23.18-31.84,0-46.38,7.84.23,12.4-5.61,19.13-8.12Z"/>
        <path class="cls-41" d="M264.4,325.47c-.23.3.37,1.81-.29,2.32-.35.27-1.72-.62-3.19.87-.16.17-.23,4.18-.58,4.64-.96,1.25-3.6.77-3.77.87-.93.56-1.6,2.28-1.74,2.32-1.9.57-6.92-.16-8.99-1.16-.05-5.6.07-11.22,0-16.81,2.04-.7,3.54,1.71,3.77,1.74,1.08.13,3.85-1.19,4.06-1.16,1.23.17,1.01,1.62,1.74,1.74,1.04.17,4.04-.75,4.64-.58,3.51,1.01,1.89,4.87,4.35,5.22Z"/>
        <path class="cls-26" d="M315.42,387.51c-.24.13-2.99,3.69-3.77,4.06-5.21,2.45-4.36,0-6.38-2.9-.15-.21-2.31,2.42.29-2.9,4.84-.21,5.17.02,9.86,1.74Z"/>
        <path class="cls-27" d="M314.26,373.01c.75,2.55.58,3.93,0,6.38-3.14.73-1.99,1.47-5.22,1.74,1.82-5.34-5.24-10.13-1.16-13.91,1.05,2.31,3.93,5.3,6.38,5.8Z"/>
        <path class="cls-44" d="M315.71,301.7c10.92-2.47,7.37,15.44-1.16,9.86-3.62-2.37-3.21-8.87,1.16-9.86Z"/>
        <path class="cls-7" d="M222.65,266.91c-5.31.51-2.51,5.28-3.48,7.25-.23.47-1.93,1.84-2.9,3.19-1.2,1.67-2.13,3.61-4.06,4.64-2.88-4.51-38.17-39.21-42.03-40.58-1.74-.62-4.22-.95-6.09-1.16-2.04-5.31,3.55-2.46,5.51-4.06.95-.78.71-2.93.87-3.19.36-.6,2.51-.53,2.32-1.74-.02-.14-1.91-.81-2.32-1.74-.55-1.26.65-2.22.58-2.32-.18-.28-4.72-3.27-5.22-4.06-.93-1.47-1.71-5.81-3.48-8.7-.41-.67-1.89.09-2.32-.58-.75-1.17.01-5.74,0-7.25,2.36.49,2.75.38,4.93,1.74,11.88,7.44,45.89,46.09,57.69,58.56Z"/>
        <path class="cls-44" d="M234.83,279.67c2.36,4.85,1.5,7.06,1.74,12.18-2.83-1.56-3.83.04-4.06,0-.94-.17-.37-1.03-.87-1.16-.68-.17-1.22.94-2.32.58-.16-.05-.35-2.53-2.32-2.32-1.21.13-5.59,9.59-10.73,6.96-.47-5.45-1.04-9.18-4.06-13.91,1.93-1.03,2.86-2.97,4.06-4.64,4.41-2.73,3.39.92,4.93,1.74.63.33,4.91,2.8,5.22,2.9,3.71,1.16,5.17-2.15,8.41-2.32Z"/>
        <path class="cls-44" d="M236.57,291.84c.4,8.5-.67,17.09-.58,25.51h-.58c-6.73,2.51-11.29,8.35-19.13,8.12,0-.58,0-1.16,0-1.74,1.56-1.87,5.23-1.3,6.09-1.74.3-.15,3.9-3.19,4.93-4.06.68-.57,3.94-2.93,4.06-3.19.62-1.34-.17-4.57,0-5.22s1.72-2.18,1.74-2.32c.87-5.24.09-10.24-.58-15.36.23.04,1.23-1.56,4.06,0Z"/>
        <path class="cls-15" d="M234.83,279.67c-3.23.17-4.7,3.48-8.41,2.32-.31-.1-4.59-2.57-5.22-2.9-1.54-.82-.52-4.47-4.93-1.74.97-1.35,2.67-2.72,2.9-3.19.97-1.97-1.84-6.74,3.48-7.25,3.42,3.61,10.06,8.42,12.18,12.76Z"/>
        <path class="cls-18" d="M235.99,317.93l-.58-.58h.58c0,.19,0,.39,0,.58Z"/>
        <path class="cls-20" d="M227.29,317.93c-1.02.87-4.63,3.91-4.93,4.06-.86.43-4.53-.13-6.09,1.74-.11-8.49.56-17.73,0-26.09,5.43-.16.46,2.21,2.03,5.22,3.17,1.21,5.7-3.37,6.38-3.48.37-.06,1.18,3.28,1.45,3.77.33.6,1.43-.02,1.74.58,1,1.96-1.84,11.51-.58,14.2Z"/>
        <path class="cls-20" d="M232.51,291.84c.67,5.12,1.45,10.13.58,15.36-.02.14-1.57,1.65-1.74,2.32s.62,3.88,0,5.22c-.12.26-3.38,2.61-4.06,3.19-1.26-2.69,1.58-12.24.58-14.2-.31-.6-1.41.02-1.74-.58-.27-.49-1.08-3.83-1.45-3.77-.68.11-3.21,4.69-6.38,3.48-1.57-3,3.4-5.38-2.03-5.22-.04-.57.05-1.17,0-1.74,5.13,2.63,9.52-6.83,10.73-6.96,1.97-.21,2.16,2.27,2.32,2.32,1.1.37,1.64-.75,2.32-.58.49.13-.07.99.87,1.16Z"/>
      </g>
    </g>
  </g>
</svg>